%TF.GenerationSoftware,KiCad,Pcbnew,7.0.8*%
%TF.CreationDate,2024-02-04T20:23:09+01:00*%
%TF.ProjectId,schneidbrett,7363686e-6569-4646-9272-6574742e6b69,rev?*%
%TF.SameCoordinates,Original*%
%TF.FileFunction,Drillmap*%
%TF.FilePolarity,Positive*%
%FSLAX45Y45*%
G04 Gerber Fmt 4.5, Leading zero omitted, Abs format (unit mm)*
G04 Created by KiCad (PCBNEW 7.0.8) date 2024-02-04 20:23:09*
%MOMM*%
%LPD*%
G01*
G04 APERTURE LIST*
%ADD10C,0.100000*%
%ADD11C,0.200000*%
%ADD12C,0.025000*%
%ADD13C,0.030000*%
%ADD14C,0.040000*%
%ADD15C,0.060000*%
%ADD16C,0.120000*%
%ADD17C,0.320000*%
G04 APERTURE END LIST*
D10*
X7620000Y-7510000D02*
X7620000Y-11256500D01*
X8128000Y-11764500D02*
X22606000Y-11764500D01*
X22606000Y-11764500D02*
G75*
G03*
X23114000Y-11256500I0J508000D01*
G01*
X22606000Y-7002000D02*
X8128000Y-7002000D01*
X8128000Y-7002000D02*
G75*
G03*
X7620000Y-7510000I0J-508000D01*
G01*
X23114000Y-11256500D02*
X23114000Y-7510000D01*
X7620000Y-11256500D02*
G75*
G03*
X8128000Y-11764500I508000J0D01*
G01*
X23114000Y-7510000D02*
G75*
G03*
X22606000Y-7002000I-508000J0D01*
G01*
D11*
D12*
X9652200Y-9868100D02*
X9677200Y-9893100D01*
X9677200Y-9868100D02*
X9652200Y-9893100D01*
X9652200Y-9944300D02*
X9677200Y-9969300D01*
X9677200Y-9944300D02*
X9652200Y-9969300D01*
X9652200Y-10020500D02*
X9677200Y-10045500D01*
X9677200Y-10020500D02*
X9652200Y-10045500D01*
X9931600Y-9868100D02*
X9956600Y-9893100D01*
X9956600Y-9868100D02*
X9931600Y-9893100D01*
X9931600Y-9944300D02*
X9956600Y-9969300D01*
X9956600Y-9944300D02*
X9931600Y-9969300D01*
X9931600Y-10020500D02*
X9956600Y-10045500D01*
X9956600Y-10020500D02*
X9931600Y-10045500D01*
X9957000Y-8433000D02*
X9982000Y-8458000D01*
X9982000Y-8433000D02*
X9957000Y-8458000D01*
X9957000Y-8534600D02*
X9982000Y-8559600D01*
X9982000Y-8534600D02*
X9957000Y-8559600D01*
X9957000Y-8636200D02*
X9982000Y-8661200D01*
X9982000Y-8636200D02*
X9957000Y-8661200D01*
X10084000Y-8318700D02*
X10109000Y-8343700D01*
X10109000Y-8318700D02*
X10084000Y-8343700D01*
X10084000Y-8433000D02*
X10109000Y-8458000D01*
X10109000Y-8433000D02*
X10084000Y-8458000D01*
X10084000Y-8534600D02*
X10109000Y-8559600D01*
X10109000Y-8534600D02*
X10084000Y-8559600D01*
X10084000Y-8636200D02*
X10109000Y-8661200D01*
X10109000Y-8636200D02*
X10084000Y-8661200D01*
X10084000Y-8750500D02*
X10109000Y-8775500D01*
X10109000Y-8750500D02*
X10084000Y-8775500D01*
X10172900Y-10007800D02*
X10197900Y-10032800D01*
X10197900Y-10007800D02*
X10172900Y-10032800D01*
X10439600Y-10007800D02*
X10464600Y-10032800D01*
X10464600Y-10007800D02*
X10439600Y-10032800D01*
X10731700Y-10553900D02*
X10756700Y-10578900D01*
X10756700Y-10553900D02*
X10731700Y-10578900D01*
X10731700Y-10655500D02*
X10756700Y-10680500D01*
X10756700Y-10655500D02*
X10731700Y-10680500D01*
X10731700Y-10807900D02*
X10756700Y-10832900D01*
X10756700Y-10807900D02*
X10731700Y-10832900D01*
X10731700Y-10909500D02*
X10756700Y-10934500D01*
X10756700Y-10909500D02*
X10731700Y-10934500D01*
X10846000Y-10553900D02*
X10871000Y-10578900D01*
X10871000Y-10553900D02*
X10846000Y-10578900D01*
X10846000Y-10655500D02*
X10871000Y-10680500D01*
X10871000Y-10655500D02*
X10846000Y-10680500D01*
X10846000Y-10909500D02*
X10871000Y-10934500D01*
X10871000Y-10909500D02*
X10846000Y-10934500D01*
X11493700Y-9614100D02*
X11518700Y-9639100D01*
X11518700Y-9614100D02*
X11493700Y-9639100D01*
X12255700Y-9639500D02*
X12280700Y-9664500D01*
X12280700Y-9639500D02*
X12255700Y-9664500D01*
X12255700Y-10528500D02*
X12280700Y-10553500D01*
X12280700Y-10528500D02*
X12255700Y-10553500D01*
X12357300Y-9639500D02*
X12382300Y-9664500D01*
X12382300Y-9639500D02*
X12357300Y-9664500D01*
X12458900Y-9639500D02*
X12483900Y-9664500D01*
X12483900Y-9639500D02*
X12458900Y-9664500D01*
X12458900Y-10604700D02*
X12483900Y-10629700D01*
X12483900Y-10604700D02*
X12458900Y-10629700D01*
X12560500Y-9639500D02*
X12585500Y-9664500D01*
X12585500Y-9639500D02*
X12560500Y-9664500D01*
X12611300Y-10833300D02*
X12636300Y-10858300D01*
X12636300Y-10833300D02*
X12611300Y-10858300D01*
X12636700Y-10731700D02*
X12661700Y-10756700D01*
X12661700Y-10731700D02*
X12636700Y-10756700D01*
X12738300Y-10731700D02*
X12763300Y-10756700D01*
X12763300Y-10731700D02*
X12738300Y-10756700D01*
X12839900Y-10731700D02*
X12864900Y-10756700D01*
X12864900Y-10731700D02*
X12839900Y-10756700D01*
X13195500Y-8572700D02*
X13220500Y-8597700D01*
X13220500Y-8572700D02*
X13195500Y-8597700D01*
X13297100Y-8572700D02*
X13322100Y-8597700D01*
X13322100Y-8572700D02*
X13297100Y-8597700D01*
X13297100Y-9080700D02*
X13322100Y-9105700D01*
X13322100Y-9080700D02*
X13297100Y-9105700D01*
X13322500Y-9258500D02*
X13347500Y-9283500D01*
X13347500Y-9258500D02*
X13322500Y-9283500D01*
X13322500Y-9385500D02*
X13347500Y-9410500D01*
X13347500Y-9385500D02*
X13322500Y-9410500D01*
X13398700Y-9080700D02*
X13423700Y-9105700D01*
X13423700Y-9080700D02*
X13398700Y-9105700D01*
X13474900Y-9080700D02*
X13499900Y-9105700D01*
X13499900Y-9080700D02*
X13474900Y-9105700D01*
X13728900Y-8140900D02*
X13753900Y-8165900D01*
X13753900Y-8140900D02*
X13728900Y-8165900D01*
X13805100Y-10757100D02*
X13830100Y-10782100D01*
X13830100Y-10757100D02*
X13805100Y-10782100D01*
X13817800Y-9703000D02*
X13842800Y-9728000D01*
X13842800Y-9703000D02*
X13817800Y-9728000D01*
X13881300Y-8699700D02*
X13906300Y-8724700D01*
X13906300Y-8699700D02*
X13881300Y-8724700D01*
X13881300Y-11366700D02*
X13906300Y-11391700D01*
X13906300Y-11366700D02*
X13881300Y-11391700D01*
X13899896Y-9493737D02*
X13924896Y-9518737D01*
X13924896Y-9493737D02*
X13899896Y-9518737D01*
X13906700Y-10757100D02*
X13931700Y-10782100D01*
X13931700Y-10757100D02*
X13906700Y-10782100D01*
X13932100Y-9918900D02*
X13957100Y-9943900D01*
X13957100Y-9918900D02*
X13932100Y-9943900D01*
X13957500Y-8928300D02*
X13982500Y-8953300D01*
X13982500Y-8928300D02*
X13957500Y-8953300D01*
X13960023Y-9052777D02*
X13985023Y-9077777D01*
X13985023Y-9052777D02*
X13960023Y-9077777D01*
X14033700Y-9207700D02*
X14058700Y-9232700D01*
X14058700Y-9207700D02*
X14033700Y-9232700D01*
X14059100Y-10934900D02*
X14084100Y-10959900D01*
X14084100Y-10934900D02*
X14059100Y-10959900D01*
X14313100Y-11036500D02*
X14338100Y-11061500D01*
X14338100Y-11036500D02*
X14313100Y-11061500D01*
X14313100Y-11188900D02*
X14338100Y-11213900D01*
X14338100Y-11188900D02*
X14313100Y-11213900D01*
X14338500Y-8496500D02*
X14363500Y-8521500D01*
X14363500Y-8496500D02*
X14338500Y-8521500D01*
X14391498Y-7787498D02*
X14416498Y-7812498D01*
X14416498Y-7787498D02*
X14391498Y-7812498D01*
X14440100Y-8496500D02*
X14465100Y-8521500D01*
X14465100Y-8496500D02*
X14440100Y-8521500D01*
X14516300Y-10757100D02*
X14541300Y-10782100D01*
X14541300Y-10757100D02*
X14516300Y-10782100D01*
X14592500Y-9741100D02*
X14617500Y-9766100D01*
X14617500Y-9741100D02*
X14592500Y-9766100D01*
X14617900Y-10757100D02*
X14642900Y-10782100D01*
X14642900Y-10757100D02*
X14617900Y-10782100D01*
X14630600Y-8140900D02*
X14655600Y-8165900D01*
X14655600Y-8140900D02*
X14630600Y-8165900D01*
X14744900Y-9588700D02*
X14769900Y-9613700D01*
X14769900Y-9588700D02*
X14744900Y-9613700D01*
X14795700Y-7734500D02*
X14820700Y-7759500D01*
X14820700Y-7734500D02*
X14795700Y-7759500D01*
X15151300Y-10757100D02*
X15176300Y-10782100D01*
X15176300Y-10757100D02*
X15151300Y-10782100D01*
X15176700Y-11061900D02*
X15201700Y-11086900D01*
X15201700Y-11061900D02*
X15176700Y-11086900D01*
X15430700Y-8153600D02*
X15455700Y-8178600D01*
X15455700Y-8153600D02*
X15430700Y-8178600D01*
X15710100Y-10655500D02*
X15735100Y-10680500D01*
X15735100Y-10655500D02*
X15710100Y-10680500D01*
X15710100Y-10757100D02*
X15735100Y-10782100D01*
X15735100Y-10757100D02*
X15710100Y-10782100D01*
X15976800Y-9512500D02*
X16001800Y-9537500D01*
X16001800Y-9512500D02*
X15976800Y-9537500D01*
X16243500Y-9207700D02*
X16268500Y-9232700D01*
X16268500Y-9207700D02*
X16243500Y-9232700D01*
X16294300Y-9817300D02*
X16319300Y-9842300D01*
X16319300Y-9817300D02*
X16294300Y-9842300D01*
X16319700Y-9334700D02*
X16344700Y-9359700D01*
X16344700Y-9334700D02*
X16319700Y-9359700D01*
X16395900Y-9258500D02*
X16420900Y-9283500D01*
X16420900Y-9258500D02*
X16395900Y-9283500D01*
X16395900Y-9817300D02*
X16420900Y-9842300D01*
X16420900Y-9817300D02*
X16395900Y-9842300D01*
X16611800Y-8661600D02*
X16636800Y-8686600D01*
X16636800Y-8661600D02*
X16611800Y-8686600D01*
X17399200Y-8725100D02*
X17424200Y-8750100D01*
X17424200Y-8725100D02*
X17399200Y-8750100D01*
X17462700Y-8636200D02*
X17487700Y-8661200D01*
X17487700Y-8636200D02*
X17462700Y-8661200D01*
X17488100Y-9715700D02*
X17513100Y-9740700D01*
X17513100Y-9715700D02*
X17488100Y-9740700D01*
X17513500Y-9068000D02*
X17538500Y-9093000D01*
X17538500Y-9068000D02*
X17513500Y-9093000D01*
X17513500Y-9169600D02*
X17538500Y-9194600D01*
X17538500Y-9169600D02*
X17513500Y-9194600D01*
X17615100Y-8902900D02*
X17640100Y-8927900D01*
X17640100Y-8902900D02*
X17615100Y-8927900D01*
X17767500Y-8547300D02*
X17792500Y-8572300D01*
X17792500Y-8547300D02*
X17767500Y-8572300D01*
X17945300Y-8966400D02*
X17970300Y-8991400D01*
X17970300Y-8966400D02*
X17945300Y-8991400D01*
X17945300Y-9182300D02*
X17970300Y-9207300D01*
X17970300Y-9182300D02*
X17945300Y-9207300D01*
X18148500Y-9512500D02*
X18173500Y-9537500D01*
X18173500Y-9512500D02*
X18148500Y-9537500D01*
X18173900Y-10045900D02*
X18198900Y-10070900D01*
X18198900Y-10045900D02*
X18173900Y-10070900D01*
X18847000Y-8585400D02*
X18872000Y-8610400D01*
X18872000Y-8585400D02*
X18847000Y-8610400D01*
X21069500Y-9842700D02*
X21094500Y-9867700D01*
X21094500Y-9842700D02*
X21069500Y-9867700D01*
X21729900Y-9410900D02*
X21754900Y-9435900D01*
X21754900Y-9410900D02*
X21729900Y-9435900D01*
X21831500Y-9791900D02*
X21856500Y-9816900D01*
X21856500Y-9791900D02*
X21831500Y-9816900D01*
X21983900Y-9461700D02*
X22008900Y-9486700D01*
X22008900Y-9461700D02*
X21983900Y-9486700D01*
X21983900Y-9563300D02*
X22008900Y-9588300D01*
X22008900Y-9563300D02*
X21983900Y-9588300D01*
X22149000Y-9360100D02*
X22174000Y-9385100D01*
X22174000Y-9360100D02*
X22149000Y-9385100D01*
X22237900Y-9360100D02*
X22262900Y-9385100D01*
X22262900Y-9360100D02*
X22237900Y-9385100D01*
X22250600Y-8636200D02*
X22275600Y-8661200D01*
X22275600Y-8636200D02*
X22250600Y-8661200D01*
X22250600Y-8712400D02*
X22275600Y-8737400D01*
X22275600Y-8712400D02*
X22250600Y-8737400D01*
X22250600Y-8788600D02*
X22275600Y-8813600D01*
X22275600Y-8788600D02*
X22250600Y-8813600D01*
X22250600Y-8864800D02*
X22275600Y-8889800D01*
X22275600Y-8864800D02*
X22250600Y-8889800D01*
X22250600Y-8941000D02*
X22275600Y-8966000D01*
X22275600Y-8941000D02*
X22250600Y-8966000D01*
X22250600Y-9017200D02*
X22275600Y-9042200D01*
X22275600Y-9017200D02*
X22250600Y-9042200D01*
X22250600Y-9093400D02*
X22275600Y-9118400D01*
X22275600Y-9093400D02*
X22250600Y-9118400D01*
X22250600Y-9169600D02*
X22275600Y-9194600D01*
X22275600Y-9169600D02*
X22250600Y-9194600D01*
X22390300Y-10287200D02*
X22415300Y-10312200D01*
X22415300Y-10287200D02*
X22390300Y-10312200D01*
D13*
X17693400Y-9855200D02*
G75*
G03*
X17693400Y-9855200I-15000J0D01*
G01*
X17693400Y-9956800D02*
G75*
G03*
X17693400Y-9956800I-15000J0D01*
G01*
X17795000Y-9855200D02*
G75*
G03*
X17795000Y-9855200I-15000J0D01*
G01*
X17795000Y-9956800D02*
G75*
G03*
X17795000Y-9956800I-15000J0D01*
G01*
D14*
X7874000Y-8997000D02*
X7874000Y-9037000D01*
X7854000Y-9017000D02*
X7894000Y-9017000D01*
X7874000Y-9187500D02*
X7874000Y-9227500D01*
X7854000Y-9207500D02*
X7894000Y-9207500D01*
X7874000Y-10140000D02*
X7874000Y-10180000D01*
X7854000Y-10160000D02*
X7894000Y-10160000D01*
X7874000Y-10648000D02*
X7874000Y-10688000D01*
X7854000Y-10668000D02*
X7894000Y-10668000D01*
X7874000Y-10838500D02*
X7874000Y-10878500D01*
X7854000Y-10858500D02*
X7894000Y-10858500D01*
X8064500Y-9187500D02*
X8064500Y-9227500D01*
X8044500Y-9207500D02*
X8084500Y-9207500D01*
X8064500Y-10838500D02*
X8064500Y-10878500D01*
X8044500Y-10858500D02*
X8084500Y-10858500D01*
X8128000Y-9378000D02*
X8128000Y-9418000D01*
X8108000Y-9398000D02*
X8148000Y-9398000D01*
X8255000Y-9187500D02*
X8255000Y-9227500D01*
X8235000Y-9207500D02*
X8275000Y-9207500D01*
X8255000Y-10838500D02*
X8255000Y-10878500D01*
X8235000Y-10858500D02*
X8275000Y-10858500D01*
X8636000Y-7854000D02*
X8636000Y-7894000D01*
X8616000Y-7874000D02*
X8656000Y-7874000D01*
X8636000Y-8616000D02*
X8636000Y-8656000D01*
X8616000Y-8636000D02*
X8656000Y-8636000D01*
X8636000Y-9378000D02*
X8636000Y-9418000D01*
X8616000Y-9398000D02*
X8656000Y-9398000D01*
X8636000Y-10140000D02*
X8636000Y-10180000D01*
X8616000Y-10160000D02*
X8656000Y-10160000D01*
X8636000Y-10902000D02*
X8636000Y-10942000D01*
X8616000Y-10922000D02*
X8656000Y-10922000D01*
X8636000Y-11537000D02*
X8636000Y-11577000D01*
X8616000Y-11557000D02*
X8656000Y-11557000D01*
X9144000Y-7346000D02*
X9144000Y-7386000D01*
X9124000Y-7366000D02*
X9164000Y-7366000D01*
X9144000Y-7854000D02*
X9144000Y-7894000D01*
X9124000Y-7874000D02*
X9164000Y-7874000D01*
X9144000Y-8616000D02*
X9144000Y-8656000D01*
X9124000Y-8636000D02*
X9164000Y-8636000D01*
X9144000Y-9378000D02*
X9144000Y-9418000D01*
X9124000Y-9398000D02*
X9164000Y-9398000D01*
X9144000Y-10140000D02*
X9144000Y-10180000D01*
X9124000Y-10160000D02*
X9164000Y-10160000D01*
X9144000Y-10902000D02*
X9144000Y-10942000D01*
X9124000Y-10922000D02*
X9164000Y-10922000D01*
X9144000Y-11156000D02*
X9144000Y-11196000D01*
X9124000Y-11176000D02*
X9164000Y-11176000D01*
X9144000Y-11537000D02*
X9144000Y-11577000D01*
X9124000Y-11557000D02*
X9164000Y-11557000D01*
X9652000Y-7346000D02*
X9652000Y-7386000D01*
X9632000Y-7366000D02*
X9672000Y-7366000D01*
X9652000Y-7854000D02*
X9652000Y-7894000D01*
X9632000Y-7874000D02*
X9672000Y-7874000D01*
X9652000Y-8616000D02*
X9652000Y-8656000D01*
X9632000Y-8636000D02*
X9672000Y-8636000D01*
X9652000Y-9378000D02*
X9652000Y-9418000D01*
X9632000Y-9398000D02*
X9672000Y-9398000D01*
X9652000Y-10902000D02*
X9652000Y-10942000D01*
X9632000Y-10922000D02*
X9672000Y-10922000D01*
X9652000Y-11156000D02*
X9652000Y-11196000D01*
X9632000Y-11176000D02*
X9672000Y-11176000D01*
X9652000Y-11537000D02*
X9652000Y-11577000D01*
X9632000Y-11557000D02*
X9672000Y-11557000D01*
X9906000Y-10648000D02*
X9906000Y-10688000D01*
X9886000Y-10668000D02*
X9926000Y-10668000D01*
X10160000Y-7346000D02*
X10160000Y-7386000D01*
X10140000Y-7366000D02*
X10180000Y-7366000D01*
X10160000Y-7854000D02*
X10160000Y-7894000D01*
X10140000Y-7874000D02*
X10180000Y-7874000D01*
X10160000Y-9378000D02*
X10160000Y-9418000D01*
X10140000Y-9398000D02*
X10180000Y-9398000D01*
X10160000Y-10394000D02*
X10160000Y-10434000D01*
X10140000Y-10414000D02*
X10180000Y-10414000D01*
X10160000Y-10902000D02*
X10160000Y-10942000D01*
X10140000Y-10922000D02*
X10180000Y-10922000D01*
X10160000Y-11156000D02*
X10160000Y-11196000D01*
X10140000Y-11176000D02*
X10180000Y-11176000D01*
X10160000Y-11537000D02*
X10160000Y-11577000D01*
X10140000Y-11557000D02*
X10180000Y-11557000D01*
X10337800Y-9352600D02*
X10337800Y-9392600D01*
X10317800Y-9372600D02*
X10357800Y-9372600D01*
X10337800Y-9505000D02*
X10337800Y-9545000D01*
X10317800Y-9525000D02*
X10357800Y-9525000D01*
X10490200Y-9352600D02*
X10490200Y-9392600D01*
X10470200Y-9372600D02*
X10510200Y-9372600D01*
X10668000Y-7346000D02*
X10668000Y-7386000D01*
X10648000Y-7366000D02*
X10688000Y-7366000D01*
X10668000Y-7854000D02*
X10668000Y-7894000D01*
X10648000Y-7874000D02*
X10688000Y-7874000D01*
X10668000Y-8362000D02*
X10668000Y-8402000D01*
X10648000Y-8382000D02*
X10688000Y-8382000D01*
X10668000Y-8616000D02*
X10668000Y-8656000D01*
X10648000Y-8636000D02*
X10688000Y-8636000D01*
X10668000Y-11156000D02*
X10668000Y-11196000D01*
X10648000Y-11176000D02*
X10688000Y-11176000D01*
X10668000Y-11537000D02*
X10668000Y-11577000D01*
X10648000Y-11557000D02*
X10688000Y-11557000D01*
X10693400Y-10394000D02*
X10693400Y-10434000D01*
X10673400Y-10414000D02*
X10713400Y-10414000D01*
X10820400Y-10343200D02*
X10820400Y-10383200D01*
X10800400Y-10363200D02*
X10840400Y-10363200D01*
X11176000Y-7346000D02*
X11176000Y-7386000D01*
X11156000Y-7366000D02*
X11196000Y-7366000D01*
X11176000Y-7854000D02*
X11176000Y-7894000D01*
X11156000Y-7874000D02*
X11196000Y-7874000D01*
X11176000Y-8362000D02*
X11176000Y-8402000D01*
X11156000Y-8382000D02*
X11196000Y-8382000D01*
X11176000Y-8616000D02*
X11176000Y-8656000D01*
X11156000Y-8636000D02*
X11196000Y-8636000D01*
X11176000Y-9124000D02*
X11176000Y-9164000D01*
X11156000Y-9144000D02*
X11196000Y-9144000D01*
X11176000Y-9378000D02*
X11176000Y-9418000D01*
X11156000Y-9398000D02*
X11196000Y-9398000D01*
X11226800Y-11283000D02*
X11226800Y-11323000D01*
X11206800Y-11303000D02*
X11246800Y-11303000D01*
X11303000Y-10267000D02*
X11303000Y-10307000D01*
X11283000Y-10287000D02*
X11323000Y-10287000D01*
X11557000Y-7854000D02*
X11557000Y-7894000D01*
X11537000Y-7874000D02*
X11577000Y-7874000D01*
X11557000Y-8616000D02*
X11557000Y-8656000D01*
X11537000Y-8636000D02*
X11577000Y-8636000D01*
X11633200Y-9987600D02*
X11633200Y-10027600D01*
X11613200Y-10007600D02*
X11653200Y-10007600D01*
X11684000Y-9124000D02*
X11684000Y-9164000D01*
X11664000Y-9144000D02*
X11704000Y-9144000D01*
X11684000Y-10648000D02*
X11684000Y-10688000D01*
X11664000Y-10668000D02*
X11704000Y-10668000D01*
X11684000Y-11156000D02*
X11684000Y-11196000D01*
X11664000Y-11176000D02*
X11704000Y-11176000D01*
X11760200Y-10470200D02*
X11760200Y-10510200D01*
X11740200Y-10490200D02*
X11780200Y-10490200D01*
X11785600Y-9835200D02*
X11785600Y-9875200D01*
X11765600Y-9855200D02*
X11805600Y-9855200D01*
X11938000Y-7346000D02*
X11938000Y-7386000D01*
X11918000Y-7366000D02*
X11958000Y-7366000D01*
X11938000Y-7574600D02*
X11938000Y-7614600D01*
X11918000Y-7594600D02*
X11958000Y-7594600D01*
X11938000Y-7777800D02*
X11938000Y-7817800D01*
X11918000Y-7797800D02*
X11958000Y-7797800D01*
X11938000Y-9835200D02*
X11938000Y-9875200D01*
X11918000Y-9855200D02*
X11958000Y-9855200D01*
X11938000Y-10597200D02*
X11938000Y-10637200D01*
X11918000Y-10617200D02*
X11958000Y-10617200D01*
X12192000Y-7346000D02*
X12192000Y-7386000D01*
X12172000Y-7366000D02*
X12212000Y-7366000D01*
X12192000Y-7854000D02*
X12192000Y-7894000D01*
X12172000Y-7874000D02*
X12212000Y-7874000D01*
X12192000Y-8235000D02*
X12192000Y-8275000D01*
X12172000Y-8255000D02*
X12212000Y-8255000D01*
X12192000Y-8616000D02*
X12192000Y-8656000D01*
X12172000Y-8636000D02*
X12212000Y-8636000D01*
X12192000Y-9378000D02*
X12192000Y-9418000D01*
X12172000Y-9398000D02*
X12212000Y-9398000D01*
X12192000Y-11156000D02*
X12192000Y-11196000D01*
X12172000Y-11176000D02*
X12212000Y-11176000D01*
X12293600Y-10317800D02*
X12293600Y-10357800D01*
X12273600Y-10337800D02*
X12313600Y-10337800D01*
X12700000Y-7346000D02*
X12700000Y-7386000D01*
X12680000Y-7366000D02*
X12720000Y-7366000D01*
X12700000Y-7854000D02*
X12700000Y-7894000D01*
X12680000Y-7874000D02*
X12720000Y-7874000D01*
X12700000Y-11156000D02*
X12700000Y-11196000D01*
X12680000Y-11176000D02*
X12720000Y-11176000D01*
X12725400Y-10216200D02*
X12725400Y-10256200D01*
X12705400Y-10236200D02*
X12745400Y-10236200D01*
X12903200Y-8743000D02*
X12903200Y-8783000D01*
X12883200Y-8763000D02*
X12923200Y-8763000D01*
X12954000Y-7346000D02*
X12954000Y-7386000D01*
X12934000Y-7366000D02*
X12974000Y-7366000D01*
X12957600Y-7574600D02*
X12957600Y-7614600D01*
X12937600Y-7594600D02*
X12977600Y-7594600D01*
X12957600Y-7777800D02*
X12957600Y-7817800D01*
X12937600Y-7797800D02*
X12977600Y-7797800D01*
X13055600Y-8158800D02*
X13055600Y-8198800D01*
X13035600Y-8178800D02*
X13075600Y-8178800D01*
X13055600Y-8489000D02*
X13055600Y-8529000D01*
X13035600Y-8509000D02*
X13075600Y-8509000D01*
X13093700Y-9505000D02*
X13093700Y-9545000D01*
X13073700Y-9525000D02*
X13113700Y-9525000D01*
X13093700Y-9657400D02*
X13093700Y-9697400D01*
X13073700Y-9677400D02*
X13113700Y-9677400D01*
X13093700Y-9809800D02*
X13093700Y-9849800D01*
X13073700Y-9829800D02*
X13113700Y-9829800D01*
X13182600Y-9378000D02*
X13182600Y-9418000D01*
X13162600Y-9398000D02*
X13202600Y-9398000D01*
X13182600Y-9962200D02*
X13182600Y-10002200D01*
X13162600Y-9982200D02*
X13202600Y-9982200D01*
X13182600Y-10114600D02*
X13182600Y-10154600D01*
X13162600Y-10134600D02*
X13202600Y-10134600D01*
X13182600Y-10267000D02*
X13182600Y-10307000D01*
X13162600Y-10287000D02*
X13202600Y-10287000D01*
X13208000Y-7346000D02*
X13208000Y-7386000D01*
X13188000Y-7366000D02*
X13228000Y-7366000D01*
X13208000Y-7854000D02*
X13208000Y-7894000D01*
X13188000Y-7874000D02*
X13228000Y-7874000D01*
X13208000Y-11156000D02*
X13208000Y-11196000D01*
X13188000Y-11176000D02*
X13228000Y-11176000D01*
X13462000Y-8260400D02*
X13462000Y-8300400D01*
X13442000Y-8280400D02*
X13482000Y-8280400D01*
X13639800Y-10622600D02*
X13639800Y-10662600D01*
X13619800Y-10642600D02*
X13659800Y-10642600D01*
X13690600Y-7117400D02*
X13690600Y-7157400D01*
X13670600Y-7137400D02*
X13710600Y-7137400D01*
X13716000Y-7346000D02*
X13716000Y-7386000D01*
X13696000Y-7366000D02*
X13736000Y-7366000D01*
X13716000Y-7854000D02*
X13716000Y-7894000D01*
X13696000Y-7874000D02*
X13736000Y-7874000D01*
X13716000Y-11156000D02*
X13716000Y-11196000D01*
X13696000Y-11176000D02*
X13736000Y-11176000D01*
X13830300Y-10000300D02*
X13830300Y-10040300D01*
X13810300Y-10020300D02*
X13850300Y-10020300D01*
X13868400Y-9251000D02*
X13868400Y-9291000D01*
X13848400Y-9271000D02*
X13888400Y-9271000D01*
X13893800Y-7828600D02*
X13893800Y-7868600D01*
X13873800Y-7848600D02*
X13913800Y-7848600D01*
X13919200Y-10292400D02*
X13919200Y-10332400D01*
X13899200Y-10312400D02*
X13939200Y-10312400D01*
X14033500Y-7828600D02*
X14033500Y-7868600D01*
X14013500Y-7848600D02*
X14053500Y-7848600D01*
X14097000Y-8489000D02*
X14097000Y-8529000D01*
X14077000Y-8509000D02*
X14117000Y-8509000D01*
X14097000Y-10038400D02*
X14097000Y-10078400D01*
X14077000Y-10058400D02*
X14117000Y-10058400D01*
X14173200Y-7828600D02*
X14173200Y-7868600D01*
X14153200Y-7848600D02*
X14193200Y-7848600D01*
X14300200Y-7117400D02*
X14300200Y-7157400D01*
X14280200Y-7137400D02*
X14320200Y-7137400D01*
X14325600Y-8031800D02*
X14325600Y-8071800D01*
X14305600Y-8051800D02*
X14345600Y-8051800D01*
X14325600Y-10622600D02*
X14325600Y-10662600D01*
X14305600Y-10642600D02*
X14345600Y-10642600D01*
X14351000Y-11537000D02*
X14351000Y-11577000D01*
X14331000Y-11557000D02*
X14371000Y-11557000D01*
X14376400Y-10902000D02*
X14376400Y-10942000D01*
X14356400Y-10922000D02*
X14396400Y-10922000D01*
X14478000Y-9632000D02*
X14478000Y-9672000D01*
X14458000Y-9652000D02*
X14498000Y-9652000D01*
X14478000Y-10140000D02*
X14478000Y-10180000D01*
X14458000Y-10160000D02*
X14498000Y-10160000D01*
X14528800Y-7854000D02*
X14528800Y-7894000D01*
X14508800Y-7874000D02*
X14548800Y-7874000D01*
X14554200Y-8565200D02*
X14554200Y-8605200D01*
X14534200Y-8585200D02*
X14574200Y-8585200D01*
X14554200Y-10267000D02*
X14554200Y-10307000D01*
X14534200Y-10287000D02*
X14574200Y-10287000D01*
X14605000Y-9124000D02*
X14605000Y-9164000D01*
X14585000Y-9144000D02*
X14625000Y-9144000D01*
X14859000Y-10140000D02*
X14859000Y-10180000D01*
X14839000Y-10160000D02*
X14879000Y-10160000D01*
X14884400Y-10622600D02*
X14884400Y-10662600D01*
X14864400Y-10642600D02*
X14904400Y-10642600D01*
X14986000Y-8997000D02*
X14986000Y-9037000D01*
X14966000Y-9017000D02*
X15006000Y-9017000D01*
X14986000Y-11537000D02*
X14986000Y-11577000D01*
X14966000Y-11557000D02*
X15006000Y-11557000D01*
X15011400Y-7828600D02*
X15011400Y-7868600D01*
X14991400Y-7848600D02*
X15031400Y-7848600D01*
X15062200Y-8489000D02*
X15062200Y-8529000D01*
X15042200Y-8509000D02*
X15082200Y-8509000D01*
X15062200Y-10267000D02*
X15062200Y-10307000D01*
X15042200Y-10287000D02*
X15082200Y-10287000D01*
X15113000Y-10902000D02*
X15113000Y-10942000D01*
X15093000Y-10922000D02*
X15133000Y-10922000D01*
X15163800Y-7828600D02*
X15163800Y-7868600D01*
X15143800Y-7848600D02*
X15183800Y-7848600D01*
X15240000Y-7346000D02*
X15240000Y-7386000D01*
X15220000Y-7366000D02*
X15260000Y-7366000D01*
X15290800Y-8133400D02*
X15290800Y-8173400D01*
X15270800Y-8153400D02*
X15310800Y-8153400D01*
X15367000Y-9378000D02*
X15367000Y-9418000D01*
X15347000Y-9398000D02*
X15387000Y-9398000D01*
X15367000Y-10013000D02*
X15367000Y-10053000D01*
X15347000Y-10033000D02*
X15387000Y-10033000D01*
X15544800Y-10902000D02*
X15544800Y-10942000D01*
X15524800Y-10922000D02*
X15564800Y-10922000D01*
X15621000Y-8489000D02*
X15621000Y-8529000D01*
X15601000Y-8509000D02*
X15641000Y-8509000D01*
X15621000Y-8641400D02*
X15621000Y-8681400D01*
X15601000Y-8661400D02*
X15641000Y-8661400D01*
X15621000Y-9200200D02*
X15621000Y-9240200D01*
X15601000Y-9220200D02*
X15641000Y-9220200D01*
X15621000Y-9759000D02*
X15621000Y-9799000D01*
X15601000Y-9779000D02*
X15641000Y-9779000D01*
X15621000Y-11537000D02*
X15621000Y-11577000D01*
X15601000Y-11557000D02*
X15641000Y-11557000D01*
X15722600Y-8235000D02*
X15722600Y-8275000D01*
X15702600Y-8255000D02*
X15742600Y-8255000D01*
X15875000Y-10368600D02*
X15875000Y-10408600D01*
X15855000Y-10388600D02*
X15895000Y-10388600D01*
X15925800Y-7269800D02*
X15925800Y-7309800D01*
X15905800Y-7289800D02*
X15945800Y-7289800D01*
X15925800Y-7447600D02*
X15925800Y-7487600D01*
X15905800Y-7467600D02*
X15945800Y-7467600D01*
X15976600Y-9403400D02*
X15976600Y-9443400D01*
X15956600Y-9423400D02*
X15996600Y-9423400D01*
X15976600Y-9936800D02*
X15976600Y-9976800D01*
X15956600Y-9956800D02*
X15996600Y-9956800D01*
X16002000Y-8235000D02*
X16002000Y-8275000D01*
X15982000Y-8255000D02*
X16022000Y-8255000D01*
X16002000Y-10902000D02*
X16002000Y-10942000D01*
X15982000Y-10922000D02*
X16022000Y-10922000D01*
X16129000Y-8387400D02*
X16129000Y-8427400D01*
X16109000Y-8407400D02*
X16149000Y-8407400D01*
X16129000Y-9403400D02*
X16129000Y-9443400D01*
X16109000Y-9423400D02*
X16149000Y-9423400D01*
X16129000Y-9657400D02*
X16129000Y-9697400D01*
X16109000Y-9677400D02*
X16149000Y-9677400D01*
X16129000Y-9809800D02*
X16129000Y-9849800D01*
X16109000Y-9829800D02*
X16149000Y-9829800D01*
X16256000Y-7346000D02*
X16256000Y-7386000D01*
X16236000Y-7366000D02*
X16276000Y-7366000D01*
X16256000Y-10724200D02*
X16256000Y-10764200D01*
X16236000Y-10744200D02*
X16276000Y-10744200D01*
X16256000Y-11537000D02*
X16256000Y-11577000D01*
X16236000Y-11557000D02*
X16276000Y-11557000D01*
X16383000Y-8489000D02*
X16383000Y-8529000D01*
X16363000Y-8509000D02*
X16403000Y-8509000D01*
X16510000Y-8870000D02*
X16510000Y-8910000D01*
X16490000Y-8890000D02*
X16530000Y-8890000D01*
X16637000Y-10724200D02*
X16637000Y-10764200D01*
X16617000Y-10744200D02*
X16657000Y-10744200D01*
X16891000Y-9251000D02*
X16891000Y-9291000D01*
X16871000Y-9271000D02*
X16911000Y-9271000D01*
X16891000Y-10470200D02*
X16891000Y-10510200D01*
X16871000Y-10490200D02*
X16911000Y-10490200D01*
X16891000Y-11537000D02*
X16891000Y-11577000D01*
X16871000Y-11557000D02*
X16911000Y-11557000D01*
X17018000Y-7473000D02*
X17018000Y-7513000D01*
X16998000Y-7493000D02*
X17038000Y-7493000D01*
X17018000Y-7854000D02*
X17018000Y-7894000D01*
X16998000Y-7874000D02*
X17038000Y-7874000D01*
X17018000Y-8108000D02*
X17018000Y-8148000D01*
X16998000Y-8128000D02*
X17038000Y-8128000D01*
X17018000Y-10902000D02*
X17018000Y-10942000D01*
X16998000Y-10922000D02*
X17038000Y-10922000D01*
X17221200Y-9682800D02*
X17221200Y-9722800D01*
X17201200Y-9702800D02*
X17241200Y-9702800D01*
X17272000Y-7473000D02*
X17272000Y-7513000D01*
X17252000Y-7493000D02*
X17292000Y-7493000D01*
X17272000Y-8108000D02*
X17272000Y-8148000D01*
X17252000Y-8128000D02*
X17292000Y-8128000D01*
X17399000Y-9987600D02*
X17399000Y-10027600D01*
X17379000Y-10007600D02*
X17419000Y-10007600D01*
X17399000Y-10089200D02*
X17399000Y-10129200D01*
X17379000Y-10109200D02*
X17419000Y-10109200D01*
X17526000Y-8108000D02*
X17526000Y-8148000D01*
X17506000Y-8128000D02*
X17546000Y-8128000D01*
X17526000Y-11156000D02*
X17526000Y-11196000D01*
X17506000Y-11176000D02*
X17546000Y-11176000D01*
X17526000Y-11537000D02*
X17526000Y-11577000D01*
X17506000Y-11557000D02*
X17546000Y-11557000D01*
X17576800Y-10724200D02*
X17576800Y-10764200D01*
X17556800Y-10744200D02*
X17596800Y-10744200D01*
X17589500Y-10203500D02*
X17589500Y-10243500D01*
X17569500Y-10223500D02*
X17609500Y-10223500D01*
X17830800Y-8260400D02*
X17830800Y-8300400D01*
X17810800Y-8280400D02*
X17850800Y-8280400D01*
X17830800Y-9555800D02*
X17830800Y-9595800D01*
X17810800Y-9575800D02*
X17850800Y-9575800D01*
X17881600Y-10724200D02*
X17881600Y-10764200D01*
X17861600Y-10744200D02*
X17901600Y-10744200D01*
X18034000Y-10089200D02*
X18034000Y-10129200D01*
X18014000Y-10109200D02*
X18054000Y-10109200D01*
X18034000Y-11156000D02*
X18034000Y-11196000D01*
X18014000Y-11176000D02*
X18054000Y-11176000D01*
X18034000Y-11537000D02*
X18034000Y-11577000D01*
X18014000Y-11557000D02*
X18054000Y-11557000D01*
X18084800Y-8260400D02*
X18084800Y-8300400D01*
X18064800Y-8280400D02*
X18104800Y-8280400D01*
X18186400Y-8870000D02*
X18186400Y-8910000D01*
X18166400Y-8890000D02*
X18206400Y-8890000D01*
X18338800Y-8260400D02*
X18338800Y-8300400D01*
X18318800Y-8280400D02*
X18358800Y-8280400D01*
X18389600Y-9733600D02*
X18389600Y-9773600D01*
X18369600Y-9753600D02*
X18409600Y-9753600D01*
X18389600Y-9886000D02*
X18389600Y-9926000D01*
X18369600Y-9906000D02*
X18409600Y-9906000D01*
X18542000Y-10394000D02*
X18542000Y-10434000D01*
X18522000Y-10414000D02*
X18562000Y-10414000D01*
X18542000Y-10648000D02*
X18542000Y-10688000D01*
X18522000Y-10668000D02*
X18562000Y-10668000D01*
X18542000Y-11156000D02*
X18542000Y-11196000D01*
X18522000Y-11176000D02*
X18562000Y-11176000D01*
X18592800Y-8616000D02*
X18592800Y-8656000D01*
X18572800Y-8636000D02*
X18612800Y-8636000D01*
X18719800Y-8438200D02*
X18719800Y-8478200D01*
X18699800Y-8458200D02*
X18739800Y-8458200D01*
X18745200Y-7955600D02*
X18745200Y-7995600D01*
X18725200Y-7975600D02*
X18765200Y-7975600D01*
X18745200Y-8260400D02*
X18745200Y-8300400D01*
X18725200Y-8280400D02*
X18765200Y-8280400D01*
X18745200Y-8997000D02*
X18745200Y-9037000D01*
X18725200Y-9017000D02*
X18765200Y-9017000D01*
X18796000Y-9378000D02*
X18796000Y-9418000D01*
X18776000Y-9398000D02*
X18816000Y-9398000D01*
X18846800Y-9886000D02*
X18846800Y-9926000D01*
X18826800Y-9906000D02*
X18866800Y-9906000D01*
X18846800Y-9987600D02*
X18846800Y-10027600D01*
X18826800Y-10007600D02*
X18866800Y-10007600D01*
X18846800Y-10089200D02*
X18846800Y-10129200D01*
X18826800Y-10109200D02*
X18866800Y-10109200D01*
X18846800Y-10190800D02*
X18846800Y-10230800D01*
X18826800Y-10210800D02*
X18866800Y-10210800D01*
X18846800Y-10292400D02*
X18846800Y-10332400D01*
X18826800Y-10312400D02*
X18866800Y-10312400D01*
X18846800Y-10394000D02*
X18846800Y-10434000D01*
X18826800Y-10414000D02*
X18866800Y-10414000D01*
X18859500Y-8997000D02*
X18859500Y-9037000D01*
X18839500Y-9017000D02*
X18879500Y-9017000D01*
X18859500Y-9124000D02*
X18859500Y-9164000D01*
X18839500Y-9144000D02*
X18879500Y-9144000D01*
X18859500Y-9251000D02*
X18859500Y-9291000D01*
X18839500Y-9271000D02*
X18879500Y-9271000D01*
X18986500Y-8997000D02*
X18986500Y-9037000D01*
X18966500Y-9017000D02*
X19006500Y-9017000D01*
X18986500Y-9124000D02*
X18986500Y-9164000D01*
X18966500Y-9144000D02*
X19006500Y-9144000D01*
X18986500Y-9251000D02*
X18986500Y-9291000D01*
X18966500Y-9271000D02*
X19006500Y-9271000D01*
X19024600Y-9403400D02*
X19024600Y-9443400D01*
X19004600Y-9423400D02*
X19044600Y-9423400D01*
X19050000Y-9987600D02*
X19050000Y-10027600D01*
X19030000Y-10007600D02*
X19070000Y-10007600D01*
X19050000Y-10394000D02*
X19050000Y-10434000D01*
X19030000Y-10414000D02*
X19070000Y-10414000D01*
X19050000Y-10648000D02*
X19050000Y-10688000D01*
X19030000Y-10668000D02*
X19070000Y-10668000D01*
X19050000Y-11156000D02*
X19050000Y-11196000D01*
X19030000Y-11176000D02*
X19070000Y-11176000D01*
X19050000Y-11537000D02*
X19050000Y-11577000D01*
X19030000Y-11557000D02*
X19070000Y-11557000D01*
X19100800Y-8285800D02*
X19100800Y-8325800D01*
X19080800Y-8305800D02*
X19120800Y-8305800D01*
X19113500Y-8997000D02*
X19113500Y-9037000D01*
X19093500Y-9017000D02*
X19133500Y-9017000D01*
X19113500Y-9124000D02*
X19113500Y-9164000D01*
X19093500Y-9144000D02*
X19133500Y-9144000D01*
X19113500Y-9251000D02*
X19113500Y-9291000D01*
X19093500Y-9271000D02*
X19133500Y-9271000D01*
X19227800Y-9987600D02*
X19227800Y-10027600D01*
X19207800Y-10007600D02*
X19247800Y-10007600D01*
X19240500Y-8997000D02*
X19240500Y-9037000D01*
X19220500Y-9017000D02*
X19260500Y-9017000D01*
X19240500Y-9124000D02*
X19240500Y-9164000D01*
X19220500Y-9144000D02*
X19260500Y-9144000D01*
X19240500Y-9251000D02*
X19240500Y-9291000D01*
X19220500Y-9271000D02*
X19260500Y-9271000D01*
X19367500Y-8997000D02*
X19367500Y-9037000D01*
X19347500Y-9017000D02*
X19387500Y-9017000D01*
X19367500Y-9124000D02*
X19367500Y-9164000D01*
X19347500Y-9144000D02*
X19387500Y-9144000D01*
X19367500Y-9251000D02*
X19367500Y-9291000D01*
X19347500Y-9271000D02*
X19387500Y-9271000D01*
X19380200Y-8285800D02*
X19380200Y-8325800D01*
X19360200Y-8305800D02*
X19400200Y-8305800D01*
X19431000Y-8565200D02*
X19431000Y-8605200D01*
X19411000Y-8585200D02*
X19451000Y-8585200D01*
X19494500Y-8997000D02*
X19494500Y-9037000D01*
X19474500Y-9017000D02*
X19514500Y-9017000D01*
X19494500Y-9124000D02*
X19494500Y-9164000D01*
X19474500Y-9144000D02*
X19514500Y-9144000D01*
X19494500Y-9251000D02*
X19494500Y-9291000D01*
X19474500Y-9271000D02*
X19514500Y-9271000D01*
X19507200Y-9987600D02*
X19507200Y-10027600D01*
X19487200Y-10007600D02*
X19527200Y-10007600D01*
X19507200Y-10140000D02*
X19507200Y-10180000D01*
X19487200Y-10160000D02*
X19527200Y-10160000D01*
X19558000Y-7854000D02*
X19558000Y-7894000D01*
X19538000Y-7874000D02*
X19578000Y-7874000D01*
X19558000Y-8108000D02*
X19558000Y-8148000D01*
X19538000Y-8128000D02*
X19578000Y-8128000D01*
X19558000Y-10394000D02*
X19558000Y-10434000D01*
X19538000Y-10414000D02*
X19578000Y-10414000D01*
X19558000Y-10648000D02*
X19558000Y-10688000D01*
X19538000Y-10668000D02*
X19578000Y-10668000D01*
X19558000Y-11156000D02*
X19558000Y-11196000D01*
X19538000Y-11176000D02*
X19578000Y-11176000D01*
X19558000Y-11537000D02*
X19558000Y-11577000D01*
X19538000Y-11557000D02*
X19578000Y-11557000D01*
X19735800Y-8743000D02*
X19735800Y-8783000D01*
X19715800Y-8763000D02*
X19755800Y-8763000D01*
X19786600Y-9124000D02*
X19786600Y-9164000D01*
X19766600Y-9144000D02*
X19806600Y-9144000D01*
X19786600Y-10140000D02*
X19786600Y-10180000D01*
X19766600Y-10160000D02*
X19806600Y-10160000D01*
X20040600Y-9403400D02*
X20040600Y-9443400D01*
X20020600Y-9423400D02*
X20060600Y-9423400D01*
X20040600Y-9555800D02*
X20040600Y-9595800D01*
X20020600Y-9575800D02*
X20060600Y-9575800D01*
X20040600Y-9987600D02*
X20040600Y-10027600D01*
X20020600Y-10007600D02*
X20060600Y-10007600D01*
X20040600Y-10140000D02*
X20040600Y-10180000D01*
X20020600Y-10160000D02*
X20060600Y-10160000D01*
X20066000Y-7854000D02*
X20066000Y-7894000D01*
X20046000Y-7874000D02*
X20086000Y-7874000D01*
X20066000Y-10394000D02*
X20066000Y-10434000D01*
X20046000Y-10414000D02*
X20086000Y-10414000D01*
X20066000Y-10648000D02*
X20066000Y-10688000D01*
X20046000Y-10668000D02*
X20086000Y-10668000D01*
X20066000Y-11156000D02*
X20066000Y-11196000D01*
X20046000Y-11176000D02*
X20086000Y-11176000D01*
X20066000Y-11537000D02*
X20066000Y-11577000D01*
X20046000Y-11557000D02*
X20086000Y-11557000D01*
X20116800Y-8590600D02*
X20116800Y-8630600D01*
X20096800Y-8610600D02*
X20136800Y-8610600D01*
X20193000Y-9835200D02*
X20193000Y-9875200D01*
X20173000Y-9855200D02*
X20213000Y-9855200D01*
X20193000Y-9987600D02*
X20193000Y-10027600D01*
X20173000Y-10007600D02*
X20213000Y-10007600D01*
X20193000Y-10140000D02*
X20193000Y-10180000D01*
X20173000Y-10160000D02*
X20213000Y-10160000D01*
X20320000Y-8870000D02*
X20320000Y-8910000D01*
X20300000Y-8890000D02*
X20340000Y-8890000D01*
X20447000Y-8489000D02*
X20447000Y-8529000D01*
X20427000Y-8509000D02*
X20467000Y-8509000D01*
X20497800Y-9403400D02*
X20497800Y-9443400D01*
X20477800Y-9423400D02*
X20517800Y-9423400D01*
X20497800Y-9555800D02*
X20497800Y-9595800D01*
X20477800Y-9575800D02*
X20517800Y-9575800D01*
X20574000Y-8870000D02*
X20574000Y-8910000D01*
X20554000Y-8890000D02*
X20594000Y-8890000D01*
X20574000Y-9124000D02*
X20574000Y-9164000D01*
X20554000Y-9144000D02*
X20594000Y-9144000D01*
X20574000Y-10140000D02*
X20574000Y-10180000D01*
X20554000Y-10160000D02*
X20594000Y-10160000D01*
X20574000Y-10394000D02*
X20574000Y-10434000D01*
X20554000Y-10414000D02*
X20594000Y-10414000D01*
X20574000Y-11156000D02*
X20574000Y-11196000D01*
X20554000Y-11176000D02*
X20594000Y-11176000D01*
X20574000Y-11537000D02*
X20574000Y-11577000D01*
X20554000Y-11557000D02*
X20594000Y-11557000D01*
X20828000Y-7142800D02*
X20828000Y-7182800D01*
X20808000Y-7162800D02*
X20848000Y-7162800D01*
X20828000Y-7523800D02*
X20828000Y-7563800D01*
X20808000Y-7543800D02*
X20848000Y-7543800D01*
X20828000Y-7854000D02*
X20828000Y-7894000D01*
X20808000Y-7874000D02*
X20848000Y-7874000D01*
X20828000Y-8870000D02*
X20828000Y-8910000D01*
X20808000Y-8890000D02*
X20848000Y-8890000D01*
X21031200Y-9251000D02*
X21031200Y-9291000D01*
X21011200Y-9271000D02*
X21051200Y-9271000D01*
X21031200Y-9708200D02*
X21031200Y-9748200D01*
X21011200Y-9728200D02*
X21051200Y-9728200D01*
X21056600Y-7320600D02*
X21056600Y-7360600D01*
X21036600Y-7340600D02*
X21076600Y-7340600D01*
X21056600Y-7574600D02*
X21056600Y-7614600D01*
X21036600Y-7594600D02*
X21076600Y-7594600D01*
X21056600Y-7790500D02*
X21056600Y-7830500D01*
X21036600Y-7810500D02*
X21076600Y-7810500D01*
X21056600Y-8133400D02*
X21056600Y-8173400D01*
X21036600Y-8153400D02*
X21076600Y-8153400D01*
X21082000Y-8362000D02*
X21082000Y-8402000D01*
X21062000Y-8382000D02*
X21102000Y-8382000D01*
X21082000Y-8616000D02*
X21082000Y-8656000D01*
X21062000Y-8636000D02*
X21102000Y-8636000D01*
X21082000Y-8870000D02*
X21082000Y-8910000D01*
X21062000Y-8890000D02*
X21102000Y-8890000D01*
X21082000Y-10394000D02*
X21082000Y-10434000D01*
X21062000Y-10414000D02*
X21102000Y-10414000D01*
X21082000Y-10648000D02*
X21082000Y-10688000D01*
X21062000Y-10668000D02*
X21102000Y-10668000D01*
X21082000Y-11156000D02*
X21082000Y-11196000D01*
X21062000Y-11176000D02*
X21102000Y-11176000D01*
X21082000Y-11537000D02*
X21082000Y-11577000D01*
X21062000Y-11557000D02*
X21102000Y-11557000D01*
X21158200Y-9251000D02*
X21158200Y-9291000D01*
X21138200Y-9271000D02*
X21178200Y-9271000D01*
X21158200Y-9708200D02*
X21158200Y-9748200D01*
X21138200Y-9728200D02*
X21178200Y-9728200D01*
X21259800Y-7142800D02*
X21259800Y-7182800D01*
X21239800Y-7162800D02*
X21279800Y-7162800D01*
X21259800Y-7955600D02*
X21259800Y-7995600D01*
X21239800Y-7975600D02*
X21279800Y-7975600D01*
X21590000Y-7346000D02*
X21590000Y-7386000D01*
X21570000Y-7366000D02*
X21610000Y-7366000D01*
X21590000Y-7600000D02*
X21590000Y-7640000D01*
X21570000Y-7620000D02*
X21610000Y-7620000D01*
X21590000Y-7854000D02*
X21590000Y-7894000D01*
X21570000Y-7874000D02*
X21610000Y-7874000D01*
X21590000Y-8108000D02*
X21590000Y-8148000D01*
X21570000Y-8128000D02*
X21610000Y-8128000D01*
X21590000Y-8362000D02*
X21590000Y-8402000D01*
X21570000Y-8382000D02*
X21610000Y-8382000D01*
X21590000Y-8616000D02*
X21590000Y-8656000D01*
X21570000Y-8636000D02*
X21610000Y-8636000D01*
X21590000Y-9886000D02*
X21590000Y-9926000D01*
X21570000Y-9906000D02*
X21610000Y-9906000D01*
X21590000Y-10140000D02*
X21590000Y-10180000D01*
X21570000Y-10160000D02*
X21610000Y-10160000D01*
X21590000Y-10394000D02*
X21590000Y-10434000D01*
X21570000Y-10414000D02*
X21610000Y-10414000D01*
X21590000Y-10648000D02*
X21590000Y-10688000D01*
X21570000Y-10668000D02*
X21610000Y-10668000D01*
X21590000Y-11156000D02*
X21590000Y-11196000D01*
X21570000Y-11176000D02*
X21610000Y-11176000D01*
X21831300Y-10000300D02*
X21831300Y-10040300D01*
X21811300Y-10020300D02*
X21851300Y-10020300D01*
X21945600Y-9898700D02*
X21945600Y-9938700D01*
X21925600Y-9918700D02*
X21965600Y-9918700D01*
X21945600Y-10000300D02*
X21945600Y-10040300D01*
X21925600Y-10020300D02*
X21965600Y-10020300D01*
X22059900Y-9695500D02*
X22059900Y-9735500D01*
X22039900Y-9715500D02*
X22079900Y-9715500D01*
X22059900Y-9797100D02*
X22059900Y-9837100D01*
X22039900Y-9817100D02*
X22079900Y-9817100D01*
X22059900Y-9898700D02*
X22059900Y-9938700D01*
X22039900Y-9918700D02*
X22079900Y-9918700D01*
X22059900Y-10000300D02*
X22059900Y-10040300D01*
X22039900Y-10020300D02*
X22079900Y-10020300D01*
X22098000Y-7854000D02*
X22098000Y-7894000D01*
X22078000Y-7874000D02*
X22118000Y-7874000D01*
X22098000Y-8108000D02*
X22098000Y-8148000D01*
X22078000Y-8128000D02*
X22118000Y-8128000D01*
X22098000Y-8362000D02*
X22098000Y-8402000D01*
X22078000Y-8382000D02*
X22118000Y-8382000D01*
X22098000Y-10394000D02*
X22098000Y-10434000D01*
X22078000Y-10414000D02*
X22118000Y-10414000D01*
X22098000Y-10648000D02*
X22098000Y-10688000D01*
X22078000Y-10668000D02*
X22118000Y-10668000D01*
X22098000Y-11156000D02*
X22098000Y-11196000D01*
X22078000Y-11176000D02*
X22118000Y-11176000D01*
X22098000Y-11537000D02*
X22098000Y-11577000D01*
X22078000Y-11557000D02*
X22118000Y-11557000D01*
X22174200Y-9797100D02*
X22174200Y-9837100D01*
X22154200Y-9817100D02*
X22194200Y-9817100D01*
X22174200Y-9898700D02*
X22174200Y-9938700D01*
X22154200Y-9918700D02*
X22194200Y-9918700D01*
X22174200Y-10000300D02*
X22174200Y-10040300D01*
X22154200Y-10020300D02*
X22194200Y-10020300D01*
X22402800Y-8514400D02*
X22402800Y-8554400D01*
X22382800Y-8534400D02*
X22422800Y-8534400D01*
X22402800Y-8641400D02*
X22402800Y-8681400D01*
X22382800Y-8661400D02*
X22422800Y-8661400D01*
X22555200Y-8387400D02*
X22555200Y-8427400D01*
X22535200Y-8407400D02*
X22575200Y-8407400D01*
X22555200Y-8514400D02*
X22555200Y-8554400D01*
X22535200Y-8534400D02*
X22575200Y-8534400D01*
X22555200Y-8641400D02*
X22555200Y-8681400D01*
X22535200Y-8661400D02*
X22575200Y-8661400D01*
X22555200Y-8768400D02*
X22555200Y-8808400D01*
X22535200Y-8788400D02*
X22575200Y-8788400D01*
X22606000Y-7854000D02*
X22606000Y-7894000D01*
X22586000Y-7874000D02*
X22626000Y-7874000D01*
X22606000Y-8108000D02*
X22606000Y-8148000D01*
X22586000Y-8128000D02*
X22626000Y-8128000D01*
X22606000Y-10394000D02*
X22606000Y-10434000D01*
X22586000Y-10414000D02*
X22626000Y-10414000D01*
X22606000Y-10648000D02*
X22606000Y-10688000D01*
X22586000Y-10668000D02*
X22626000Y-10668000D01*
X22682200Y-8387400D02*
X22682200Y-8427400D01*
X22662200Y-8407400D02*
X22702200Y-8407400D01*
X22682200Y-8514400D02*
X22682200Y-8554400D01*
X22662200Y-8534400D02*
X22702200Y-8534400D01*
X22682200Y-8641400D02*
X22682200Y-8681400D01*
X22662200Y-8661400D02*
X22702200Y-8661400D01*
X22682200Y-8768400D02*
X22682200Y-8808400D01*
X22662200Y-8788400D02*
X22702200Y-8788400D01*
X22860000Y-10140000D02*
X22860000Y-10180000D01*
X22840000Y-10160000D02*
X22880000Y-10160000D01*
X22860000Y-10648000D02*
X22860000Y-10688000D01*
X22840000Y-10668000D02*
X22880000Y-10668000D01*
X22891300Y-9194300D02*
X22891300Y-9234300D01*
X22871300Y-9214300D02*
X22911300Y-9214300D01*
D15*
X22494513Y-9088813D02*
X22494513Y-9046387D01*
X22452087Y-9046387D01*
X22452087Y-9088813D01*
X22494513Y-9088813D01*
D11*
X22418300Y-9097600D02*
X22528300Y-9097600D01*
X22528300Y-9097600D02*
G75*
G03*
X22528300Y-9037600I0J30000D01*
G01*
X22528300Y-9037600D02*
X22418300Y-9037600D01*
X22418300Y-9037600D02*
G75*
G03*
X22418300Y-9097600I0J-30000D01*
G01*
D15*
X22494513Y-9952813D02*
X22494513Y-9910387D01*
X22452087Y-9910387D01*
X22452087Y-9952813D01*
X22494513Y-9952813D01*
D11*
X22418300Y-9961600D02*
X22528300Y-9961600D01*
X22528300Y-9961600D02*
G75*
G03*
X22528300Y-9901600I0J30000D01*
G01*
X22528300Y-9901600D02*
X22418300Y-9901600D01*
X22418300Y-9901600D02*
G75*
G03*
X22418300Y-9961600I0J-30000D01*
G01*
D15*
X22912513Y-9088813D02*
X22912513Y-9046387D01*
X22870087Y-9046387D01*
X22870087Y-9088813D01*
X22912513Y-9088813D01*
D11*
X22851300Y-9097600D02*
X22931300Y-9097600D01*
X22931300Y-9097600D02*
G75*
G03*
X22931300Y-9037600I0J30000D01*
G01*
X22931300Y-9037600D02*
X22851300Y-9037600D01*
X22851300Y-9037600D02*
G75*
G03*
X22851300Y-9097600I0J-30000D01*
G01*
D15*
X22912513Y-9952813D02*
X22912513Y-9910387D01*
X22870087Y-9910387D01*
X22870087Y-9952813D01*
X22912513Y-9952813D01*
D11*
X22851300Y-9961600D02*
X22931300Y-9961600D01*
X22931300Y-9961600D02*
G75*
G03*
X22931300Y-9901600I0J30000D01*
G01*
X22931300Y-9901600D02*
X22851300Y-9901600D01*
X22851300Y-9901600D02*
G75*
G03*
X22851300Y-9961600I0J-30000D01*
G01*
D10*
X14629400Y-11378400D02*
X14679400Y-11328400D01*
X14629400Y-11278400D01*
X14579400Y-11328400D01*
X14629400Y-11378400D01*
X14883400Y-11378400D02*
X14933400Y-11328400D01*
X14883400Y-11278400D01*
X14833400Y-11328400D01*
X14883400Y-11378400D01*
X15137400Y-11378400D02*
X15187400Y-11328400D01*
X15137400Y-11278400D01*
X15087400Y-11328400D01*
X15137400Y-11378400D01*
X15391400Y-11378400D02*
X15441400Y-11328400D01*
X15391400Y-11278400D01*
X15341400Y-11328400D01*
X15391400Y-11378400D01*
X16078200Y-11378400D02*
X16128200Y-11328400D01*
X16078200Y-11278400D01*
X16028200Y-11328400D01*
X16078200Y-11378400D01*
X16332200Y-11378400D02*
X16382200Y-11328400D01*
X16332200Y-11278400D01*
X16282200Y-11328400D01*
X16332200Y-11378400D01*
X16586200Y-11378400D02*
X16636200Y-11328400D01*
X16586200Y-11278400D01*
X16536200Y-11328400D01*
X16586200Y-11378400D01*
X16637000Y-9777200D02*
X16687000Y-9727200D01*
X16637000Y-9677200D01*
X16587000Y-9727200D01*
X16637000Y-9777200D01*
X16637000Y-10031200D02*
X16687000Y-9981200D01*
X16637000Y-9931200D01*
X16587000Y-9981200D01*
X16637000Y-10031200D01*
X16637000Y-10285200D02*
X16687000Y-10235200D01*
X16637000Y-10185200D01*
X16587000Y-10235200D01*
X16637000Y-10285200D01*
X16637000Y-10539200D02*
X16687000Y-10489200D01*
X16637000Y-10439200D01*
X16587000Y-10489200D01*
X16637000Y-10539200D01*
X16840200Y-11378400D02*
X16890200Y-11328400D01*
X16840200Y-11278400D01*
X16790200Y-11328400D01*
X16840200Y-11378400D01*
D16*
X14875200Y-7331400D02*
X14995200Y-7451400D01*
X14995200Y-7331400D02*
X14875200Y-7451400D01*
X14995200Y-7391400D02*
G75*
G03*
X14995200Y-7391400I-60000J0D01*
G01*
X15637200Y-7331400D02*
X15757200Y-7451400D01*
X15757200Y-7331400D02*
X15637200Y-7451400D01*
X15757200Y-7391400D02*
G75*
G03*
X15757200Y-7391400I-60000J0D01*
G01*
X17402500Y-7369500D02*
X17522500Y-7489500D01*
X17522500Y-7369500D02*
X17402500Y-7489500D01*
X17522500Y-7429500D02*
G75*
G03*
X17522500Y-7429500I-60000J0D01*
G01*
X17402500Y-7623500D02*
X17522500Y-7743500D01*
X17522500Y-7623500D02*
X17402500Y-7743500D01*
X17522500Y-7683500D02*
G75*
G03*
X17522500Y-7683500I-60000J0D01*
G01*
X17656500Y-7369500D02*
X17776500Y-7489500D01*
X17776500Y-7369500D02*
X17656500Y-7489500D01*
X17776500Y-7429500D02*
G75*
G03*
X17776500Y-7429500I-60000J0D01*
G01*
X17656500Y-7623500D02*
X17776500Y-7743500D01*
X17776500Y-7623500D02*
X17656500Y-7743500D01*
X17776500Y-7683500D02*
G75*
G03*
X17776500Y-7683500I-60000J0D01*
G01*
X17910500Y-7369500D02*
X18030500Y-7489500D01*
X18030500Y-7369500D02*
X17910500Y-7489500D01*
X18030500Y-7429500D02*
G75*
G03*
X18030500Y-7429500I-60000J0D01*
G01*
X17910500Y-7623500D02*
X18030500Y-7743500D01*
X18030500Y-7623500D02*
X17910500Y-7743500D01*
X18030500Y-7683500D02*
G75*
G03*
X18030500Y-7683500I-60000J0D01*
G01*
X18164500Y-7369500D02*
X18284500Y-7489500D01*
X18284500Y-7369500D02*
X18164500Y-7489500D01*
X18284500Y-7429500D02*
G75*
G03*
X18284500Y-7429500I-60000J0D01*
G01*
X18164500Y-7623500D02*
X18284500Y-7743500D01*
X18284500Y-7623500D02*
X18164500Y-7743500D01*
X18284500Y-7683500D02*
G75*
G03*
X18284500Y-7683500I-60000J0D01*
G01*
X18418500Y-7369500D02*
X18538500Y-7489500D01*
X18538500Y-7369500D02*
X18418500Y-7489500D01*
X18538500Y-7429500D02*
G75*
G03*
X18538500Y-7429500I-60000J0D01*
G01*
X18418500Y-7623500D02*
X18538500Y-7743500D01*
X18538500Y-7623500D02*
X18418500Y-7743500D01*
X18538500Y-7683500D02*
G75*
G03*
X18538500Y-7683500I-60000J0D01*
G01*
X18672500Y-7369500D02*
X18792500Y-7489500D01*
X18792500Y-7369500D02*
X18672500Y-7489500D01*
X18792500Y-7429500D02*
G75*
G03*
X18792500Y-7429500I-60000J0D01*
G01*
X18672500Y-7623500D02*
X18792500Y-7743500D01*
X18792500Y-7623500D02*
X18672500Y-7743500D01*
X18792500Y-7683500D02*
G75*
G03*
X18792500Y-7683500I-60000J0D01*
G01*
X18926500Y-7369500D02*
X19046500Y-7489500D01*
X19046500Y-7369500D02*
X18926500Y-7489500D01*
X19046500Y-7429500D02*
G75*
G03*
X19046500Y-7429500I-60000J0D01*
G01*
X18926500Y-7623500D02*
X19046500Y-7743500D01*
X19046500Y-7623500D02*
X18926500Y-7743500D01*
X19046500Y-7683500D02*
G75*
G03*
X19046500Y-7683500I-60000J0D01*
G01*
X19180500Y-7369500D02*
X19300500Y-7489500D01*
X19300500Y-7369500D02*
X19180500Y-7489500D01*
X19300500Y-7429500D02*
G75*
G03*
X19300500Y-7429500I-60000J0D01*
G01*
X19180500Y-7623500D02*
X19300500Y-7743500D01*
X19300500Y-7623500D02*
X19180500Y-7743500D01*
X19300500Y-7683500D02*
G75*
G03*
X19300500Y-7683500I-60000J0D01*
G01*
X19434500Y-7369500D02*
X19554500Y-7489500D01*
X19554500Y-7369500D02*
X19434500Y-7489500D01*
X19554500Y-7429500D02*
G75*
G03*
X19554500Y-7429500I-60000J0D01*
G01*
X19434500Y-7623500D02*
X19554500Y-7743500D01*
X19554500Y-7623500D02*
X19434500Y-7743500D01*
X19554500Y-7683500D02*
G75*
G03*
X19554500Y-7683500I-60000J0D01*
G01*
X19688500Y-7369500D02*
X19808500Y-7489500D01*
X19808500Y-7369500D02*
X19688500Y-7489500D01*
X19808500Y-7429500D02*
G75*
G03*
X19808500Y-7429500I-60000J0D01*
G01*
X19688500Y-7623500D02*
X19808500Y-7743500D01*
X19808500Y-7623500D02*
X19688500Y-7743500D01*
X19808500Y-7683500D02*
G75*
G03*
X19808500Y-7683500I-60000J0D01*
G01*
D17*
X7968000Y-7350000D02*
X8288000Y-7670000D01*
X8288000Y-7350000D02*
X7968000Y-7670000D01*
X8128000Y-7350000D02*
X8128000Y-7670000D01*
X7968000Y-7510000D02*
X8288000Y-7510000D01*
X7968000Y-11096500D02*
X8288000Y-11416500D01*
X8288000Y-11096500D02*
X7968000Y-11416500D01*
X8128000Y-11096500D02*
X8128000Y-11416500D01*
X7968000Y-11256500D02*
X8288000Y-11256500D01*
X22446000Y-7350000D02*
X22766000Y-7670000D01*
X22766000Y-7350000D02*
X22446000Y-7670000D01*
X22606000Y-7350000D02*
X22606000Y-7670000D01*
X22446000Y-7510000D02*
X22766000Y-7510000D01*
X22446000Y-11096500D02*
X22766000Y-11416500D01*
X22766000Y-11096500D02*
X22446000Y-11416500D01*
X22606000Y-11096500D02*
X22606000Y-11416500D01*
X22446000Y-11256500D02*
X22766000Y-11256500D01*
D11*
X7875777Y-12080984D02*
X7875777Y-11880984D01*
X7875777Y-11880984D02*
X7923396Y-11880984D01*
X7923396Y-11880984D02*
X7951967Y-11890508D01*
X7951967Y-11890508D02*
X7971015Y-11909555D01*
X7971015Y-11909555D02*
X7980539Y-11928603D01*
X7980539Y-11928603D02*
X7990062Y-11966698D01*
X7990062Y-11966698D02*
X7990062Y-11995269D01*
X7990062Y-11995269D02*
X7980539Y-12033365D01*
X7980539Y-12033365D02*
X7971015Y-12052412D01*
X7971015Y-12052412D02*
X7951967Y-12071460D01*
X7951967Y-12071460D02*
X7923396Y-12080984D01*
X7923396Y-12080984D02*
X7875777Y-12080984D01*
X8075777Y-12080984D02*
X8075777Y-11947650D01*
X8075777Y-11985746D02*
X8085301Y-11966698D01*
X8085301Y-11966698D02*
X8094824Y-11957174D01*
X8094824Y-11957174D02*
X8113872Y-11947650D01*
X8113872Y-11947650D02*
X8132920Y-11947650D01*
X8199586Y-12080984D02*
X8199586Y-11947650D01*
X8199586Y-11880984D02*
X8190062Y-11890508D01*
X8190062Y-11890508D02*
X8199586Y-11900031D01*
X8199586Y-11900031D02*
X8209110Y-11890508D01*
X8209110Y-11890508D02*
X8199586Y-11880984D01*
X8199586Y-11880984D02*
X8199586Y-11900031D01*
X8323396Y-12080984D02*
X8304348Y-12071460D01*
X8304348Y-12071460D02*
X8294824Y-12052412D01*
X8294824Y-12052412D02*
X8294824Y-11880984D01*
X8428158Y-12080984D02*
X8409110Y-12071460D01*
X8409110Y-12071460D02*
X8399586Y-12052412D01*
X8399586Y-12052412D02*
X8399586Y-11880984D01*
X8656729Y-12080984D02*
X8656729Y-11880984D01*
X8656729Y-11880984D02*
X8723396Y-12023841D01*
X8723396Y-12023841D02*
X8790063Y-11880984D01*
X8790063Y-11880984D02*
X8790063Y-12080984D01*
X8971015Y-12080984D02*
X8971015Y-11976222D01*
X8971015Y-11976222D02*
X8961491Y-11957174D01*
X8961491Y-11957174D02*
X8942444Y-11947650D01*
X8942444Y-11947650D02*
X8904348Y-11947650D01*
X8904348Y-11947650D02*
X8885301Y-11957174D01*
X8971015Y-12071460D02*
X8951967Y-12080984D01*
X8951967Y-12080984D02*
X8904348Y-12080984D01*
X8904348Y-12080984D02*
X8885301Y-12071460D01*
X8885301Y-12071460D02*
X8875777Y-12052412D01*
X8875777Y-12052412D02*
X8875777Y-12033365D01*
X8875777Y-12033365D02*
X8885301Y-12014317D01*
X8885301Y-12014317D02*
X8904348Y-12004793D01*
X8904348Y-12004793D02*
X8951967Y-12004793D01*
X8951967Y-12004793D02*
X8971015Y-11995269D01*
X9066253Y-11947650D02*
X9066253Y-12147650D01*
X9066253Y-11957174D02*
X9085301Y-11947650D01*
X9085301Y-11947650D02*
X9123396Y-11947650D01*
X9123396Y-11947650D02*
X9142444Y-11957174D01*
X9142444Y-11957174D02*
X9151967Y-11966698D01*
X9151967Y-11966698D02*
X9161491Y-11985746D01*
X9161491Y-11985746D02*
X9161491Y-12042888D01*
X9161491Y-12042888D02*
X9151967Y-12061936D01*
X9151967Y-12061936D02*
X9142444Y-12071460D01*
X9142444Y-12071460D02*
X9123396Y-12080984D01*
X9123396Y-12080984D02*
X9085301Y-12080984D01*
X9085301Y-12080984D02*
X9066253Y-12071460D01*
X9247205Y-12061936D02*
X9256729Y-12071460D01*
X9256729Y-12071460D02*
X9247205Y-12080984D01*
X9247205Y-12080984D02*
X9237682Y-12071460D01*
X9237682Y-12071460D02*
X9247205Y-12061936D01*
X9247205Y-12061936D02*
X9247205Y-12080984D01*
X9247205Y-11957174D02*
X9256729Y-11966698D01*
X9256729Y-11966698D02*
X9247205Y-11976222D01*
X9247205Y-11976222D02*
X9237682Y-11966698D01*
X9237682Y-11966698D02*
X9247205Y-11957174D01*
X9247205Y-11957174D02*
X9247205Y-11976222D01*
D12*
X7590000Y-12397000D02*
X7615000Y-12422000D01*
X7615000Y-12397000D02*
X7590000Y-12422000D01*
D11*
X7913872Y-12300984D02*
X7932920Y-12300984D01*
X7932920Y-12300984D02*
X7951967Y-12310508D01*
X7951967Y-12310508D02*
X7961491Y-12320031D01*
X7961491Y-12320031D02*
X7971015Y-12339079D01*
X7971015Y-12339079D02*
X7980539Y-12377174D01*
X7980539Y-12377174D02*
X7980539Y-12424793D01*
X7980539Y-12424793D02*
X7971015Y-12462888D01*
X7971015Y-12462888D02*
X7961491Y-12481936D01*
X7961491Y-12481936D02*
X7951967Y-12491460D01*
X7951967Y-12491460D02*
X7932920Y-12500984D01*
X7932920Y-12500984D02*
X7913872Y-12500984D01*
X7913872Y-12500984D02*
X7894824Y-12491460D01*
X7894824Y-12491460D02*
X7885301Y-12481936D01*
X7885301Y-12481936D02*
X7875777Y-12462888D01*
X7875777Y-12462888D02*
X7866253Y-12424793D01*
X7866253Y-12424793D02*
X7866253Y-12377174D01*
X7866253Y-12377174D02*
X7875777Y-12339079D01*
X7875777Y-12339079D02*
X7885301Y-12320031D01*
X7885301Y-12320031D02*
X7894824Y-12310508D01*
X7894824Y-12310508D02*
X7913872Y-12300984D01*
X8066253Y-12481936D02*
X8075777Y-12491460D01*
X8075777Y-12491460D02*
X8066253Y-12500984D01*
X8066253Y-12500984D02*
X8056729Y-12491460D01*
X8056729Y-12491460D02*
X8066253Y-12481936D01*
X8066253Y-12481936D02*
X8066253Y-12500984D01*
X8151967Y-12320031D02*
X8161491Y-12310508D01*
X8161491Y-12310508D02*
X8180539Y-12300984D01*
X8180539Y-12300984D02*
X8228158Y-12300984D01*
X8228158Y-12300984D02*
X8247205Y-12310508D01*
X8247205Y-12310508D02*
X8256729Y-12320031D01*
X8256729Y-12320031D02*
X8266253Y-12339079D01*
X8266253Y-12339079D02*
X8266253Y-12358127D01*
X8266253Y-12358127D02*
X8256729Y-12386698D01*
X8256729Y-12386698D02*
X8142443Y-12500984D01*
X8142443Y-12500984D02*
X8266253Y-12500984D01*
X8447205Y-12300984D02*
X8351967Y-12300984D01*
X8351967Y-12300984D02*
X8342443Y-12396222D01*
X8342443Y-12396222D02*
X8351967Y-12386698D01*
X8351967Y-12386698D02*
X8371015Y-12377174D01*
X8371015Y-12377174D02*
X8418634Y-12377174D01*
X8418634Y-12377174D02*
X8437682Y-12386698D01*
X8437682Y-12386698D02*
X8447205Y-12396222D01*
X8447205Y-12396222D02*
X8456729Y-12415269D01*
X8456729Y-12415269D02*
X8456729Y-12462888D01*
X8456729Y-12462888D02*
X8447205Y-12481936D01*
X8447205Y-12481936D02*
X8437682Y-12491460D01*
X8437682Y-12491460D02*
X8418634Y-12500984D01*
X8418634Y-12500984D02*
X8371015Y-12500984D01*
X8371015Y-12500984D02*
X8351967Y-12491460D01*
X8351967Y-12491460D02*
X8342443Y-12481936D01*
X8580539Y-12300984D02*
X8599586Y-12300984D01*
X8599586Y-12300984D02*
X8618634Y-12310508D01*
X8618634Y-12310508D02*
X8628158Y-12320031D01*
X8628158Y-12320031D02*
X8637682Y-12339079D01*
X8637682Y-12339079D02*
X8647205Y-12377174D01*
X8647205Y-12377174D02*
X8647205Y-12424793D01*
X8647205Y-12424793D02*
X8637682Y-12462888D01*
X8637682Y-12462888D02*
X8628158Y-12481936D01*
X8628158Y-12481936D02*
X8618634Y-12491460D01*
X8618634Y-12491460D02*
X8599586Y-12500984D01*
X8599586Y-12500984D02*
X8580539Y-12500984D01*
X8580539Y-12500984D02*
X8561491Y-12491460D01*
X8561491Y-12491460D02*
X8551967Y-12481936D01*
X8551967Y-12481936D02*
X8542444Y-12462888D01*
X8542444Y-12462888D02*
X8532920Y-12424793D01*
X8532920Y-12424793D02*
X8532920Y-12377174D01*
X8532920Y-12377174D02*
X8542444Y-12339079D01*
X8542444Y-12339079D02*
X8551967Y-12320031D01*
X8551967Y-12320031D02*
X8561491Y-12310508D01*
X8561491Y-12310508D02*
X8580539Y-12300984D01*
X8732920Y-12500984D02*
X8732920Y-12367650D01*
X8732920Y-12386698D02*
X8742444Y-12377174D01*
X8742444Y-12377174D02*
X8761491Y-12367650D01*
X8761491Y-12367650D02*
X8790063Y-12367650D01*
X8790063Y-12367650D02*
X8809110Y-12377174D01*
X8809110Y-12377174D02*
X8818634Y-12396222D01*
X8818634Y-12396222D02*
X8818634Y-12500984D01*
X8818634Y-12396222D02*
X8828158Y-12377174D01*
X8828158Y-12377174D02*
X8847205Y-12367650D01*
X8847205Y-12367650D02*
X8875777Y-12367650D01*
X8875777Y-12367650D02*
X8894825Y-12377174D01*
X8894825Y-12377174D02*
X8904348Y-12396222D01*
X8904348Y-12396222D02*
X8904348Y-12500984D01*
X8999586Y-12500984D02*
X8999586Y-12367650D01*
X8999586Y-12386698D02*
X9009110Y-12377174D01*
X9009110Y-12377174D02*
X9028158Y-12367650D01*
X9028158Y-12367650D02*
X9056729Y-12367650D01*
X9056729Y-12367650D02*
X9075777Y-12377174D01*
X9075777Y-12377174D02*
X9085301Y-12396222D01*
X9085301Y-12396222D02*
X9085301Y-12500984D01*
X9085301Y-12396222D02*
X9094825Y-12377174D01*
X9094825Y-12377174D02*
X9113872Y-12367650D01*
X9113872Y-12367650D02*
X9142444Y-12367650D01*
X9142444Y-12367650D02*
X9161491Y-12377174D01*
X9161491Y-12377174D02*
X9171015Y-12396222D01*
X9171015Y-12396222D02*
X9171015Y-12500984D01*
X9561491Y-12291460D02*
X9390063Y-12548603D01*
X9818634Y-12300984D02*
X9837682Y-12300984D01*
X9837682Y-12300984D02*
X9856729Y-12310508D01*
X9856729Y-12310508D02*
X9866253Y-12320031D01*
X9866253Y-12320031D02*
X9875777Y-12339079D01*
X9875777Y-12339079D02*
X9885301Y-12377174D01*
X9885301Y-12377174D02*
X9885301Y-12424793D01*
X9885301Y-12424793D02*
X9875777Y-12462888D01*
X9875777Y-12462888D02*
X9866253Y-12481936D01*
X9866253Y-12481936D02*
X9856729Y-12491460D01*
X9856729Y-12491460D02*
X9837682Y-12500984D01*
X9837682Y-12500984D02*
X9818634Y-12500984D01*
X9818634Y-12500984D02*
X9799587Y-12491460D01*
X9799587Y-12491460D02*
X9790063Y-12481936D01*
X9790063Y-12481936D02*
X9780539Y-12462888D01*
X9780539Y-12462888D02*
X9771015Y-12424793D01*
X9771015Y-12424793D02*
X9771015Y-12377174D01*
X9771015Y-12377174D02*
X9780539Y-12339079D01*
X9780539Y-12339079D02*
X9790063Y-12320031D01*
X9790063Y-12320031D02*
X9799587Y-12310508D01*
X9799587Y-12310508D02*
X9818634Y-12300984D01*
X9971015Y-12481936D02*
X9980539Y-12491460D01*
X9980539Y-12491460D02*
X9971015Y-12500984D01*
X9971015Y-12500984D02*
X9961491Y-12491460D01*
X9961491Y-12491460D02*
X9971015Y-12481936D01*
X9971015Y-12481936D02*
X9971015Y-12500984D01*
X10104348Y-12300984D02*
X10123396Y-12300984D01*
X10123396Y-12300984D02*
X10142444Y-12310508D01*
X10142444Y-12310508D02*
X10151968Y-12320031D01*
X10151968Y-12320031D02*
X10161491Y-12339079D01*
X10161491Y-12339079D02*
X10171015Y-12377174D01*
X10171015Y-12377174D02*
X10171015Y-12424793D01*
X10171015Y-12424793D02*
X10161491Y-12462888D01*
X10161491Y-12462888D02*
X10151968Y-12481936D01*
X10151968Y-12481936D02*
X10142444Y-12491460D01*
X10142444Y-12491460D02*
X10123396Y-12500984D01*
X10123396Y-12500984D02*
X10104348Y-12500984D01*
X10104348Y-12500984D02*
X10085301Y-12491460D01*
X10085301Y-12491460D02*
X10075777Y-12481936D01*
X10075777Y-12481936D02*
X10066253Y-12462888D01*
X10066253Y-12462888D02*
X10056729Y-12424793D01*
X10056729Y-12424793D02*
X10056729Y-12377174D01*
X10056729Y-12377174D02*
X10066253Y-12339079D01*
X10066253Y-12339079D02*
X10075777Y-12320031D01*
X10075777Y-12320031D02*
X10085301Y-12310508D01*
X10085301Y-12310508D02*
X10104348Y-12300984D01*
X10294825Y-12300984D02*
X10313872Y-12300984D01*
X10313872Y-12300984D02*
X10332920Y-12310508D01*
X10332920Y-12310508D02*
X10342444Y-12320031D01*
X10342444Y-12320031D02*
X10351968Y-12339079D01*
X10351968Y-12339079D02*
X10361491Y-12377174D01*
X10361491Y-12377174D02*
X10361491Y-12424793D01*
X10361491Y-12424793D02*
X10351968Y-12462888D01*
X10351968Y-12462888D02*
X10342444Y-12481936D01*
X10342444Y-12481936D02*
X10332920Y-12491460D01*
X10332920Y-12491460D02*
X10313872Y-12500984D01*
X10313872Y-12500984D02*
X10294825Y-12500984D01*
X10294825Y-12500984D02*
X10275777Y-12491460D01*
X10275777Y-12491460D02*
X10266253Y-12481936D01*
X10266253Y-12481936D02*
X10256729Y-12462888D01*
X10256729Y-12462888D02*
X10247206Y-12424793D01*
X10247206Y-12424793D02*
X10247206Y-12377174D01*
X10247206Y-12377174D02*
X10256729Y-12339079D01*
X10256729Y-12339079D02*
X10266253Y-12320031D01*
X10266253Y-12320031D02*
X10275777Y-12310508D01*
X10275777Y-12310508D02*
X10294825Y-12300984D01*
X10456729Y-12500984D02*
X10494825Y-12500984D01*
X10494825Y-12500984D02*
X10513872Y-12491460D01*
X10513872Y-12491460D02*
X10523396Y-12481936D01*
X10523396Y-12481936D02*
X10542444Y-12453365D01*
X10542444Y-12453365D02*
X10551968Y-12415269D01*
X10551968Y-12415269D02*
X10551968Y-12339079D01*
X10551968Y-12339079D02*
X10542444Y-12320031D01*
X10542444Y-12320031D02*
X10532920Y-12310508D01*
X10532920Y-12310508D02*
X10513872Y-12300984D01*
X10513872Y-12300984D02*
X10475777Y-12300984D01*
X10475777Y-12300984D02*
X10456729Y-12310508D01*
X10456729Y-12310508D02*
X10447206Y-12320031D01*
X10447206Y-12320031D02*
X10437682Y-12339079D01*
X10437682Y-12339079D02*
X10437682Y-12386698D01*
X10437682Y-12386698D02*
X10447206Y-12405746D01*
X10447206Y-12405746D02*
X10456729Y-12415269D01*
X10456729Y-12415269D02*
X10475777Y-12424793D01*
X10475777Y-12424793D02*
X10513872Y-12424793D01*
X10513872Y-12424793D02*
X10532920Y-12415269D01*
X10532920Y-12415269D02*
X10542444Y-12405746D01*
X10542444Y-12405746D02*
X10551968Y-12386698D01*
X10666253Y-12386698D02*
X10647206Y-12377174D01*
X10647206Y-12377174D02*
X10637682Y-12367650D01*
X10637682Y-12367650D02*
X10628158Y-12348603D01*
X10628158Y-12348603D02*
X10628158Y-12339079D01*
X10628158Y-12339079D02*
X10637682Y-12320031D01*
X10637682Y-12320031D02*
X10647206Y-12310508D01*
X10647206Y-12310508D02*
X10666253Y-12300984D01*
X10666253Y-12300984D02*
X10704349Y-12300984D01*
X10704349Y-12300984D02*
X10723396Y-12310508D01*
X10723396Y-12310508D02*
X10732920Y-12320031D01*
X10732920Y-12320031D02*
X10742444Y-12339079D01*
X10742444Y-12339079D02*
X10742444Y-12348603D01*
X10742444Y-12348603D02*
X10732920Y-12367650D01*
X10732920Y-12367650D02*
X10723396Y-12377174D01*
X10723396Y-12377174D02*
X10704349Y-12386698D01*
X10704349Y-12386698D02*
X10666253Y-12386698D01*
X10666253Y-12386698D02*
X10647206Y-12396222D01*
X10647206Y-12396222D02*
X10637682Y-12405746D01*
X10637682Y-12405746D02*
X10628158Y-12424793D01*
X10628158Y-12424793D02*
X10628158Y-12462888D01*
X10628158Y-12462888D02*
X10637682Y-12481936D01*
X10637682Y-12481936D02*
X10647206Y-12491460D01*
X10647206Y-12491460D02*
X10666253Y-12500984D01*
X10666253Y-12500984D02*
X10704349Y-12500984D01*
X10704349Y-12500984D02*
X10723396Y-12491460D01*
X10723396Y-12491460D02*
X10732920Y-12481936D01*
X10732920Y-12481936D02*
X10742444Y-12462888D01*
X10742444Y-12462888D02*
X10742444Y-12424793D01*
X10742444Y-12424793D02*
X10732920Y-12405746D01*
X10732920Y-12405746D02*
X10723396Y-12396222D01*
X10723396Y-12396222D02*
X10704349Y-12386698D01*
X10818634Y-12300984D02*
X10818634Y-12339079D01*
X10894825Y-12300984D02*
X10894825Y-12339079D01*
X11190063Y-12577174D02*
X11180539Y-12567650D01*
X11180539Y-12567650D02*
X11161491Y-12539079D01*
X11161491Y-12539079D02*
X11151968Y-12520031D01*
X11151968Y-12520031D02*
X11142444Y-12491460D01*
X11142444Y-12491460D02*
X11132920Y-12443841D01*
X11132920Y-12443841D02*
X11132920Y-12405746D01*
X11132920Y-12405746D02*
X11142444Y-12358127D01*
X11142444Y-12358127D02*
X11151968Y-12329555D01*
X11151968Y-12329555D02*
X11161491Y-12310508D01*
X11161491Y-12310508D02*
X11180539Y-12281936D01*
X11180539Y-12281936D02*
X11190063Y-12272412D01*
X11371015Y-12500984D02*
X11256729Y-12500984D01*
X11313872Y-12500984D02*
X11313872Y-12300984D01*
X11313872Y-12300984D02*
X11294825Y-12329555D01*
X11294825Y-12329555D02*
X11275777Y-12348603D01*
X11275777Y-12348603D02*
X11256729Y-12358127D01*
X11494825Y-12300984D02*
X11513872Y-12300984D01*
X11513872Y-12300984D02*
X11532920Y-12310508D01*
X11532920Y-12310508D02*
X11542444Y-12320031D01*
X11542444Y-12320031D02*
X11551968Y-12339079D01*
X11551968Y-12339079D02*
X11561491Y-12377174D01*
X11561491Y-12377174D02*
X11561491Y-12424793D01*
X11561491Y-12424793D02*
X11551968Y-12462888D01*
X11551968Y-12462888D02*
X11542444Y-12481936D01*
X11542444Y-12481936D02*
X11532920Y-12491460D01*
X11532920Y-12491460D02*
X11513872Y-12500984D01*
X11513872Y-12500984D02*
X11494825Y-12500984D01*
X11494825Y-12500984D02*
X11475777Y-12491460D01*
X11475777Y-12491460D02*
X11466253Y-12481936D01*
X11466253Y-12481936D02*
X11456729Y-12462888D01*
X11456729Y-12462888D02*
X11447206Y-12424793D01*
X11447206Y-12424793D02*
X11447206Y-12377174D01*
X11447206Y-12377174D02*
X11456729Y-12339079D01*
X11456729Y-12339079D02*
X11466253Y-12320031D01*
X11466253Y-12320031D02*
X11475777Y-12310508D01*
X11475777Y-12310508D02*
X11494825Y-12300984D01*
X11732920Y-12367650D02*
X11732920Y-12500984D01*
X11685301Y-12291460D02*
X11637682Y-12434317D01*
X11637682Y-12434317D02*
X11761491Y-12434317D01*
X11990063Y-12500984D02*
X11990063Y-12300984D01*
X12075777Y-12500984D02*
X12075777Y-12396222D01*
X12075777Y-12396222D02*
X12066253Y-12377174D01*
X12066253Y-12377174D02*
X12047206Y-12367650D01*
X12047206Y-12367650D02*
X12018634Y-12367650D01*
X12018634Y-12367650D02*
X11999587Y-12377174D01*
X11999587Y-12377174D02*
X11990063Y-12386698D01*
X12199587Y-12500984D02*
X12180539Y-12491460D01*
X12180539Y-12491460D02*
X12171015Y-12481936D01*
X12171015Y-12481936D02*
X12161491Y-12462888D01*
X12161491Y-12462888D02*
X12161491Y-12405746D01*
X12161491Y-12405746D02*
X12171015Y-12386698D01*
X12171015Y-12386698D02*
X12180539Y-12377174D01*
X12180539Y-12377174D02*
X12199587Y-12367650D01*
X12199587Y-12367650D02*
X12228158Y-12367650D01*
X12228158Y-12367650D02*
X12247206Y-12377174D01*
X12247206Y-12377174D02*
X12256730Y-12386698D01*
X12256730Y-12386698D02*
X12266253Y-12405746D01*
X12266253Y-12405746D02*
X12266253Y-12462888D01*
X12266253Y-12462888D02*
X12256730Y-12481936D01*
X12256730Y-12481936D02*
X12247206Y-12491460D01*
X12247206Y-12491460D02*
X12228158Y-12500984D01*
X12228158Y-12500984D02*
X12199587Y-12500984D01*
X12380539Y-12500984D02*
X12361491Y-12491460D01*
X12361491Y-12491460D02*
X12351968Y-12472412D01*
X12351968Y-12472412D02*
X12351968Y-12300984D01*
X12532920Y-12491460D02*
X12513872Y-12500984D01*
X12513872Y-12500984D02*
X12475777Y-12500984D01*
X12475777Y-12500984D02*
X12456730Y-12491460D01*
X12456730Y-12491460D02*
X12447206Y-12472412D01*
X12447206Y-12472412D02*
X12447206Y-12396222D01*
X12447206Y-12396222D02*
X12456730Y-12377174D01*
X12456730Y-12377174D02*
X12475777Y-12367650D01*
X12475777Y-12367650D02*
X12513872Y-12367650D01*
X12513872Y-12367650D02*
X12532920Y-12377174D01*
X12532920Y-12377174D02*
X12542444Y-12396222D01*
X12542444Y-12396222D02*
X12542444Y-12415269D01*
X12542444Y-12415269D02*
X12447206Y-12434317D01*
X12618634Y-12491460D02*
X12637682Y-12500984D01*
X12637682Y-12500984D02*
X12675777Y-12500984D01*
X12675777Y-12500984D02*
X12694825Y-12491460D01*
X12694825Y-12491460D02*
X12704349Y-12472412D01*
X12704349Y-12472412D02*
X12704349Y-12462888D01*
X12704349Y-12462888D02*
X12694825Y-12443841D01*
X12694825Y-12443841D02*
X12675777Y-12434317D01*
X12675777Y-12434317D02*
X12647206Y-12434317D01*
X12647206Y-12434317D02*
X12628158Y-12424793D01*
X12628158Y-12424793D02*
X12618634Y-12405746D01*
X12618634Y-12405746D02*
X12618634Y-12396222D01*
X12618634Y-12396222D02*
X12628158Y-12377174D01*
X12628158Y-12377174D02*
X12647206Y-12367650D01*
X12647206Y-12367650D02*
X12675777Y-12367650D01*
X12675777Y-12367650D02*
X12694825Y-12377174D01*
X12771015Y-12577174D02*
X12780539Y-12567650D01*
X12780539Y-12567650D02*
X12799587Y-12539079D01*
X12799587Y-12539079D02*
X12809111Y-12520031D01*
X12809111Y-12520031D02*
X12818634Y-12491460D01*
X12818634Y-12491460D02*
X12828158Y-12443841D01*
X12828158Y-12443841D02*
X12828158Y-12405746D01*
X12828158Y-12405746D02*
X12818634Y-12358127D01*
X12818634Y-12358127D02*
X12809111Y-12329555D01*
X12809111Y-12329555D02*
X12799587Y-12310508D01*
X12799587Y-12310508D02*
X12780539Y-12281936D01*
X12780539Y-12281936D02*
X12771015Y-12272412D01*
D13*
X7615000Y-12673500D02*
G75*
G03*
X7615000Y-12673500I-15000J0D01*
G01*
D11*
X7913872Y-12564984D02*
X7932920Y-12564984D01*
X7932920Y-12564984D02*
X7951967Y-12574508D01*
X7951967Y-12574508D02*
X7961491Y-12584031D01*
X7961491Y-12584031D02*
X7971015Y-12603079D01*
X7971015Y-12603079D02*
X7980539Y-12641174D01*
X7980539Y-12641174D02*
X7980539Y-12688793D01*
X7980539Y-12688793D02*
X7971015Y-12726888D01*
X7971015Y-12726888D02*
X7961491Y-12745936D01*
X7961491Y-12745936D02*
X7951967Y-12755460D01*
X7951967Y-12755460D02*
X7932920Y-12764984D01*
X7932920Y-12764984D02*
X7913872Y-12764984D01*
X7913872Y-12764984D02*
X7894824Y-12755460D01*
X7894824Y-12755460D02*
X7885301Y-12745936D01*
X7885301Y-12745936D02*
X7875777Y-12726888D01*
X7875777Y-12726888D02*
X7866253Y-12688793D01*
X7866253Y-12688793D02*
X7866253Y-12641174D01*
X7866253Y-12641174D02*
X7875777Y-12603079D01*
X7875777Y-12603079D02*
X7885301Y-12584031D01*
X7885301Y-12584031D02*
X7894824Y-12574508D01*
X7894824Y-12574508D02*
X7913872Y-12564984D01*
X8066253Y-12745936D02*
X8075777Y-12755460D01*
X8075777Y-12755460D02*
X8066253Y-12764984D01*
X8066253Y-12764984D02*
X8056729Y-12755460D01*
X8056729Y-12755460D02*
X8066253Y-12745936D01*
X8066253Y-12745936D02*
X8066253Y-12764984D01*
X8142443Y-12564984D02*
X8266253Y-12564984D01*
X8266253Y-12564984D02*
X8199586Y-12641174D01*
X8199586Y-12641174D02*
X8228158Y-12641174D01*
X8228158Y-12641174D02*
X8247205Y-12650698D01*
X8247205Y-12650698D02*
X8256729Y-12660222D01*
X8256729Y-12660222D02*
X8266253Y-12679269D01*
X8266253Y-12679269D02*
X8266253Y-12726888D01*
X8266253Y-12726888D02*
X8256729Y-12745936D01*
X8256729Y-12745936D02*
X8247205Y-12755460D01*
X8247205Y-12755460D02*
X8228158Y-12764984D01*
X8228158Y-12764984D02*
X8171015Y-12764984D01*
X8171015Y-12764984D02*
X8151967Y-12755460D01*
X8151967Y-12755460D02*
X8142443Y-12745936D01*
X8390063Y-12564984D02*
X8409110Y-12564984D01*
X8409110Y-12564984D02*
X8428158Y-12574508D01*
X8428158Y-12574508D02*
X8437682Y-12584031D01*
X8437682Y-12584031D02*
X8447205Y-12603079D01*
X8447205Y-12603079D02*
X8456729Y-12641174D01*
X8456729Y-12641174D02*
X8456729Y-12688793D01*
X8456729Y-12688793D02*
X8447205Y-12726888D01*
X8447205Y-12726888D02*
X8437682Y-12745936D01*
X8437682Y-12745936D02*
X8428158Y-12755460D01*
X8428158Y-12755460D02*
X8409110Y-12764984D01*
X8409110Y-12764984D02*
X8390063Y-12764984D01*
X8390063Y-12764984D02*
X8371015Y-12755460D01*
X8371015Y-12755460D02*
X8361491Y-12745936D01*
X8361491Y-12745936D02*
X8351967Y-12726888D01*
X8351967Y-12726888D02*
X8342443Y-12688793D01*
X8342443Y-12688793D02*
X8342443Y-12641174D01*
X8342443Y-12641174D02*
X8351967Y-12603079D01*
X8351967Y-12603079D02*
X8361491Y-12584031D01*
X8361491Y-12584031D02*
X8371015Y-12574508D01*
X8371015Y-12574508D02*
X8390063Y-12564984D01*
X8580539Y-12564984D02*
X8599586Y-12564984D01*
X8599586Y-12564984D02*
X8618634Y-12574508D01*
X8618634Y-12574508D02*
X8628158Y-12584031D01*
X8628158Y-12584031D02*
X8637682Y-12603079D01*
X8637682Y-12603079D02*
X8647205Y-12641174D01*
X8647205Y-12641174D02*
X8647205Y-12688793D01*
X8647205Y-12688793D02*
X8637682Y-12726888D01*
X8637682Y-12726888D02*
X8628158Y-12745936D01*
X8628158Y-12745936D02*
X8618634Y-12755460D01*
X8618634Y-12755460D02*
X8599586Y-12764984D01*
X8599586Y-12764984D02*
X8580539Y-12764984D01*
X8580539Y-12764984D02*
X8561491Y-12755460D01*
X8561491Y-12755460D02*
X8551967Y-12745936D01*
X8551967Y-12745936D02*
X8542444Y-12726888D01*
X8542444Y-12726888D02*
X8532920Y-12688793D01*
X8532920Y-12688793D02*
X8532920Y-12641174D01*
X8532920Y-12641174D02*
X8542444Y-12603079D01*
X8542444Y-12603079D02*
X8551967Y-12584031D01*
X8551967Y-12584031D02*
X8561491Y-12574508D01*
X8561491Y-12574508D02*
X8580539Y-12564984D01*
X8732920Y-12764984D02*
X8732920Y-12631650D01*
X8732920Y-12650698D02*
X8742444Y-12641174D01*
X8742444Y-12641174D02*
X8761491Y-12631650D01*
X8761491Y-12631650D02*
X8790063Y-12631650D01*
X8790063Y-12631650D02*
X8809110Y-12641174D01*
X8809110Y-12641174D02*
X8818634Y-12660222D01*
X8818634Y-12660222D02*
X8818634Y-12764984D01*
X8818634Y-12660222D02*
X8828158Y-12641174D01*
X8828158Y-12641174D02*
X8847205Y-12631650D01*
X8847205Y-12631650D02*
X8875777Y-12631650D01*
X8875777Y-12631650D02*
X8894825Y-12641174D01*
X8894825Y-12641174D02*
X8904348Y-12660222D01*
X8904348Y-12660222D02*
X8904348Y-12764984D01*
X8999586Y-12764984D02*
X8999586Y-12631650D01*
X8999586Y-12650698D02*
X9009110Y-12641174D01*
X9009110Y-12641174D02*
X9028158Y-12631650D01*
X9028158Y-12631650D02*
X9056729Y-12631650D01*
X9056729Y-12631650D02*
X9075777Y-12641174D01*
X9075777Y-12641174D02*
X9085301Y-12660222D01*
X9085301Y-12660222D02*
X9085301Y-12764984D01*
X9085301Y-12660222D02*
X9094825Y-12641174D01*
X9094825Y-12641174D02*
X9113872Y-12631650D01*
X9113872Y-12631650D02*
X9142444Y-12631650D01*
X9142444Y-12631650D02*
X9161491Y-12641174D01*
X9161491Y-12641174D02*
X9171015Y-12660222D01*
X9171015Y-12660222D02*
X9171015Y-12764984D01*
X9561491Y-12555460D02*
X9390063Y-12812603D01*
X9818634Y-12564984D02*
X9837682Y-12564984D01*
X9837682Y-12564984D02*
X9856729Y-12574508D01*
X9856729Y-12574508D02*
X9866253Y-12584031D01*
X9866253Y-12584031D02*
X9875777Y-12603079D01*
X9875777Y-12603079D02*
X9885301Y-12641174D01*
X9885301Y-12641174D02*
X9885301Y-12688793D01*
X9885301Y-12688793D02*
X9875777Y-12726888D01*
X9875777Y-12726888D02*
X9866253Y-12745936D01*
X9866253Y-12745936D02*
X9856729Y-12755460D01*
X9856729Y-12755460D02*
X9837682Y-12764984D01*
X9837682Y-12764984D02*
X9818634Y-12764984D01*
X9818634Y-12764984D02*
X9799587Y-12755460D01*
X9799587Y-12755460D02*
X9790063Y-12745936D01*
X9790063Y-12745936D02*
X9780539Y-12726888D01*
X9780539Y-12726888D02*
X9771015Y-12688793D01*
X9771015Y-12688793D02*
X9771015Y-12641174D01*
X9771015Y-12641174D02*
X9780539Y-12603079D01*
X9780539Y-12603079D02*
X9790063Y-12584031D01*
X9790063Y-12584031D02*
X9799587Y-12574508D01*
X9799587Y-12574508D02*
X9818634Y-12564984D01*
X9971015Y-12745936D02*
X9980539Y-12755460D01*
X9980539Y-12755460D02*
X9971015Y-12764984D01*
X9971015Y-12764984D02*
X9961491Y-12755460D01*
X9961491Y-12755460D02*
X9971015Y-12745936D01*
X9971015Y-12745936D02*
X9971015Y-12764984D01*
X10104348Y-12564984D02*
X10123396Y-12564984D01*
X10123396Y-12564984D02*
X10142444Y-12574508D01*
X10142444Y-12574508D02*
X10151968Y-12584031D01*
X10151968Y-12584031D02*
X10161491Y-12603079D01*
X10161491Y-12603079D02*
X10171015Y-12641174D01*
X10171015Y-12641174D02*
X10171015Y-12688793D01*
X10171015Y-12688793D02*
X10161491Y-12726888D01*
X10161491Y-12726888D02*
X10151968Y-12745936D01*
X10151968Y-12745936D02*
X10142444Y-12755460D01*
X10142444Y-12755460D02*
X10123396Y-12764984D01*
X10123396Y-12764984D02*
X10104348Y-12764984D01*
X10104348Y-12764984D02*
X10085301Y-12755460D01*
X10085301Y-12755460D02*
X10075777Y-12745936D01*
X10075777Y-12745936D02*
X10066253Y-12726888D01*
X10066253Y-12726888D02*
X10056729Y-12688793D01*
X10056729Y-12688793D02*
X10056729Y-12641174D01*
X10056729Y-12641174D02*
X10066253Y-12603079D01*
X10066253Y-12603079D02*
X10075777Y-12584031D01*
X10075777Y-12584031D02*
X10085301Y-12574508D01*
X10085301Y-12574508D02*
X10104348Y-12564984D01*
X10361491Y-12764984D02*
X10247206Y-12764984D01*
X10304348Y-12764984D02*
X10304348Y-12564984D01*
X10304348Y-12564984D02*
X10285301Y-12593555D01*
X10285301Y-12593555D02*
X10266253Y-12612603D01*
X10266253Y-12612603D02*
X10247206Y-12622127D01*
X10551968Y-12764984D02*
X10437682Y-12764984D01*
X10494825Y-12764984D02*
X10494825Y-12564984D01*
X10494825Y-12564984D02*
X10475777Y-12593555D01*
X10475777Y-12593555D02*
X10456729Y-12612603D01*
X10456729Y-12612603D02*
X10437682Y-12622127D01*
X10666253Y-12650698D02*
X10647206Y-12641174D01*
X10647206Y-12641174D02*
X10637682Y-12631650D01*
X10637682Y-12631650D02*
X10628158Y-12612603D01*
X10628158Y-12612603D02*
X10628158Y-12603079D01*
X10628158Y-12603079D02*
X10637682Y-12584031D01*
X10637682Y-12584031D02*
X10647206Y-12574508D01*
X10647206Y-12574508D02*
X10666253Y-12564984D01*
X10666253Y-12564984D02*
X10704349Y-12564984D01*
X10704349Y-12564984D02*
X10723396Y-12574508D01*
X10723396Y-12574508D02*
X10732920Y-12584031D01*
X10732920Y-12584031D02*
X10742444Y-12603079D01*
X10742444Y-12603079D02*
X10742444Y-12612603D01*
X10742444Y-12612603D02*
X10732920Y-12631650D01*
X10732920Y-12631650D02*
X10723396Y-12641174D01*
X10723396Y-12641174D02*
X10704349Y-12650698D01*
X10704349Y-12650698D02*
X10666253Y-12650698D01*
X10666253Y-12650698D02*
X10647206Y-12660222D01*
X10647206Y-12660222D02*
X10637682Y-12669746D01*
X10637682Y-12669746D02*
X10628158Y-12688793D01*
X10628158Y-12688793D02*
X10628158Y-12726888D01*
X10628158Y-12726888D02*
X10637682Y-12745936D01*
X10637682Y-12745936D02*
X10647206Y-12755460D01*
X10647206Y-12755460D02*
X10666253Y-12764984D01*
X10666253Y-12764984D02*
X10704349Y-12764984D01*
X10704349Y-12764984D02*
X10723396Y-12755460D01*
X10723396Y-12755460D02*
X10732920Y-12745936D01*
X10732920Y-12745936D02*
X10742444Y-12726888D01*
X10742444Y-12726888D02*
X10742444Y-12688793D01*
X10742444Y-12688793D02*
X10732920Y-12669746D01*
X10732920Y-12669746D02*
X10723396Y-12660222D01*
X10723396Y-12660222D02*
X10704349Y-12650698D01*
X10818634Y-12564984D02*
X10818634Y-12603079D01*
X10894825Y-12564984D02*
X10894825Y-12603079D01*
X11190063Y-12841174D02*
X11180539Y-12831650D01*
X11180539Y-12831650D02*
X11161491Y-12803079D01*
X11161491Y-12803079D02*
X11151968Y-12784031D01*
X11151968Y-12784031D02*
X11142444Y-12755460D01*
X11142444Y-12755460D02*
X11132920Y-12707841D01*
X11132920Y-12707841D02*
X11132920Y-12669746D01*
X11132920Y-12669746D02*
X11142444Y-12622127D01*
X11142444Y-12622127D02*
X11151968Y-12593555D01*
X11151968Y-12593555D02*
X11161491Y-12574508D01*
X11161491Y-12574508D02*
X11180539Y-12545936D01*
X11180539Y-12545936D02*
X11190063Y-12536412D01*
X11351968Y-12631650D02*
X11351968Y-12764984D01*
X11304348Y-12555460D02*
X11256729Y-12698317D01*
X11256729Y-12698317D02*
X11380539Y-12698317D01*
X11609110Y-12764984D02*
X11609110Y-12564984D01*
X11694825Y-12764984D02*
X11694825Y-12660222D01*
X11694825Y-12660222D02*
X11685301Y-12641174D01*
X11685301Y-12641174D02*
X11666253Y-12631650D01*
X11666253Y-12631650D02*
X11637682Y-12631650D01*
X11637682Y-12631650D02*
X11618634Y-12641174D01*
X11618634Y-12641174D02*
X11609110Y-12650698D01*
X11818634Y-12764984D02*
X11799587Y-12755460D01*
X11799587Y-12755460D02*
X11790063Y-12745936D01*
X11790063Y-12745936D02*
X11780539Y-12726888D01*
X11780539Y-12726888D02*
X11780539Y-12669746D01*
X11780539Y-12669746D02*
X11790063Y-12650698D01*
X11790063Y-12650698D02*
X11799587Y-12641174D01*
X11799587Y-12641174D02*
X11818634Y-12631650D01*
X11818634Y-12631650D02*
X11847206Y-12631650D01*
X11847206Y-12631650D02*
X11866253Y-12641174D01*
X11866253Y-12641174D02*
X11875777Y-12650698D01*
X11875777Y-12650698D02*
X11885301Y-12669746D01*
X11885301Y-12669746D02*
X11885301Y-12726888D01*
X11885301Y-12726888D02*
X11875777Y-12745936D01*
X11875777Y-12745936D02*
X11866253Y-12755460D01*
X11866253Y-12755460D02*
X11847206Y-12764984D01*
X11847206Y-12764984D02*
X11818634Y-12764984D01*
X11999587Y-12764984D02*
X11980539Y-12755460D01*
X11980539Y-12755460D02*
X11971015Y-12736412D01*
X11971015Y-12736412D02*
X11971015Y-12564984D01*
X12151968Y-12755460D02*
X12132920Y-12764984D01*
X12132920Y-12764984D02*
X12094825Y-12764984D01*
X12094825Y-12764984D02*
X12075777Y-12755460D01*
X12075777Y-12755460D02*
X12066253Y-12736412D01*
X12066253Y-12736412D02*
X12066253Y-12660222D01*
X12066253Y-12660222D02*
X12075777Y-12641174D01*
X12075777Y-12641174D02*
X12094825Y-12631650D01*
X12094825Y-12631650D02*
X12132920Y-12631650D01*
X12132920Y-12631650D02*
X12151968Y-12641174D01*
X12151968Y-12641174D02*
X12161491Y-12660222D01*
X12161491Y-12660222D02*
X12161491Y-12679269D01*
X12161491Y-12679269D02*
X12066253Y-12698317D01*
X12237682Y-12755460D02*
X12256730Y-12764984D01*
X12256730Y-12764984D02*
X12294825Y-12764984D01*
X12294825Y-12764984D02*
X12313872Y-12755460D01*
X12313872Y-12755460D02*
X12323396Y-12736412D01*
X12323396Y-12736412D02*
X12323396Y-12726888D01*
X12323396Y-12726888D02*
X12313872Y-12707841D01*
X12313872Y-12707841D02*
X12294825Y-12698317D01*
X12294825Y-12698317D02*
X12266253Y-12698317D01*
X12266253Y-12698317D02*
X12247206Y-12688793D01*
X12247206Y-12688793D02*
X12237682Y-12669746D01*
X12237682Y-12669746D02*
X12237682Y-12660222D01*
X12237682Y-12660222D02*
X12247206Y-12641174D01*
X12247206Y-12641174D02*
X12266253Y-12631650D01*
X12266253Y-12631650D02*
X12294825Y-12631650D01*
X12294825Y-12631650D02*
X12313872Y-12641174D01*
X12390063Y-12841174D02*
X12399587Y-12831650D01*
X12399587Y-12831650D02*
X12418634Y-12803079D01*
X12418634Y-12803079D02*
X12428158Y-12784031D01*
X12428158Y-12784031D02*
X12437682Y-12755460D01*
X12437682Y-12755460D02*
X12447206Y-12707841D01*
X12447206Y-12707841D02*
X12447206Y-12669746D01*
X12447206Y-12669746D02*
X12437682Y-12622127D01*
X12437682Y-12622127D02*
X12428158Y-12593555D01*
X12428158Y-12593555D02*
X12418634Y-12574508D01*
X12418634Y-12574508D02*
X12399587Y-12545936D01*
X12399587Y-12545936D02*
X12390063Y-12536412D01*
D14*
X7595000Y-12917500D02*
X7595000Y-12957500D01*
X7575000Y-12937500D02*
X7615000Y-12937500D01*
D11*
X7913872Y-12828984D02*
X7932920Y-12828984D01*
X7932920Y-12828984D02*
X7951967Y-12838508D01*
X7951967Y-12838508D02*
X7961491Y-12848031D01*
X7961491Y-12848031D02*
X7971015Y-12867079D01*
X7971015Y-12867079D02*
X7980539Y-12905174D01*
X7980539Y-12905174D02*
X7980539Y-12952793D01*
X7980539Y-12952793D02*
X7971015Y-12990888D01*
X7971015Y-12990888D02*
X7961491Y-13009936D01*
X7961491Y-13009936D02*
X7951967Y-13019460D01*
X7951967Y-13019460D02*
X7932920Y-13028984D01*
X7932920Y-13028984D02*
X7913872Y-13028984D01*
X7913872Y-13028984D02*
X7894824Y-13019460D01*
X7894824Y-13019460D02*
X7885301Y-13009936D01*
X7885301Y-13009936D02*
X7875777Y-12990888D01*
X7875777Y-12990888D02*
X7866253Y-12952793D01*
X7866253Y-12952793D02*
X7866253Y-12905174D01*
X7866253Y-12905174D02*
X7875777Y-12867079D01*
X7875777Y-12867079D02*
X7885301Y-12848031D01*
X7885301Y-12848031D02*
X7894824Y-12838508D01*
X7894824Y-12838508D02*
X7913872Y-12828984D01*
X8066253Y-13009936D02*
X8075777Y-13019460D01*
X8075777Y-13019460D02*
X8066253Y-13028984D01*
X8066253Y-13028984D02*
X8056729Y-13019460D01*
X8056729Y-13019460D02*
X8066253Y-13009936D01*
X8066253Y-13009936D02*
X8066253Y-13028984D01*
X8247205Y-12895650D02*
X8247205Y-13028984D01*
X8199586Y-12819460D02*
X8151967Y-12962317D01*
X8151967Y-12962317D02*
X8275777Y-12962317D01*
X8390063Y-12828984D02*
X8409110Y-12828984D01*
X8409110Y-12828984D02*
X8428158Y-12838508D01*
X8428158Y-12838508D02*
X8437682Y-12848031D01*
X8437682Y-12848031D02*
X8447205Y-12867079D01*
X8447205Y-12867079D02*
X8456729Y-12905174D01*
X8456729Y-12905174D02*
X8456729Y-12952793D01*
X8456729Y-12952793D02*
X8447205Y-12990888D01*
X8447205Y-12990888D02*
X8437682Y-13009936D01*
X8437682Y-13009936D02*
X8428158Y-13019460D01*
X8428158Y-13019460D02*
X8409110Y-13028984D01*
X8409110Y-13028984D02*
X8390063Y-13028984D01*
X8390063Y-13028984D02*
X8371015Y-13019460D01*
X8371015Y-13019460D02*
X8361491Y-13009936D01*
X8361491Y-13009936D02*
X8351967Y-12990888D01*
X8351967Y-12990888D02*
X8342443Y-12952793D01*
X8342443Y-12952793D02*
X8342443Y-12905174D01*
X8342443Y-12905174D02*
X8351967Y-12867079D01*
X8351967Y-12867079D02*
X8361491Y-12848031D01*
X8361491Y-12848031D02*
X8371015Y-12838508D01*
X8371015Y-12838508D02*
X8390063Y-12828984D01*
X8580539Y-12828984D02*
X8599586Y-12828984D01*
X8599586Y-12828984D02*
X8618634Y-12838508D01*
X8618634Y-12838508D02*
X8628158Y-12848031D01*
X8628158Y-12848031D02*
X8637682Y-12867079D01*
X8637682Y-12867079D02*
X8647205Y-12905174D01*
X8647205Y-12905174D02*
X8647205Y-12952793D01*
X8647205Y-12952793D02*
X8637682Y-12990888D01*
X8637682Y-12990888D02*
X8628158Y-13009936D01*
X8628158Y-13009936D02*
X8618634Y-13019460D01*
X8618634Y-13019460D02*
X8599586Y-13028984D01*
X8599586Y-13028984D02*
X8580539Y-13028984D01*
X8580539Y-13028984D02*
X8561491Y-13019460D01*
X8561491Y-13019460D02*
X8551967Y-13009936D01*
X8551967Y-13009936D02*
X8542444Y-12990888D01*
X8542444Y-12990888D02*
X8532920Y-12952793D01*
X8532920Y-12952793D02*
X8532920Y-12905174D01*
X8532920Y-12905174D02*
X8542444Y-12867079D01*
X8542444Y-12867079D02*
X8551967Y-12848031D01*
X8551967Y-12848031D02*
X8561491Y-12838508D01*
X8561491Y-12838508D02*
X8580539Y-12828984D01*
X8732920Y-13028984D02*
X8732920Y-12895650D01*
X8732920Y-12914698D02*
X8742444Y-12905174D01*
X8742444Y-12905174D02*
X8761491Y-12895650D01*
X8761491Y-12895650D02*
X8790063Y-12895650D01*
X8790063Y-12895650D02*
X8809110Y-12905174D01*
X8809110Y-12905174D02*
X8818634Y-12924222D01*
X8818634Y-12924222D02*
X8818634Y-13028984D01*
X8818634Y-12924222D02*
X8828158Y-12905174D01*
X8828158Y-12905174D02*
X8847205Y-12895650D01*
X8847205Y-12895650D02*
X8875777Y-12895650D01*
X8875777Y-12895650D02*
X8894825Y-12905174D01*
X8894825Y-12905174D02*
X8904348Y-12924222D01*
X8904348Y-12924222D02*
X8904348Y-13028984D01*
X8999586Y-13028984D02*
X8999586Y-12895650D01*
X8999586Y-12914698D02*
X9009110Y-12905174D01*
X9009110Y-12905174D02*
X9028158Y-12895650D01*
X9028158Y-12895650D02*
X9056729Y-12895650D01*
X9056729Y-12895650D02*
X9075777Y-12905174D01*
X9075777Y-12905174D02*
X9085301Y-12924222D01*
X9085301Y-12924222D02*
X9085301Y-13028984D01*
X9085301Y-12924222D02*
X9094825Y-12905174D01*
X9094825Y-12905174D02*
X9113872Y-12895650D01*
X9113872Y-12895650D02*
X9142444Y-12895650D01*
X9142444Y-12895650D02*
X9161491Y-12905174D01*
X9161491Y-12905174D02*
X9171015Y-12924222D01*
X9171015Y-12924222D02*
X9171015Y-13028984D01*
X9561491Y-12819460D02*
X9390063Y-13076603D01*
X9818634Y-12828984D02*
X9837682Y-12828984D01*
X9837682Y-12828984D02*
X9856729Y-12838508D01*
X9856729Y-12838508D02*
X9866253Y-12848031D01*
X9866253Y-12848031D02*
X9875777Y-12867079D01*
X9875777Y-12867079D02*
X9885301Y-12905174D01*
X9885301Y-12905174D02*
X9885301Y-12952793D01*
X9885301Y-12952793D02*
X9875777Y-12990888D01*
X9875777Y-12990888D02*
X9866253Y-13009936D01*
X9866253Y-13009936D02*
X9856729Y-13019460D01*
X9856729Y-13019460D02*
X9837682Y-13028984D01*
X9837682Y-13028984D02*
X9818634Y-13028984D01*
X9818634Y-13028984D02*
X9799587Y-13019460D01*
X9799587Y-13019460D02*
X9790063Y-13009936D01*
X9790063Y-13009936D02*
X9780539Y-12990888D01*
X9780539Y-12990888D02*
X9771015Y-12952793D01*
X9771015Y-12952793D02*
X9771015Y-12905174D01*
X9771015Y-12905174D02*
X9780539Y-12867079D01*
X9780539Y-12867079D02*
X9790063Y-12848031D01*
X9790063Y-12848031D02*
X9799587Y-12838508D01*
X9799587Y-12838508D02*
X9818634Y-12828984D01*
X9971015Y-13009936D02*
X9980539Y-13019460D01*
X9980539Y-13019460D02*
X9971015Y-13028984D01*
X9971015Y-13028984D02*
X9961491Y-13019460D01*
X9961491Y-13019460D02*
X9971015Y-13009936D01*
X9971015Y-13009936D02*
X9971015Y-13028984D01*
X10104348Y-12828984D02*
X10123396Y-12828984D01*
X10123396Y-12828984D02*
X10142444Y-12838508D01*
X10142444Y-12838508D02*
X10151968Y-12848031D01*
X10151968Y-12848031D02*
X10161491Y-12867079D01*
X10161491Y-12867079D02*
X10171015Y-12905174D01*
X10171015Y-12905174D02*
X10171015Y-12952793D01*
X10171015Y-12952793D02*
X10161491Y-12990888D01*
X10161491Y-12990888D02*
X10151968Y-13009936D01*
X10151968Y-13009936D02*
X10142444Y-13019460D01*
X10142444Y-13019460D02*
X10123396Y-13028984D01*
X10123396Y-13028984D02*
X10104348Y-13028984D01*
X10104348Y-13028984D02*
X10085301Y-13019460D01*
X10085301Y-13019460D02*
X10075777Y-13009936D01*
X10075777Y-13009936D02*
X10066253Y-12990888D01*
X10066253Y-12990888D02*
X10056729Y-12952793D01*
X10056729Y-12952793D02*
X10056729Y-12905174D01*
X10056729Y-12905174D02*
X10066253Y-12867079D01*
X10066253Y-12867079D02*
X10075777Y-12848031D01*
X10075777Y-12848031D02*
X10085301Y-12838508D01*
X10085301Y-12838508D02*
X10104348Y-12828984D01*
X10361491Y-13028984D02*
X10247206Y-13028984D01*
X10304348Y-13028984D02*
X10304348Y-12828984D01*
X10304348Y-12828984D02*
X10285301Y-12857555D01*
X10285301Y-12857555D02*
X10266253Y-12876603D01*
X10266253Y-12876603D02*
X10247206Y-12886127D01*
X10542444Y-12828984D02*
X10447206Y-12828984D01*
X10447206Y-12828984D02*
X10437682Y-12924222D01*
X10437682Y-12924222D02*
X10447206Y-12914698D01*
X10447206Y-12914698D02*
X10466253Y-12905174D01*
X10466253Y-12905174D02*
X10513872Y-12905174D01*
X10513872Y-12905174D02*
X10532920Y-12914698D01*
X10532920Y-12914698D02*
X10542444Y-12924222D01*
X10542444Y-12924222D02*
X10551968Y-12943269D01*
X10551968Y-12943269D02*
X10551968Y-12990888D01*
X10551968Y-12990888D02*
X10542444Y-13009936D01*
X10542444Y-13009936D02*
X10532920Y-13019460D01*
X10532920Y-13019460D02*
X10513872Y-13028984D01*
X10513872Y-13028984D02*
X10466253Y-13028984D01*
X10466253Y-13028984D02*
X10447206Y-13019460D01*
X10447206Y-13019460D02*
X10437682Y-13009936D01*
X10618634Y-12828984D02*
X10751968Y-12828984D01*
X10751968Y-12828984D02*
X10666253Y-13028984D01*
X10818634Y-12828984D02*
X10818634Y-12867079D01*
X10894825Y-12828984D02*
X10894825Y-12867079D01*
X11190063Y-13105174D02*
X11180539Y-13095650D01*
X11180539Y-13095650D02*
X11161491Y-13067079D01*
X11161491Y-13067079D02*
X11151968Y-13048031D01*
X11151968Y-13048031D02*
X11142444Y-13019460D01*
X11142444Y-13019460D02*
X11132920Y-12971841D01*
X11132920Y-12971841D02*
X11132920Y-12933746D01*
X11132920Y-12933746D02*
X11142444Y-12886127D01*
X11142444Y-12886127D02*
X11151968Y-12857555D01*
X11151968Y-12857555D02*
X11161491Y-12838508D01*
X11161491Y-12838508D02*
X11180539Y-12809936D01*
X11180539Y-12809936D02*
X11190063Y-12800412D01*
X11247206Y-12828984D02*
X11371015Y-12828984D01*
X11371015Y-12828984D02*
X11304348Y-12905174D01*
X11304348Y-12905174D02*
X11332920Y-12905174D01*
X11332920Y-12905174D02*
X11351968Y-12914698D01*
X11351968Y-12914698D02*
X11361491Y-12924222D01*
X11361491Y-12924222D02*
X11371015Y-12943269D01*
X11371015Y-12943269D02*
X11371015Y-12990888D01*
X11371015Y-12990888D02*
X11361491Y-13009936D01*
X11361491Y-13009936D02*
X11351968Y-13019460D01*
X11351968Y-13019460D02*
X11332920Y-13028984D01*
X11332920Y-13028984D02*
X11275777Y-13028984D01*
X11275777Y-13028984D02*
X11256729Y-13019460D01*
X11256729Y-13019460D02*
X11247206Y-13009936D01*
X11437682Y-12828984D02*
X11561491Y-12828984D01*
X11561491Y-12828984D02*
X11494825Y-12905174D01*
X11494825Y-12905174D02*
X11523396Y-12905174D01*
X11523396Y-12905174D02*
X11542444Y-12914698D01*
X11542444Y-12914698D02*
X11551968Y-12924222D01*
X11551968Y-12924222D02*
X11561491Y-12943269D01*
X11561491Y-12943269D02*
X11561491Y-12990888D01*
X11561491Y-12990888D02*
X11551968Y-13009936D01*
X11551968Y-13009936D02*
X11542444Y-13019460D01*
X11542444Y-13019460D02*
X11523396Y-13028984D01*
X11523396Y-13028984D02*
X11466253Y-13028984D01*
X11466253Y-13028984D02*
X11447206Y-13019460D01*
X11447206Y-13019460D02*
X11437682Y-13009936D01*
X11751968Y-13028984D02*
X11637682Y-13028984D01*
X11694825Y-13028984D02*
X11694825Y-12828984D01*
X11694825Y-12828984D02*
X11675777Y-12857555D01*
X11675777Y-12857555D02*
X11656729Y-12876603D01*
X11656729Y-12876603D02*
X11637682Y-12886127D01*
X11990063Y-13028984D02*
X11990063Y-12828984D01*
X12075777Y-13028984D02*
X12075777Y-12924222D01*
X12075777Y-12924222D02*
X12066253Y-12905174D01*
X12066253Y-12905174D02*
X12047206Y-12895650D01*
X12047206Y-12895650D02*
X12018634Y-12895650D01*
X12018634Y-12895650D02*
X11999587Y-12905174D01*
X11999587Y-12905174D02*
X11990063Y-12914698D01*
X12199587Y-13028984D02*
X12180539Y-13019460D01*
X12180539Y-13019460D02*
X12171015Y-13009936D01*
X12171015Y-13009936D02*
X12161491Y-12990888D01*
X12161491Y-12990888D02*
X12161491Y-12933746D01*
X12161491Y-12933746D02*
X12171015Y-12914698D01*
X12171015Y-12914698D02*
X12180539Y-12905174D01*
X12180539Y-12905174D02*
X12199587Y-12895650D01*
X12199587Y-12895650D02*
X12228158Y-12895650D01*
X12228158Y-12895650D02*
X12247206Y-12905174D01*
X12247206Y-12905174D02*
X12256730Y-12914698D01*
X12256730Y-12914698D02*
X12266253Y-12933746D01*
X12266253Y-12933746D02*
X12266253Y-12990888D01*
X12266253Y-12990888D02*
X12256730Y-13009936D01*
X12256730Y-13009936D02*
X12247206Y-13019460D01*
X12247206Y-13019460D02*
X12228158Y-13028984D01*
X12228158Y-13028984D02*
X12199587Y-13028984D01*
X12380539Y-13028984D02*
X12361491Y-13019460D01*
X12361491Y-13019460D02*
X12351968Y-13000412D01*
X12351968Y-13000412D02*
X12351968Y-12828984D01*
X12532920Y-13019460D02*
X12513872Y-13028984D01*
X12513872Y-13028984D02*
X12475777Y-13028984D01*
X12475777Y-13028984D02*
X12456730Y-13019460D01*
X12456730Y-13019460D02*
X12447206Y-13000412D01*
X12447206Y-13000412D02*
X12447206Y-12924222D01*
X12447206Y-12924222D02*
X12456730Y-12905174D01*
X12456730Y-12905174D02*
X12475777Y-12895650D01*
X12475777Y-12895650D02*
X12513872Y-12895650D01*
X12513872Y-12895650D02*
X12532920Y-12905174D01*
X12532920Y-12905174D02*
X12542444Y-12924222D01*
X12542444Y-12924222D02*
X12542444Y-12943269D01*
X12542444Y-12943269D02*
X12447206Y-12962317D01*
X12618634Y-13019460D02*
X12637682Y-13028984D01*
X12637682Y-13028984D02*
X12675777Y-13028984D01*
X12675777Y-13028984D02*
X12694825Y-13019460D01*
X12694825Y-13019460D02*
X12704349Y-13000412D01*
X12704349Y-13000412D02*
X12704349Y-12990888D01*
X12704349Y-12990888D02*
X12694825Y-12971841D01*
X12694825Y-12971841D02*
X12675777Y-12962317D01*
X12675777Y-12962317D02*
X12647206Y-12962317D01*
X12647206Y-12962317D02*
X12628158Y-12952793D01*
X12628158Y-12952793D02*
X12618634Y-12933746D01*
X12618634Y-12933746D02*
X12618634Y-12924222D01*
X12618634Y-12924222D02*
X12628158Y-12905174D01*
X12628158Y-12905174D02*
X12647206Y-12895650D01*
X12647206Y-12895650D02*
X12675777Y-12895650D01*
X12675777Y-12895650D02*
X12694825Y-12905174D01*
X12771015Y-13105174D02*
X12780539Y-13095650D01*
X12780539Y-13095650D02*
X12799587Y-13067079D01*
X12799587Y-13067079D02*
X12809111Y-13048031D01*
X12809111Y-13048031D02*
X12818634Y-13019460D01*
X12818634Y-13019460D02*
X12828158Y-12971841D01*
X12828158Y-12971841D02*
X12828158Y-12933746D01*
X12828158Y-12933746D02*
X12818634Y-12886127D01*
X12818634Y-12886127D02*
X12809111Y-12857555D01*
X12809111Y-12857555D02*
X12799587Y-12838508D01*
X12799587Y-12838508D02*
X12780539Y-12809936D01*
X12780539Y-12809936D02*
X12771015Y-12800412D01*
D15*
X7606213Y-13222713D02*
X7606213Y-13180287D01*
X7563787Y-13180287D01*
X7563787Y-13222713D01*
X7606213Y-13222713D01*
D11*
X7913872Y-13092984D02*
X7932920Y-13092984D01*
X7932920Y-13092984D02*
X7951967Y-13102508D01*
X7951967Y-13102508D02*
X7961491Y-13112031D01*
X7961491Y-13112031D02*
X7971015Y-13131079D01*
X7971015Y-13131079D02*
X7980539Y-13169174D01*
X7980539Y-13169174D02*
X7980539Y-13216793D01*
X7980539Y-13216793D02*
X7971015Y-13254888D01*
X7971015Y-13254888D02*
X7961491Y-13273936D01*
X7961491Y-13273936D02*
X7951967Y-13283460D01*
X7951967Y-13283460D02*
X7932920Y-13292984D01*
X7932920Y-13292984D02*
X7913872Y-13292984D01*
X7913872Y-13292984D02*
X7894824Y-13283460D01*
X7894824Y-13283460D02*
X7885301Y-13273936D01*
X7885301Y-13273936D02*
X7875777Y-13254888D01*
X7875777Y-13254888D02*
X7866253Y-13216793D01*
X7866253Y-13216793D02*
X7866253Y-13169174D01*
X7866253Y-13169174D02*
X7875777Y-13131079D01*
X7875777Y-13131079D02*
X7885301Y-13112031D01*
X7885301Y-13112031D02*
X7894824Y-13102508D01*
X7894824Y-13102508D02*
X7913872Y-13092984D01*
X8066253Y-13273936D02*
X8075777Y-13283460D01*
X8075777Y-13283460D02*
X8066253Y-13292984D01*
X8066253Y-13292984D02*
X8056729Y-13283460D01*
X8056729Y-13283460D02*
X8066253Y-13273936D01*
X8066253Y-13273936D02*
X8066253Y-13292984D01*
X8247205Y-13092984D02*
X8209110Y-13092984D01*
X8209110Y-13092984D02*
X8190062Y-13102508D01*
X8190062Y-13102508D02*
X8180539Y-13112031D01*
X8180539Y-13112031D02*
X8161491Y-13140603D01*
X8161491Y-13140603D02*
X8151967Y-13178698D01*
X8151967Y-13178698D02*
X8151967Y-13254888D01*
X8151967Y-13254888D02*
X8161491Y-13273936D01*
X8161491Y-13273936D02*
X8171015Y-13283460D01*
X8171015Y-13283460D02*
X8190062Y-13292984D01*
X8190062Y-13292984D02*
X8228158Y-13292984D01*
X8228158Y-13292984D02*
X8247205Y-13283460D01*
X8247205Y-13283460D02*
X8256729Y-13273936D01*
X8256729Y-13273936D02*
X8266253Y-13254888D01*
X8266253Y-13254888D02*
X8266253Y-13207269D01*
X8266253Y-13207269D02*
X8256729Y-13188222D01*
X8256729Y-13188222D02*
X8247205Y-13178698D01*
X8247205Y-13178698D02*
X8228158Y-13169174D01*
X8228158Y-13169174D02*
X8190062Y-13169174D01*
X8190062Y-13169174D02*
X8171015Y-13178698D01*
X8171015Y-13178698D02*
X8161491Y-13188222D01*
X8161491Y-13188222D02*
X8151967Y-13207269D01*
X8390063Y-13092984D02*
X8409110Y-13092984D01*
X8409110Y-13092984D02*
X8428158Y-13102508D01*
X8428158Y-13102508D02*
X8437682Y-13112031D01*
X8437682Y-13112031D02*
X8447205Y-13131079D01*
X8447205Y-13131079D02*
X8456729Y-13169174D01*
X8456729Y-13169174D02*
X8456729Y-13216793D01*
X8456729Y-13216793D02*
X8447205Y-13254888D01*
X8447205Y-13254888D02*
X8437682Y-13273936D01*
X8437682Y-13273936D02*
X8428158Y-13283460D01*
X8428158Y-13283460D02*
X8409110Y-13292984D01*
X8409110Y-13292984D02*
X8390063Y-13292984D01*
X8390063Y-13292984D02*
X8371015Y-13283460D01*
X8371015Y-13283460D02*
X8361491Y-13273936D01*
X8361491Y-13273936D02*
X8351967Y-13254888D01*
X8351967Y-13254888D02*
X8342443Y-13216793D01*
X8342443Y-13216793D02*
X8342443Y-13169174D01*
X8342443Y-13169174D02*
X8351967Y-13131079D01*
X8351967Y-13131079D02*
X8361491Y-13112031D01*
X8361491Y-13112031D02*
X8371015Y-13102508D01*
X8371015Y-13102508D02*
X8390063Y-13092984D01*
X8580539Y-13092984D02*
X8599586Y-13092984D01*
X8599586Y-13092984D02*
X8618634Y-13102508D01*
X8618634Y-13102508D02*
X8628158Y-13112031D01*
X8628158Y-13112031D02*
X8637682Y-13131079D01*
X8637682Y-13131079D02*
X8647205Y-13169174D01*
X8647205Y-13169174D02*
X8647205Y-13216793D01*
X8647205Y-13216793D02*
X8637682Y-13254888D01*
X8637682Y-13254888D02*
X8628158Y-13273936D01*
X8628158Y-13273936D02*
X8618634Y-13283460D01*
X8618634Y-13283460D02*
X8599586Y-13292984D01*
X8599586Y-13292984D02*
X8580539Y-13292984D01*
X8580539Y-13292984D02*
X8561491Y-13283460D01*
X8561491Y-13283460D02*
X8551967Y-13273936D01*
X8551967Y-13273936D02*
X8542444Y-13254888D01*
X8542444Y-13254888D02*
X8532920Y-13216793D01*
X8532920Y-13216793D02*
X8532920Y-13169174D01*
X8532920Y-13169174D02*
X8542444Y-13131079D01*
X8542444Y-13131079D02*
X8551967Y-13112031D01*
X8551967Y-13112031D02*
X8561491Y-13102508D01*
X8561491Y-13102508D02*
X8580539Y-13092984D01*
X8732920Y-13292984D02*
X8732920Y-13159650D01*
X8732920Y-13178698D02*
X8742444Y-13169174D01*
X8742444Y-13169174D02*
X8761491Y-13159650D01*
X8761491Y-13159650D02*
X8790063Y-13159650D01*
X8790063Y-13159650D02*
X8809110Y-13169174D01*
X8809110Y-13169174D02*
X8818634Y-13188222D01*
X8818634Y-13188222D02*
X8818634Y-13292984D01*
X8818634Y-13188222D02*
X8828158Y-13169174D01*
X8828158Y-13169174D02*
X8847205Y-13159650D01*
X8847205Y-13159650D02*
X8875777Y-13159650D01*
X8875777Y-13159650D02*
X8894825Y-13169174D01*
X8894825Y-13169174D02*
X8904348Y-13188222D01*
X8904348Y-13188222D02*
X8904348Y-13292984D01*
X8999586Y-13292984D02*
X8999586Y-13159650D01*
X8999586Y-13178698D02*
X9009110Y-13169174D01*
X9009110Y-13169174D02*
X9028158Y-13159650D01*
X9028158Y-13159650D02*
X9056729Y-13159650D01*
X9056729Y-13159650D02*
X9075777Y-13169174D01*
X9075777Y-13169174D02*
X9085301Y-13188222D01*
X9085301Y-13188222D02*
X9085301Y-13292984D01*
X9085301Y-13188222D02*
X9094825Y-13169174D01*
X9094825Y-13169174D02*
X9113872Y-13159650D01*
X9113872Y-13159650D02*
X9142444Y-13159650D01*
X9142444Y-13159650D02*
X9161491Y-13169174D01*
X9161491Y-13169174D02*
X9171015Y-13188222D01*
X9171015Y-13188222D02*
X9171015Y-13292984D01*
X9561491Y-13083460D02*
X9390063Y-13340603D01*
X9818634Y-13092984D02*
X9837682Y-13092984D01*
X9837682Y-13092984D02*
X9856729Y-13102508D01*
X9856729Y-13102508D02*
X9866253Y-13112031D01*
X9866253Y-13112031D02*
X9875777Y-13131079D01*
X9875777Y-13131079D02*
X9885301Y-13169174D01*
X9885301Y-13169174D02*
X9885301Y-13216793D01*
X9885301Y-13216793D02*
X9875777Y-13254888D01*
X9875777Y-13254888D02*
X9866253Y-13273936D01*
X9866253Y-13273936D02*
X9856729Y-13283460D01*
X9856729Y-13283460D02*
X9837682Y-13292984D01*
X9837682Y-13292984D02*
X9818634Y-13292984D01*
X9818634Y-13292984D02*
X9799587Y-13283460D01*
X9799587Y-13283460D02*
X9790063Y-13273936D01*
X9790063Y-13273936D02*
X9780539Y-13254888D01*
X9780539Y-13254888D02*
X9771015Y-13216793D01*
X9771015Y-13216793D02*
X9771015Y-13169174D01*
X9771015Y-13169174D02*
X9780539Y-13131079D01*
X9780539Y-13131079D02*
X9790063Y-13112031D01*
X9790063Y-13112031D02*
X9799587Y-13102508D01*
X9799587Y-13102508D02*
X9818634Y-13092984D01*
X9971015Y-13273936D02*
X9980539Y-13283460D01*
X9980539Y-13283460D02*
X9971015Y-13292984D01*
X9971015Y-13292984D02*
X9961491Y-13283460D01*
X9961491Y-13283460D02*
X9971015Y-13273936D01*
X9971015Y-13273936D02*
X9971015Y-13292984D01*
X10104348Y-13092984D02*
X10123396Y-13092984D01*
X10123396Y-13092984D02*
X10142444Y-13102508D01*
X10142444Y-13102508D02*
X10151968Y-13112031D01*
X10151968Y-13112031D02*
X10161491Y-13131079D01*
X10161491Y-13131079D02*
X10171015Y-13169174D01*
X10171015Y-13169174D02*
X10171015Y-13216793D01*
X10171015Y-13216793D02*
X10161491Y-13254888D01*
X10161491Y-13254888D02*
X10151968Y-13273936D01*
X10151968Y-13273936D02*
X10142444Y-13283460D01*
X10142444Y-13283460D02*
X10123396Y-13292984D01*
X10123396Y-13292984D02*
X10104348Y-13292984D01*
X10104348Y-13292984D02*
X10085301Y-13283460D01*
X10085301Y-13283460D02*
X10075777Y-13273936D01*
X10075777Y-13273936D02*
X10066253Y-13254888D01*
X10066253Y-13254888D02*
X10056729Y-13216793D01*
X10056729Y-13216793D02*
X10056729Y-13169174D01*
X10056729Y-13169174D02*
X10066253Y-13131079D01*
X10066253Y-13131079D02*
X10075777Y-13112031D01*
X10075777Y-13112031D02*
X10085301Y-13102508D01*
X10085301Y-13102508D02*
X10104348Y-13092984D01*
X10247206Y-13112031D02*
X10256729Y-13102508D01*
X10256729Y-13102508D02*
X10275777Y-13092984D01*
X10275777Y-13092984D02*
X10323396Y-13092984D01*
X10323396Y-13092984D02*
X10342444Y-13102508D01*
X10342444Y-13102508D02*
X10351968Y-13112031D01*
X10351968Y-13112031D02*
X10361491Y-13131079D01*
X10361491Y-13131079D02*
X10361491Y-13150127D01*
X10361491Y-13150127D02*
X10351968Y-13178698D01*
X10351968Y-13178698D02*
X10237682Y-13292984D01*
X10237682Y-13292984D02*
X10361491Y-13292984D01*
X10428158Y-13092984D02*
X10551968Y-13092984D01*
X10551968Y-13092984D02*
X10485301Y-13169174D01*
X10485301Y-13169174D02*
X10513872Y-13169174D01*
X10513872Y-13169174D02*
X10532920Y-13178698D01*
X10532920Y-13178698D02*
X10542444Y-13188222D01*
X10542444Y-13188222D02*
X10551968Y-13207269D01*
X10551968Y-13207269D02*
X10551968Y-13254888D01*
X10551968Y-13254888D02*
X10542444Y-13273936D01*
X10542444Y-13273936D02*
X10532920Y-13283460D01*
X10532920Y-13283460D02*
X10513872Y-13292984D01*
X10513872Y-13292984D02*
X10456729Y-13292984D01*
X10456729Y-13292984D02*
X10437682Y-13283460D01*
X10437682Y-13283460D02*
X10428158Y-13273936D01*
X10723396Y-13092984D02*
X10685301Y-13092984D01*
X10685301Y-13092984D02*
X10666253Y-13102508D01*
X10666253Y-13102508D02*
X10656729Y-13112031D01*
X10656729Y-13112031D02*
X10637682Y-13140603D01*
X10637682Y-13140603D02*
X10628158Y-13178698D01*
X10628158Y-13178698D02*
X10628158Y-13254888D01*
X10628158Y-13254888D02*
X10637682Y-13273936D01*
X10637682Y-13273936D02*
X10647206Y-13283460D01*
X10647206Y-13283460D02*
X10666253Y-13292984D01*
X10666253Y-13292984D02*
X10704349Y-13292984D01*
X10704349Y-13292984D02*
X10723396Y-13283460D01*
X10723396Y-13283460D02*
X10732920Y-13273936D01*
X10732920Y-13273936D02*
X10742444Y-13254888D01*
X10742444Y-13254888D02*
X10742444Y-13207269D01*
X10742444Y-13207269D02*
X10732920Y-13188222D01*
X10732920Y-13188222D02*
X10723396Y-13178698D01*
X10723396Y-13178698D02*
X10704349Y-13169174D01*
X10704349Y-13169174D02*
X10666253Y-13169174D01*
X10666253Y-13169174D02*
X10647206Y-13178698D01*
X10647206Y-13178698D02*
X10637682Y-13188222D01*
X10637682Y-13188222D02*
X10628158Y-13207269D01*
X10818634Y-13092984D02*
X10818634Y-13131079D01*
X10894825Y-13092984D02*
X10894825Y-13131079D01*
X11190063Y-13369174D02*
X11180539Y-13359650D01*
X11180539Y-13359650D02*
X11161491Y-13331079D01*
X11161491Y-13331079D02*
X11151968Y-13312031D01*
X11151968Y-13312031D02*
X11142444Y-13283460D01*
X11142444Y-13283460D02*
X11132920Y-13235841D01*
X11132920Y-13235841D02*
X11132920Y-13197746D01*
X11132920Y-13197746D02*
X11142444Y-13150127D01*
X11142444Y-13150127D02*
X11151968Y-13121555D01*
X11151968Y-13121555D02*
X11161491Y-13102508D01*
X11161491Y-13102508D02*
X11180539Y-13073936D01*
X11180539Y-13073936D02*
X11190063Y-13064412D01*
X11304348Y-13092984D02*
X11323396Y-13092984D01*
X11323396Y-13092984D02*
X11342444Y-13102508D01*
X11342444Y-13102508D02*
X11351968Y-13112031D01*
X11351968Y-13112031D02*
X11361491Y-13131079D01*
X11361491Y-13131079D02*
X11371015Y-13169174D01*
X11371015Y-13169174D02*
X11371015Y-13216793D01*
X11371015Y-13216793D02*
X11361491Y-13254888D01*
X11361491Y-13254888D02*
X11351968Y-13273936D01*
X11351968Y-13273936D02*
X11342444Y-13283460D01*
X11342444Y-13283460D02*
X11323396Y-13292984D01*
X11323396Y-13292984D02*
X11304348Y-13292984D01*
X11304348Y-13292984D02*
X11285301Y-13283460D01*
X11285301Y-13283460D02*
X11275777Y-13273936D01*
X11275777Y-13273936D02*
X11266253Y-13254888D01*
X11266253Y-13254888D02*
X11256729Y-13216793D01*
X11256729Y-13216793D02*
X11256729Y-13169174D01*
X11256729Y-13169174D02*
X11266253Y-13131079D01*
X11266253Y-13131079D02*
X11275777Y-13112031D01*
X11275777Y-13112031D02*
X11285301Y-13102508D01*
X11285301Y-13102508D02*
X11304348Y-13092984D01*
X11609110Y-13292984D02*
X11609110Y-13092984D01*
X11694825Y-13292984D02*
X11694825Y-13188222D01*
X11694825Y-13188222D02*
X11685301Y-13169174D01*
X11685301Y-13169174D02*
X11666253Y-13159650D01*
X11666253Y-13159650D02*
X11637682Y-13159650D01*
X11637682Y-13159650D02*
X11618634Y-13169174D01*
X11618634Y-13169174D02*
X11609110Y-13178698D01*
X11818634Y-13292984D02*
X11799587Y-13283460D01*
X11799587Y-13283460D02*
X11790063Y-13273936D01*
X11790063Y-13273936D02*
X11780539Y-13254888D01*
X11780539Y-13254888D02*
X11780539Y-13197746D01*
X11780539Y-13197746D02*
X11790063Y-13178698D01*
X11790063Y-13178698D02*
X11799587Y-13169174D01*
X11799587Y-13169174D02*
X11818634Y-13159650D01*
X11818634Y-13159650D02*
X11847206Y-13159650D01*
X11847206Y-13159650D02*
X11866253Y-13169174D01*
X11866253Y-13169174D02*
X11875777Y-13178698D01*
X11875777Y-13178698D02*
X11885301Y-13197746D01*
X11885301Y-13197746D02*
X11885301Y-13254888D01*
X11885301Y-13254888D02*
X11875777Y-13273936D01*
X11875777Y-13273936D02*
X11866253Y-13283460D01*
X11866253Y-13283460D02*
X11847206Y-13292984D01*
X11847206Y-13292984D02*
X11818634Y-13292984D01*
X11999587Y-13292984D02*
X11980539Y-13283460D01*
X11980539Y-13283460D02*
X11971015Y-13264412D01*
X11971015Y-13264412D02*
X11971015Y-13092984D01*
X12151968Y-13283460D02*
X12132920Y-13292984D01*
X12132920Y-13292984D02*
X12094825Y-13292984D01*
X12094825Y-13292984D02*
X12075777Y-13283460D01*
X12075777Y-13283460D02*
X12066253Y-13264412D01*
X12066253Y-13264412D02*
X12066253Y-13188222D01*
X12066253Y-13188222D02*
X12075777Y-13169174D01*
X12075777Y-13169174D02*
X12094825Y-13159650D01*
X12094825Y-13159650D02*
X12132920Y-13159650D01*
X12132920Y-13159650D02*
X12151968Y-13169174D01*
X12151968Y-13169174D02*
X12161491Y-13188222D01*
X12161491Y-13188222D02*
X12161491Y-13207269D01*
X12161491Y-13207269D02*
X12066253Y-13226317D01*
X12237682Y-13283460D02*
X12256730Y-13292984D01*
X12256730Y-13292984D02*
X12294825Y-13292984D01*
X12294825Y-13292984D02*
X12313872Y-13283460D01*
X12313872Y-13283460D02*
X12323396Y-13264412D01*
X12323396Y-13264412D02*
X12323396Y-13254888D01*
X12323396Y-13254888D02*
X12313872Y-13235841D01*
X12313872Y-13235841D02*
X12294825Y-13226317D01*
X12294825Y-13226317D02*
X12266253Y-13226317D01*
X12266253Y-13226317D02*
X12247206Y-13216793D01*
X12247206Y-13216793D02*
X12237682Y-13197746D01*
X12237682Y-13197746D02*
X12237682Y-13188222D01*
X12237682Y-13188222D02*
X12247206Y-13169174D01*
X12247206Y-13169174D02*
X12266253Y-13159650D01*
X12266253Y-13159650D02*
X12294825Y-13159650D01*
X12294825Y-13159650D02*
X12313872Y-13169174D01*
X12561492Y-13216793D02*
X12713873Y-13216793D01*
X12637682Y-13292984D02*
X12637682Y-13140603D01*
X13047206Y-13159650D02*
X13047206Y-13292984D01*
X12999587Y-13083460D02*
X12951968Y-13226317D01*
X12951968Y-13226317D02*
X13075777Y-13226317D01*
X13294825Y-13283460D02*
X13313873Y-13292984D01*
X13313873Y-13292984D02*
X13351968Y-13292984D01*
X13351968Y-13292984D02*
X13371015Y-13283460D01*
X13371015Y-13283460D02*
X13380539Y-13264412D01*
X13380539Y-13264412D02*
X13380539Y-13254888D01*
X13380539Y-13254888D02*
X13371015Y-13235841D01*
X13371015Y-13235841D02*
X13351968Y-13226317D01*
X13351968Y-13226317D02*
X13323396Y-13226317D01*
X13323396Y-13226317D02*
X13304349Y-13216793D01*
X13304349Y-13216793D02*
X13294825Y-13197746D01*
X13294825Y-13197746D02*
X13294825Y-13188222D01*
X13294825Y-13188222D02*
X13304349Y-13169174D01*
X13304349Y-13169174D02*
X13323396Y-13159650D01*
X13323396Y-13159650D02*
X13351968Y-13159650D01*
X13351968Y-13159650D02*
X13371015Y-13169174D01*
X13494825Y-13292984D02*
X13475777Y-13283460D01*
X13475777Y-13283460D02*
X13466254Y-13264412D01*
X13466254Y-13264412D02*
X13466254Y-13092984D01*
X13599587Y-13292984D02*
X13580539Y-13283460D01*
X13580539Y-13283460D02*
X13571015Y-13273936D01*
X13571015Y-13273936D02*
X13561492Y-13254888D01*
X13561492Y-13254888D02*
X13561492Y-13197746D01*
X13561492Y-13197746D02*
X13571015Y-13178698D01*
X13571015Y-13178698D02*
X13580539Y-13169174D01*
X13580539Y-13169174D02*
X13599587Y-13159650D01*
X13599587Y-13159650D02*
X13628158Y-13159650D01*
X13628158Y-13159650D02*
X13647206Y-13169174D01*
X13647206Y-13169174D02*
X13656730Y-13178698D01*
X13656730Y-13178698D02*
X13666254Y-13197746D01*
X13666254Y-13197746D02*
X13666254Y-13254888D01*
X13666254Y-13254888D02*
X13656730Y-13273936D01*
X13656730Y-13273936D02*
X13647206Y-13283460D01*
X13647206Y-13283460D02*
X13628158Y-13292984D01*
X13628158Y-13292984D02*
X13599587Y-13292984D01*
X13723396Y-13159650D02*
X13799587Y-13159650D01*
X13751968Y-13092984D02*
X13751968Y-13264412D01*
X13751968Y-13264412D02*
X13761492Y-13283460D01*
X13761492Y-13283460D02*
X13780539Y-13292984D01*
X13780539Y-13292984D02*
X13799587Y-13292984D01*
X13856730Y-13283460D02*
X13875777Y-13292984D01*
X13875777Y-13292984D02*
X13913873Y-13292984D01*
X13913873Y-13292984D02*
X13932920Y-13283460D01*
X13932920Y-13283460D02*
X13942444Y-13264412D01*
X13942444Y-13264412D02*
X13942444Y-13254888D01*
X13942444Y-13254888D02*
X13932920Y-13235841D01*
X13932920Y-13235841D02*
X13913873Y-13226317D01*
X13913873Y-13226317D02*
X13885301Y-13226317D01*
X13885301Y-13226317D02*
X13866254Y-13216793D01*
X13866254Y-13216793D02*
X13856730Y-13197746D01*
X13856730Y-13197746D02*
X13856730Y-13188222D01*
X13856730Y-13188222D02*
X13866254Y-13169174D01*
X13866254Y-13169174D02*
X13885301Y-13159650D01*
X13885301Y-13159650D02*
X13913873Y-13159650D01*
X13913873Y-13159650D02*
X13932920Y-13169174D01*
X14009111Y-13369174D02*
X14018635Y-13359650D01*
X14018635Y-13359650D02*
X14037682Y-13331079D01*
X14037682Y-13331079D02*
X14047206Y-13312031D01*
X14047206Y-13312031D02*
X14056730Y-13283460D01*
X14056730Y-13283460D02*
X14066254Y-13235841D01*
X14066254Y-13235841D02*
X14066254Y-13197746D01*
X14066254Y-13197746D02*
X14056730Y-13150127D01*
X14056730Y-13150127D02*
X14047206Y-13121555D01*
X14047206Y-13121555D02*
X14037682Y-13102508D01*
X14037682Y-13102508D02*
X14018635Y-13073936D01*
X14018635Y-13073936D02*
X14009111Y-13064412D01*
D10*
X7565000Y-13515500D02*
X7615000Y-13465500D01*
X7565000Y-13415500D01*
X7515000Y-13465500D01*
X7565000Y-13515500D01*
D11*
X7980539Y-13556984D02*
X7866253Y-13556984D01*
X7923396Y-13556984D02*
X7923396Y-13356984D01*
X7923396Y-13356984D02*
X7904348Y-13385555D01*
X7904348Y-13385555D02*
X7885301Y-13404603D01*
X7885301Y-13404603D02*
X7866253Y-13414127D01*
X8066253Y-13537936D02*
X8075777Y-13547460D01*
X8075777Y-13547460D02*
X8066253Y-13556984D01*
X8066253Y-13556984D02*
X8056729Y-13547460D01*
X8056729Y-13547460D02*
X8066253Y-13537936D01*
X8066253Y-13537936D02*
X8066253Y-13556984D01*
X8199586Y-13356984D02*
X8218634Y-13356984D01*
X8218634Y-13356984D02*
X8237682Y-13366508D01*
X8237682Y-13366508D02*
X8247205Y-13376031D01*
X8247205Y-13376031D02*
X8256729Y-13395079D01*
X8256729Y-13395079D02*
X8266253Y-13433174D01*
X8266253Y-13433174D02*
X8266253Y-13480793D01*
X8266253Y-13480793D02*
X8256729Y-13518888D01*
X8256729Y-13518888D02*
X8247205Y-13537936D01*
X8247205Y-13537936D02*
X8237682Y-13547460D01*
X8237682Y-13547460D02*
X8218634Y-13556984D01*
X8218634Y-13556984D02*
X8199586Y-13556984D01*
X8199586Y-13556984D02*
X8180539Y-13547460D01*
X8180539Y-13547460D02*
X8171015Y-13537936D01*
X8171015Y-13537936D02*
X8161491Y-13518888D01*
X8161491Y-13518888D02*
X8151967Y-13480793D01*
X8151967Y-13480793D02*
X8151967Y-13433174D01*
X8151967Y-13433174D02*
X8161491Y-13395079D01*
X8161491Y-13395079D02*
X8171015Y-13376031D01*
X8171015Y-13376031D02*
X8180539Y-13366508D01*
X8180539Y-13366508D02*
X8199586Y-13356984D01*
X8390063Y-13356984D02*
X8409110Y-13356984D01*
X8409110Y-13356984D02*
X8428158Y-13366508D01*
X8428158Y-13366508D02*
X8437682Y-13376031D01*
X8437682Y-13376031D02*
X8447205Y-13395079D01*
X8447205Y-13395079D02*
X8456729Y-13433174D01*
X8456729Y-13433174D02*
X8456729Y-13480793D01*
X8456729Y-13480793D02*
X8447205Y-13518888D01*
X8447205Y-13518888D02*
X8437682Y-13537936D01*
X8437682Y-13537936D02*
X8428158Y-13547460D01*
X8428158Y-13547460D02*
X8409110Y-13556984D01*
X8409110Y-13556984D02*
X8390063Y-13556984D01*
X8390063Y-13556984D02*
X8371015Y-13547460D01*
X8371015Y-13547460D02*
X8361491Y-13537936D01*
X8361491Y-13537936D02*
X8351967Y-13518888D01*
X8351967Y-13518888D02*
X8342443Y-13480793D01*
X8342443Y-13480793D02*
X8342443Y-13433174D01*
X8342443Y-13433174D02*
X8351967Y-13395079D01*
X8351967Y-13395079D02*
X8361491Y-13376031D01*
X8361491Y-13376031D02*
X8371015Y-13366508D01*
X8371015Y-13366508D02*
X8390063Y-13356984D01*
X8580539Y-13356984D02*
X8599586Y-13356984D01*
X8599586Y-13356984D02*
X8618634Y-13366508D01*
X8618634Y-13366508D02*
X8628158Y-13376031D01*
X8628158Y-13376031D02*
X8637682Y-13395079D01*
X8637682Y-13395079D02*
X8647205Y-13433174D01*
X8647205Y-13433174D02*
X8647205Y-13480793D01*
X8647205Y-13480793D02*
X8637682Y-13518888D01*
X8637682Y-13518888D02*
X8628158Y-13537936D01*
X8628158Y-13537936D02*
X8618634Y-13547460D01*
X8618634Y-13547460D02*
X8599586Y-13556984D01*
X8599586Y-13556984D02*
X8580539Y-13556984D01*
X8580539Y-13556984D02*
X8561491Y-13547460D01*
X8561491Y-13547460D02*
X8551967Y-13537936D01*
X8551967Y-13537936D02*
X8542444Y-13518888D01*
X8542444Y-13518888D02*
X8532920Y-13480793D01*
X8532920Y-13480793D02*
X8532920Y-13433174D01*
X8532920Y-13433174D02*
X8542444Y-13395079D01*
X8542444Y-13395079D02*
X8551967Y-13376031D01*
X8551967Y-13376031D02*
X8561491Y-13366508D01*
X8561491Y-13366508D02*
X8580539Y-13356984D01*
X8732920Y-13556984D02*
X8732920Y-13423650D01*
X8732920Y-13442698D02*
X8742444Y-13433174D01*
X8742444Y-13433174D02*
X8761491Y-13423650D01*
X8761491Y-13423650D02*
X8790063Y-13423650D01*
X8790063Y-13423650D02*
X8809110Y-13433174D01*
X8809110Y-13433174D02*
X8818634Y-13452222D01*
X8818634Y-13452222D02*
X8818634Y-13556984D01*
X8818634Y-13452222D02*
X8828158Y-13433174D01*
X8828158Y-13433174D02*
X8847205Y-13423650D01*
X8847205Y-13423650D02*
X8875777Y-13423650D01*
X8875777Y-13423650D02*
X8894825Y-13433174D01*
X8894825Y-13433174D02*
X8904348Y-13452222D01*
X8904348Y-13452222D02*
X8904348Y-13556984D01*
X8999586Y-13556984D02*
X8999586Y-13423650D01*
X8999586Y-13442698D02*
X9009110Y-13433174D01*
X9009110Y-13433174D02*
X9028158Y-13423650D01*
X9028158Y-13423650D02*
X9056729Y-13423650D01*
X9056729Y-13423650D02*
X9075777Y-13433174D01*
X9075777Y-13433174D02*
X9085301Y-13452222D01*
X9085301Y-13452222D02*
X9085301Y-13556984D01*
X9085301Y-13452222D02*
X9094825Y-13433174D01*
X9094825Y-13433174D02*
X9113872Y-13423650D01*
X9113872Y-13423650D02*
X9142444Y-13423650D01*
X9142444Y-13423650D02*
X9161491Y-13433174D01*
X9161491Y-13433174D02*
X9171015Y-13452222D01*
X9171015Y-13452222D02*
X9171015Y-13556984D01*
X9561491Y-13347460D02*
X9390063Y-13604603D01*
X9818634Y-13356984D02*
X9837682Y-13356984D01*
X9837682Y-13356984D02*
X9856729Y-13366508D01*
X9856729Y-13366508D02*
X9866253Y-13376031D01*
X9866253Y-13376031D02*
X9875777Y-13395079D01*
X9875777Y-13395079D02*
X9885301Y-13433174D01*
X9885301Y-13433174D02*
X9885301Y-13480793D01*
X9885301Y-13480793D02*
X9875777Y-13518888D01*
X9875777Y-13518888D02*
X9866253Y-13537936D01*
X9866253Y-13537936D02*
X9856729Y-13547460D01*
X9856729Y-13547460D02*
X9837682Y-13556984D01*
X9837682Y-13556984D02*
X9818634Y-13556984D01*
X9818634Y-13556984D02*
X9799587Y-13547460D01*
X9799587Y-13547460D02*
X9790063Y-13537936D01*
X9790063Y-13537936D02*
X9780539Y-13518888D01*
X9780539Y-13518888D02*
X9771015Y-13480793D01*
X9771015Y-13480793D02*
X9771015Y-13433174D01*
X9771015Y-13433174D02*
X9780539Y-13395079D01*
X9780539Y-13395079D02*
X9790063Y-13376031D01*
X9790063Y-13376031D02*
X9799587Y-13366508D01*
X9799587Y-13366508D02*
X9818634Y-13356984D01*
X9971015Y-13537936D02*
X9980539Y-13547460D01*
X9980539Y-13547460D02*
X9971015Y-13556984D01*
X9971015Y-13556984D02*
X9961491Y-13547460D01*
X9961491Y-13547460D02*
X9971015Y-13537936D01*
X9971015Y-13537936D02*
X9971015Y-13556984D01*
X10104348Y-13356984D02*
X10123396Y-13356984D01*
X10123396Y-13356984D02*
X10142444Y-13366508D01*
X10142444Y-13366508D02*
X10151968Y-13376031D01*
X10151968Y-13376031D02*
X10161491Y-13395079D01*
X10161491Y-13395079D02*
X10171015Y-13433174D01*
X10171015Y-13433174D02*
X10171015Y-13480793D01*
X10171015Y-13480793D02*
X10161491Y-13518888D01*
X10161491Y-13518888D02*
X10151968Y-13537936D01*
X10151968Y-13537936D02*
X10142444Y-13547460D01*
X10142444Y-13547460D02*
X10123396Y-13556984D01*
X10123396Y-13556984D02*
X10104348Y-13556984D01*
X10104348Y-13556984D02*
X10085301Y-13547460D01*
X10085301Y-13547460D02*
X10075777Y-13537936D01*
X10075777Y-13537936D02*
X10066253Y-13518888D01*
X10066253Y-13518888D02*
X10056729Y-13480793D01*
X10056729Y-13480793D02*
X10056729Y-13433174D01*
X10056729Y-13433174D02*
X10066253Y-13395079D01*
X10066253Y-13395079D02*
X10075777Y-13376031D01*
X10075777Y-13376031D02*
X10085301Y-13366508D01*
X10085301Y-13366508D02*
X10104348Y-13356984D01*
X10237682Y-13356984D02*
X10361491Y-13356984D01*
X10361491Y-13356984D02*
X10294825Y-13433174D01*
X10294825Y-13433174D02*
X10323396Y-13433174D01*
X10323396Y-13433174D02*
X10342444Y-13442698D01*
X10342444Y-13442698D02*
X10351968Y-13452222D01*
X10351968Y-13452222D02*
X10361491Y-13471269D01*
X10361491Y-13471269D02*
X10361491Y-13518888D01*
X10361491Y-13518888D02*
X10351968Y-13537936D01*
X10351968Y-13537936D02*
X10342444Y-13547460D01*
X10342444Y-13547460D02*
X10323396Y-13556984D01*
X10323396Y-13556984D02*
X10266253Y-13556984D01*
X10266253Y-13556984D02*
X10247206Y-13547460D01*
X10247206Y-13547460D02*
X10237682Y-13537936D01*
X10456729Y-13556984D02*
X10494825Y-13556984D01*
X10494825Y-13556984D02*
X10513872Y-13547460D01*
X10513872Y-13547460D02*
X10523396Y-13537936D01*
X10523396Y-13537936D02*
X10542444Y-13509365D01*
X10542444Y-13509365D02*
X10551968Y-13471269D01*
X10551968Y-13471269D02*
X10551968Y-13395079D01*
X10551968Y-13395079D02*
X10542444Y-13376031D01*
X10542444Y-13376031D02*
X10532920Y-13366508D01*
X10532920Y-13366508D02*
X10513872Y-13356984D01*
X10513872Y-13356984D02*
X10475777Y-13356984D01*
X10475777Y-13356984D02*
X10456729Y-13366508D01*
X10456729Y-13366508D02*
X10447206Y-13376031D01*
X10447206Y-13376031D02*
X10437682Y-13395079D01*
X10437682Y-13395079D02*
X10437682Y-13442698D01*
X10437682Y-13442698D02*
X10447206Y-13461746D01*
X10447206Y-13461746D02*
X10456729Y-13471269D01*
X10456729Y-13471269D02*
X10475777Y-13480793D01*
X10475777Y-13480793D02*
X10513872Y-13480793D01*
X10513872Y-13480793D02*
X10532920Y-13471269D01*
X10532920Y-13471269D02*
X10542444Y-13461746D01*
X10542444Y-13461746D02*
X10551968Y-13442698D01*
X10723396Y-13423650D02*
X10723396Y-13556984D01*
X10675777Y-13347460D02*
X10628158Y-13490317D01*
X10628158Y-13490317D02*
X10751968Y-13490317D01*
X10818634Y-13356984D02*
X10818634Y-13395079D01*
X10894825Y-13356984D02*
X10894825Y-13395079D01*
X11190063Y-13633174D02*
X11180539Y-13623650D01*
X11180539Y-13623650D02*
X11161491Y-13595079D01*
X11161491Y-13595079D02*
X11151968Y-13576031D01*
X11151968Y-13576031D02*
X11142444Y-13547460D01*
X11142444Y-13547460D02*
X11132920Y-13499841D01*
X11132920Y-13499841D02*
X11132920Y-13461746D01*
X11132920Y-13461746D02*
X11142444Y-13414127D01*
X11142444Y-13414127D02*
X11151968Y-13385555D01*
X11151968Y-13385555D02*
X11161491Y-13366508D01*
X11161491Y-13366508D02*
X11180539Y-13337936D01*
X11180539Y-13337936D02*
X11190063Y-13328412D01*
X11371015Y-13556984D02*
X11256729Y-13556984D01*
X11313872Y-13556984D02*
X11313872Y-13356984D01*
X11313872Y-13356984D02*
X11294825Y-13385555D01*
X11294825Y-13385555D02*
X11275777Y-13404603D01*
X11275777Y-13404603D02*
X11256729Y-13414127D01*
X11447206Y-13376031D02*
X11456729Y-13366508D01*
X11456729Y-13366508D02*
X11475777Y-13356984D01*
X11475777Y-13356984D02*
X11523396Y-13356984D01*
X11523396Y-13356984D02*
X11542444Y-13366508D01*
X11542444Y-13366508D02*
X11551968Y-13376031D01*
X11551968Y-13376031D02*
X11561491Y-13395079D01*
X11561491Y-13395079D02*
X11561491Y-13414127D01*
X11561491Y-13414127D02*
X11551968Y-13442698D01*
X11551968Y-13442698D02*
X11437682Y-13556984D01*
X11437682Y-13556984D02*
X11561491Y-13556984D01*
X11799587Y-13556984D02*
X11799587Y-13356984D01*
X11885301Y-13556984D02*
X11885301Y-13452222D01*
X11885301Y-13452222D02*
X11875777Y-13433174D01*
X11875777Y-13433174D02*
X11856730Y-13423650D01*
X11856730Y-13423650D02*
X11828158Y-13423650D01*
X11828158Y-13423650D02*
X11809110Y-13433174D01*
X11809110Y-13433174D02*
X11799587Y-13442698D01*
X12009110Y-13556984D02*
X11990063Y-13547460D01*
X11990063Y-13547460D02*
X11980539Y-13537936D01*
X11980539Y-13537936D02*
X11971015Y-13518888D01*
X11971015Y-13518888D02*
X11971015Y-13461746D01*
X11971015Y-13461746D02*
X11980539Y-13442698D01*
X11980539Y-13442698D02*
X11990063Y-13433174D01*
X11990063Y-13433174D02*
X12009110Y-13423650D01*
X12009110Y-13423650D02*
X12037682Y-13423650D01*
X12037682Y-13423650D02*
X12056730Y-13433174D01*
X12056730Y-13433174D02*
X12066253Y-13442698D01*
X12066253Y-13442698D02*
X12075777Y-13461746D01*
X12075777Y-13461746D02*
X12075777Y-13518888D01*
X12075777Y-13518888D02*
X12066253Y-13537936D01*
X12066253Y-13537936D02*
X12056730Y-13547460D01*
X12056730Y-13547460D02*
X12037682Y-13556984D01*
X12037682Y-13556984D02*
X12009110Y-13556984D01*
X12190063Y-13556984D02*
X12171015Y-13547460D01*
X12171015Y-13547460D02*
X12161491Y-13528412D01*
X12161491Y-13528412D02*
X12161491Y-13356984D01*
X12342444Y-13547460D02*
X12323396Y-13556984D01*
X12323396Y-13556984D02*
X12285301Y-13556984D01*
X12285301Y-13556984D02*
X12266253Y-13547460D01*
X12266253Y-13547460D02*
X12256730Y-13528412D01*
X12256730Y-13528412D02*
X12256730Y-13452222D01*
X12256730Y-13452222D02*
X12266253Y-13433174D01*
X12266253Y-13433174D02*
X12285301Y-13423650D01*
X12285301Y-13423650D02*
X12323396Y-13423650D01*
X12323396Y-13423650D02*
X12342444Y-13433174D01*
X12342444Y-13433174D02*
X12351968Y-13452222D01*
X12351968Y-13452222D02*
X12351968Y-13471269D01*
X12351968Y-13471269D02*
X12256730Y-13490317D01*
X12428158Y-13547460D02*
X12447206Y-13556984D01*
X12447206Y-13556984D02*
X12485301Y-13556984D01*
X12485301Y-13556984D02*
X12504349Y-13547460D01*
X12504349Y-13547460D02*
X12513872Y-13528412D01*
X12513872Y-13528412D02*
X12513872Y-13518888D01*
X12513872Y-13518888D02*
X12504349Y-13499841D01*
X12504349Y-13499841D02*
X12485301Y-13490317D01*
X12485301Y-13490317D02*
X12456730Y-13490317D01*
X12456730Y-13490317D02*
X12437682Y-13480793D01*
X12437682Y-13480793D02*
X12428158Y-13461746D01*
X12428158Y-13461746D02*
X12428158Y-13452222D01*
X12428158Y-13452222D02*
X12437682Y-13433174D01*
X12437682Y-13433174D02*
X12456730Y-13423650D01*
X12456730Y-13423650D02*
X12485301Y-13423650D01*
X12485301Y-13423650D02*
X12504349Y-13433174D01*
X12580539Y-13633174D02*
X12590063Y-13623650D01*
X12590063Y-13623650D02*
X12609111Y-13595079D01*
X12609111Y-13595079D02*
X12618634Y-13576031D01*
X12618634Y-13576031D02*
X12628158Y-13547460D01*
X12628158Y-13547460D02*
X12637682Y-13499841D01*
X12637682Y-13499841D02*
X12637682Y-13461746D01*
X12637682Y-13461746D02*
X12628158Y-13414127D01*
X12628158Y-13414127D02*
X12618634Y-13385555D01*
X12618634Y-13385555D02*
X12609111Y-13366508D01*
X12609111Y-13366508D02*
X12590063Y-13337936D01*
X12590063Y-13337936D02*
X12580539Y-13328412D01*
D16*
X7495000Y-13669500D02*
X7615000Y-13789500D01*
X7615000Y-13669500D02*
X7495000Y-13789500D01*
X7615000Y-13729500D02*
G75*
G03*
X7615000Y-13729500I-60000J0D01*
G01*
D11*
X7980539Y-13820984D02*
X7866253Y-13820984D01*
X7923396Y-13820984D02*
X7923396Y-13620984D01*
X7923396Y-13620984D02*
X7904348Y-13649555D01*
X7904348Y-13649555D02*
X7885301Y-13668603D01*
X7885301Y-13668603D02*
X7866253Y-13678127D01*
X8066253Y-13801936D02*
X8075777Y-13811460D01*
X8075777Y-13811460D02*
X8066253Y-13820984D01*
X8066253Y-13820984D02*
X8056729Y-13811460D01*
X8056729Y-13811460D02*
X8066253Y-13801936D01*
X8066253Y-13801936D02*
X8066253Y-13820984D01*
X8151967Y-13640031D02*
X8161491Y-13630508D01*
X8161491Y-13630508D02*
X8180539Y-13620984D01*
X8180539Y-13620984D02*
X8228158Y-13620984D01*
X8228158Y-13620984D02*
X8247205Y-13630508D01*
X8247205Y-13630508D02*
X8256729Y-13640031D01*
X8256729Y-13640031D02*
X8266253Y-13659079D01*
X8266253Y-13659079D02*
X8266253Y-13678127D01*
X8266253Y-13678127D02*
X8256729Y-13706698D01*
X8256729Y-13706698D02*
X8142443Y-13820984D01*
X8142443Y-13820984D02*
X8266253Y-13820984D01*
X8390063Y-13620984D02*
X8409110Y-13620984D01*
X8409110Y-13620984D02*
X8428158Y-13630508D01*
X8428158Y-13630508D02*
X8437682Y-13640031D01*
X8437682Y-13640031D02*
X8447205Y-13659079D01*
X8447205Y-13659079D02*
X8456729Y-13697174D01*
X8456729Y-13697174D02*
X8456729Y-13744793D01*
X8456729Y-13744793D02*
X8447205Y-13782888D01*
X8447205Y-13782888D02*
X8437682Y-13801936D01*
X8437682Y-13801936D02*
X8428158Y-13811460D01*
X8428158Y-13811460D02*
X8409110Y-13820984D01*
X8409110Y-13820984D02*
X8390063Y-13820984D01*
X8390063Y-13820984D02*
X8371015Y-13811460D01*
X8371015Y-13811460D02*
X8361491Y-13801936D01*
X8361491Y-13801936D02*
X8351967Y-13782888D01*
X8351967Y-13782888D02*
X8342443Y-13744793D01*
X8342443Y-13744793D02*
X8342443Y-13697174D01*
X8342443Y-13697174D02*
X8351967Y-13659079D01*
X8351967Y-13659079D02*
X8361491Y-13640031D01*
X8361491Y-13640031D02*
X8371015Y-13630508D01*
X8371015Y-13630508D02*
X8390063Y-13620984D01*
X8580539Y-13620984D02*
X8599586Y-13620984D01*
X8599586Y-13620984D02*
X8618634Y-13630508D01*
X8618634Y-13630508D02*
X8628158Y-13640031D01*
X8628158Y-13640031D02*
X8637682Y-13659079D01*
X8637682Y-13659079D02*
X8647205Y-13697174D01*
X8647205Y-13697174D02*
X8647205Y-13744793D01*
X8647205Y-13744793D02*
X8637682Y-13782888D01*
X8637682Y-13782888D02*
X8628158Y-13801936D01*
X8628158Y-13801936D02*
X8618634Y-13811460D01*
X8618634Y-13811460D02*
X8599586Y-13820984D01*
X8599586Y-13820984D02*
X8580539Y-13820984D01*
X8580539Y-13820984D02*
X8561491Y-13811460D01*
X8561491Y-13811460D02*
X8551967Y-13801936D01*
X8551967Y-13801936D02*
X8542444Y-13782888D01*
X8542444Y-13782888D02*
X8532920Y-13744793D01*
X8532920Y-13744793D02*
X8532920Y-13697174D01*
X8532920Y-13697174D02*
X8542444Y-13659079D01*
X8542444Y-13659079D02*
X8551967Y-13640031D01*
X8551967Y-13640031D02*
X8561491Y-13630508D01*
X8561491Y-13630508D02*
X8580539Y-13620984D01*
X8732920Y-13820984D02*
X8732920Y-13687650D01*
X8732920Y-13706698D02*
X8742444Y-13697174D01*
X8742444Y-13697174D02*
X8761491Y-13687650D01*
X8761491Y-13687650D02*
X8790063Y-13687650D01*
X8790063Y-13687650D02*
X8809110Y-13697174D01*
X8809110Y-13697174D02*
X8818634Y-13716222D01*
X8818634Y-13716222D02*
X8818634Y-13820984D01*
X8818634Y-13716222D02*
X8828158Y-13697174D01*
X8828158Y-13697174D02*
X8847205Y-13687650D01*
X8847205Y-13687650D02*
X8875777Y-13687650D01*
X8875777Y-13687650D02*
X8894825Y-13697174D01*
X8894825Y-13697174D02*
X8904348Y-13716222D01*
X8904348Y-13716222D02*
X8904348Y-13820984D01*
X8999586Y-13820984D02*
X8999586Y-13687650D01*
X8999586Y-13706698D02*
X9009110Y-13697174D01*
X9009110Y-13697174D02*
X9028158Y-13687650D01*
X9028158Y-13687650D02*
X9056729Y-13687650D01*
X9056729Y-13687650D02*
X9075777Y-13697174D01*
X9075777Y-13697174D02*
X9085301Y-13716222D01*
X9085301Y-13716222D02*
X9085301Y-13820984D01*
X9085301Y-13716222D02*
X9094825Y-13697174D01*
X9094825Y-13697174D02*
X9113872Y-13687650D01*
X9113872Y-13687650D02*
X9142444Y-13687650D01*
X9142444Y-13687650D02*
X9161491Y-13697174D01*
X9161491Y-13697174D02*
X9171015Y-13716222D01*
X9171015Y-13716222D02*
X9171015Y-13820984D01*
X9561491Y-13611460D02*
X9390063Y-13868603D01*
X9818634Y-13620984D02*
X9837682Y-13620984D01*
X9837682Y-13620984D02*
X9856729Y-13630508D01*
X9856729Y-13630508D02*
X9866253Y-13640031D01*
X9866253Y-13640031D02*
X9875777Y-13659079D01*
X9875777Y-13659079D02*
X9885301Y-13697174D01*
X9885301Y-13697174D02*
X9885301Y-13744793D01*
X9885301Y-13744793D02*
X9875777Y-13782888D01*
X9875777Y-13782888D02*
X9866253Y-13801936D01*
X9866253Y-13801936D02*
X9856729Y-13811460D01*
X9856729Y-13811460D02*
X9837682Y-13820984D01*
X9837682Y-13820984D02*
X9818634Y-13820984D01*
X9818634Y-13820984D02*
X9799587Y-13811460D01*
X9799587Y-13811460D02*
X9790063Y-13801936D01*
X9790063Y-13801936D02*
X9780539Y-13782888D01*
X9780539Y-13782888D02*
X9771015Y-13744793D01*
X9771015Y-13744793D02*
X9771015Y-13697174D01*
X9771015Y-13697174D02*
X9780539Y-13659079D01*
X9780539Y-13659079D02*
X9790063Y-13640031D01*
X9790063Y-13640031D02*
X9799587Y-13630508D01*
X9799587Y-13630508D02*
X9818634Y-13620984D01*
X9971015Y-13801936D02*
X9980539Y-13811460D01*
X9980539Y-13811460D02*
X9971015Y-13820984D01*
X9971015Y-13820984D02*
X9961491Y-13811460D01*
X9961491Y-13811460D02*
X9971015Y-13801936D01*
X9971015Y-13801936D02*
X9971015Y-13820984D01*
X10104348Y-13620984D02*
X10123396Y-13620984D01*
X10123396Y-13620984D02*
X10142444Y-13630508D01*
X10142444Y-13630508D02*
X10151968Y-13640031D01*
X10151968Y-13640031D02*
X10161491Y-13659079D01*
X10161491Y-13659079D02*
X10171015Y-13697174D01*
X10171015Y-13697174D02*
X10171015Y-13744793D01*
X10171015Y-13744793D02*
X10161491Y-13782888D01*
X10161491Y-13782888D02*
X10151968Y-13801936D01*
X10151968Y-13801936D02*
X10142444Y-13811460D01*
X10142444Y-13811460D02*
X10123396Y-13820984D01*
X10123396Y-13820984D02*
X10104348Y-13820984D01*
X10104348Y-13820984D02*
X10085301Y-13811460D01*
X10085301Y-13811460D02*
X10075777Y-13801936D01*
X10075777Y-13801936D02*
X10066253Y-13782888D01*
X10066253Y-13782888D02*
X10056729Y-13744793D01*
X10056729Y-13744793D02*
X10056729Y-13697174D01*
X10056729Y-13697174D02*
X10066253Y-13659079D01*
X10066253Y-13659079D02*
X10075777Y-13640031D01*
X10075777Y-13640031D02*
X10085301Y-13630508D01*
X10085301Y-13630508D02*
X10104348Y-13620984D01*
X10342444Y-13687650D02*
X10342444Y-13820984D01*
X10294825Y-13611460D02*
X10247206Y-13754317D01*
X10247206Y-13754317D02*
X10371015Y-13754317D01*
X10428158Y-13620984D02*
X10561491Y-13620984D01*
X10561491Y-13620984D02*
X10475777Y-13820984D01*
X10628158Y-13640031D02*
X10637682Y-13630508D01*
X10637682Y-13630508D02*
X10656729Y-13620984D01*
X10656729Y-13620984D02*
X10704349Y-13620984D01*
X10704349Y-13620984D02*
X10723396Y-13630508D01*
X10723396Y-13630508D02*
X10732920Y-13640031D01*
X10732920Y-13640031D02*
X10742444Y-13659079D01*
X10742444Y-13659079D02*
X10742444Y-13678127D01*
X10742444Y-13678127D02*
X10732920Y-13706698D01*
X10732920Y-13706698D02*
X10618634Y-13820984D01*
X10618634Y-13820984D02*
X10742444Y-13820984D01*
X10818634Y-13620984D02*
X10818634Y-13659079D01*
X10894825Y-13620984D02*
X10894825Y-13659079D01*
X11190063Y-13897174D02*
X11180539Y-13887650D01*
X11180539Y-13887650D02*
X11161491Y-13859079D01*
X11161491Y-13859079D02*
X11151968Y-13840031D01*
X11151968Y-13840031D02*
X11142444Y-13811460D01*
X11142444Y-13811460D02*
X11132920Y-13763841D01*
X11132920Y-13763841D02*
X11132920Y-13725746D01*
X11132920Y-13725746D02*
X11142444Y-13678127D01*
X11142444Y-13678127D02*
X11151968Y-13649555D01*
X11151968Y-13649555D02*
X11161491Y-13630508D01*
X11161491Y-13630508D02*
X11180539Y-13601936D01*
X11180539Y-13601936D02*
X11190063Y-13592412D01*
X11256729Y-13640031D02*
X11266253Y-13630508D01*
X11266253Y-13630508D02*
X11285301Y-13620984D01*
X11285301Y-13620984D02*
X11332920Y-13620984D01*
X11332920Y-13620984D02*
X11351968Y-13630508D01*
X11351968Y-13630508D02*
X11361491Y-13640031D01*
X11361491Y-13640031D02*
X11371015Y-13659079D01*
X11371015Y-13659079D02*
X11371015Y-13678127D01*
X11371015Y-13678127D02*
X11361491Y-13706698D01*
X11361491Y-13706698D02*
X11247206Y-13820984D01*
X11247206Y-13820984D02*
X11371015Y-13820984D01*
X11447206Y-13640031D02*
X11456729Y-13630508D01*
X11456729Y-13630508D02*
X11475777Y-13620984D01*
X11475777Y-13620984D02*
X11523396Y-13620984D01*
X11523396Y-13620984D02*
X11542444Y-13630508D01*
X11542444Y-13630508D02*
X11551968Y-13640031D01*
X11551968Y-13640031D02*
X11561491Y-13659079D01*
X11561491Y-13659079D02*
X11561491Y-13678127D01*
X11561491Y-13678127D02*
X11551968Y-13706698D01*
X11551968Y-13706698D02*
X11437682Y-13820984D01*
X11437682Y-13820984D02*
X11561491Y-13820984D01*
X11799587Y-13820984D02*
X11799587Y-13620984D01*
X11885301Y-13820984D02*
X11885301Y-13716222D01*
X11885301Y-13716222D02*
X11875777Y-13697174D01*
X11875777Y-13697174D02*
X11856730Y-13687650D01*
X11856730Y-13687650D02*
X11828158Y-13687650D01*
X11828158Y-13687650D02*
X11809110Y-13697174D01*
X11809110Y-13697174D02*
X11799587Y-13706698D01*
X12009110Y-13820984D02*
X11990063Y-13811460D01*
X11990063Y-13811460D02*
X11980539Y-13801936D01*
X11980539Y-13801936D02*
X11971015Y-13782888D01*
X11971015Y-13782888D02*
X11971015Y-13725746D01*
X11971015Y-13725746D02*
X11980539Y-13706698D01*
X11980539Y-13706698D02*
X11990063Y-13697174D01*
X11990063Y-13697174D02*
X12009110Y-13687650D01*
X12009110Y-13687650D02*
X12037682Y-13687650D01*
X12037682Y-13687650D02*
X12056730Y-13697174D01*
X12056730Y-13697174D02*
X12066253Y-13706698D01*
X12066253Y-13706698D02*
X12075777Y-13725746D01*
X12075777Y-13725746D02*
X12075777Y-13782888D01*
X12075777Y-13782888D02*
X12066253Y-13801936D01*
X12066253Y-13801936D02*
X12056730Y-13811460D01*
X12056730Y-13811460D02*
X12037682Y-13820984D01*
X12037682Y-13820984D02*
X12009110Y-13820984D01*
X12190063Y-13820984D02*
X12171015Y-13811460D01*
X12171015Y-13811460D02*
X12161491Y-13792412D01*
X12161491Y-13792412D02*
X12161491Y-13620984D01*
X12342444Y-13811460D02*
X12323396Y-13820984D01*
X12323396Y-13820984D02*
X12285301Y-13820984D01*
X12285301Y-13820984D02*
X12266253Y-13811460D01*
X12266253Y-13811460D02*
X12256730Y-13792412D01*
X12256730Y-13792412D02*
X12256730Y-13716222D01*
X12256730Y-13716222D02*
X12266253Y-13697174D01*
X12266253Y-13697174D02*
X12285301Y-13687650D01*
X12285301Y-13687650D02*
X12323396Y-13687650D01*
X12323396Y-13687650D02*
X12342444Y-13697174D01*
X12342444Y-13697174D02*
X12351968Y-13716222D01*
X12351968Y-13716222D02*
X12351968Y-13735269D01*
X12351968Y-13735269D02*
X12256730Y-13754317D01*
X12428158Y-13811460D02*
X12447206Y-13820984D01*
X12447206Y-13820984D02*
X12485301Y-13820984D01*
X12485301Y-13820984D02*
X12504349Y-13811460D01*
X12504349Y-13811460D02*
X12513872Y-13792412D01*
X12513872Y-13792412D02*
X12513872Y-13782888D01*
X12513872Y-13782888D02*
X12504349Y-13763841D01*
X12504349Y-13763841D02*
X12485301Y-13754317D01*
X12485301Y-13754317D02*
X12456730Y-13754317D01*
X12456730Y-13754317D02*
X12437682Y-13744793D01*
X12437682Y-13744793D02*
X12428158Y-13725746D01*
X12428158Y-13725746D02*
X12428158Y-13716222D01*
X12428158Y-13716222D02*
X12437682Y-13697174D01*
X12437682Y-13697174D02*
X12456730Y-13687650D01*
X12456730Y-13687650D02*
X12485301Y-13687650D01*
X12485301Y-13687650D02*
X12504349Y-13697174D01*
X12580539Y-13897174D02*
X12590063Y-13887650D01*
X12590063Y-13887650D02*
X12609111Y-13859079D01*
X12609111Y-13859079D02*
X12618634Y-13840031D01*
X12618634Y-13840031D02*
X12628158Y-13811460D01*
X12628158Y-13811460D02*
X12637682Y-13763841D01*
X12637682Y-13763841D02*
X12637682Y-13725746D01*
X12637682Y-13725746D02*
X12628158Y-13678127D01*
X12628158Y-13678127D02*
X12618634Y-13649555D01*
X12618634Y-13649555D02*
X12609111Y-13630508D01*
X12609111Y-13630508D02*
X12590063Y-13601936D01*
X12590063Y-13601936D02*
X12580539Y-13592412D01*
X7415000Y-13893500D02*
X7615000Y-14093500D01*
X7615000Y-13893500D02*
X7415000Y-14093500D01*
X7515000Y-13893500D02*
X7515000Y-14093500D01*
X7415000Y-13993500D02*
X7615000Y-13993500D01*
X7856729Y-13884984D02*
X7980539Y-13884984D01*
X7980539Y-13884984D02*
X7913872Y-13961174D01*
X7913872Y-13961174D02*
X7942443Y-13961174D01*
X7942443Y-13961174D02*
X7961491Y-13970698D01*
X7961491Y-13970698D02*
X7971015Y-13980222D01*
X7971015Y-13980222D02*
X7980539Y-13999269D01*
X7980539Y-13999269D02*
X7980539Y-14046888D01*
X7980539Y-14046888D02*
X7971015Y-14065936D01*
X7971015Y-14065936D02*
X7961491Y-14075460D01*
X7961491Y-14075460D02*
X7942443Y-14084984D01*
X7942443Y-14084984D02*
X7885301Y-14084984D01*
X7885301Y-14084984D02*
X7866253Y-14075460D01*
X7866253Y-14075460D02*
X7856729Y-14065936D01*
X8066253Y-14065936D02*
X8075777Y-14075460D01*
X8075777Y-14075460D02*
X8066253Y-14084984D01*
X8066253Y-14084984D02*
X8056729Y-14075460D01*
X8056729Y-14075460D02*
X8066253Y-14065936D01*
X8066253Y-14065936D02*
X8066253Y-14084984D01*
X8151967Y-13904031D02*
X8161491Y-13894508D01*
X8161491Y-13894508D02*
X8180539Y-13884984D01*
X8180539Y-13884984D02*
X8228158Y-13884984D01*
X8228158Y-13884984D02*
X8247205Y-13894508D01*
X8247205Y-13894508D02*
X8256729Y-13904031D01*
X8256729Y-13904031D02*
X8266253Y-13923079D01*
X8266253Y-13923079D02*
X8266253Y-13942127D01*
X8266253Y-13942127D02*
X8256729Y-13970698D01*
X8256729Y-13970698D02*
X8142443Y-14084984D01*
X8142443Y-14084984D02*
X8266253Y-14084984D01*
X8390063Y-13884984D02*
X8409110Y-13884984D01*
X8409110Y-13884984D02*
X8428158Y-13894508D01*
X8428158Y-13894508D02*
X8437682Y-13904031D01*
X8437682Y-13904031D02*
X8447205Y-13923079D01*
X8447205Y-13923079D02*
X8456729Y-13961174D01*
X8456729Y-13961174D02*
X8456729Y-14008793D01*
X8456729Y-14008793D02*
X8447205Y-14046888D01*
X8447205Y-14046888D02*
X8437682Y-14065936D01*
X8437682Y-14065936D02*
X8428158Y-14075460D01*
X8428158Y-14075460D02*
X8409110Y-14084984D01*
X8409110Y-14084984D02*
X8390063Y-14084984D01*
X8390063Y-14084984D02*
X8371015Y-14075460D01*
X8371015Y-14075460D02*
X8361491Y-14065936D01*
X8361491Y-14065936D02*
X8351967Y-14046888D01*
X8351967Y-14046888D02*
X8342443Y-14008793D01*
X8342443Y-14008793D02*
X8342443Y-13961174D01*
X8342443Y-13961174D02*
X8351967Y-13923079D01*
X8351967Y-13923079D02*
X8361491Y-13904031D01*
X8361491Y-13904031D02*
X8371015Y-13894508D01*
X8371015Y-13894508D02*
X8390063Y-13884984D01*
X8580539Y-13884984D02*
X8599586Y-13884984D01*
X8599586Y-13884984D02*
X8618634Y-13894508D01*
X8618634Y-13894508D02*
X8628158Y-13904031D01*
X8628158Y-13904031D02*
X8637682Y-13923079D01*
X8637682Y-13923079D02*
X8647205Y-13961174D01*
X8647205Y-13961174D02*
X8647205Y-14008793D01*
X8647205Y-14008793D02*
X8637682Y-14046888D01*
X8637682Y-14046888D02*
X8628158Y-14065936D01*
X8628158Y-14065936D02*
X8618634Y-14075460D01*
X8618634Y-14075460D02*
X8599586Y-14084984D01*
X8599586Y-14084984D02*
X8580539Y-14084984D01*
X8580539Y-14084984D02*
X8561491Y-14075460D01*
X8561491Y-14075460D02*
X8551967Y-14065936D01*
X8551967Y-14065936D02*
X8542444Y-14046888D01*
X8542444Y-14046888D02*
X8532920Y-14008793D01*
X8532920Y-14008793D02*
X8532920Y-13961174D01*
X8532920Y-13961174D02*
X8542444Y-13923079D01*
X8542444Y-13923079D02*
X8551967Y-13904031D01*
X8551967Y-13904031D02*
X8561491Y-13894508D01*
X8561491Y-13894508D02*
X8580539Y-13884984D01*
X8732920Y-14084984D02*
X8732920Y-13951650D01*
X8732920Y-13970698D02*
X8742444Y-13961174D01*
X8742444Y-13961174D02*
X8761491Y-13951650D01*
X8761491Y-13951650D02*
X8790063Y-13951650D01*
X8790063Y-13951650D02*
X8809110Y-13961174D01*
X8809110Y-13961174D02*
X8818634Y-13980222D01*
X8818634Y-13980222D02*
X8818634Y-14084984D01*
X8818634Y-13980222D02*
X8828158Y-13961174D01*
X8828158Y-13961174D02*
X8847205Y-13951650D01*
X8847205Y-13951650D02*
X8875777Y-13951650D01*
X8875777Y-13951650D02*
X8894825Y-13961174D01*
X8894825Y-13961174D02*
X8904348Y-13980222D01*
X8904348Y-13980222D02*
X8904348Y-14084984D01*
X8999586Y-14084984D02*
X8999586Y-13951650D01*
X8999586Y-13970698D02*
X9009110Y-13961174D01*
X9009110Y-13961174D02*
X9028158Y-13951650D01*
X9028158Y-13951650D02*
X9056729Y-13951650D01*
X9056729Y-13951650D02*
X9075777Y-13961174D01*
X9075777Y-13961174D02*
X9085301Y-13980222D01*
X9085301Y-13980222D02*
X9085301Y-14084984D01*
X9085301Y-13980222D02*
X9094825Y-13961174D01*
X9094825Y-13961174D02*
X9113872Y-13951650D01*
X9113872Y-13951650D02*
X9142444Y-13951650D01*
X9142444Y-13951650D02*
X9161491Y-13961174D01*
X9161491Y-13961174D02*
X9171015Y-13980222D01*
X9171015Y-13980222D02*
X9171015Y-14084984D01*
X9561491Y-13875460D02*
X9390063Y-14132603D01*
X9818634Y-13884984D02*
X9837682Y-13884984D01*
X9837682Y-13884984D02*
X9856729Y-13894508D01*
X9856729Y-13894508D02*
X9866253Y-13904031D01*
X9866253Y-13904031D02*
X9875777Y-13923079D01*
X9875777Y-13923079D02*
X9885301Y-13961174D01*
X9885301Y-13961174D02*
X9885301Y-14008793D01*
X9885301Y-14008793D02*
X9875777Y-14046888D01*
X9875777Y-14046888D02*
X9866253Y-14065936D01*
X9866253Y-14065936D02*
X9856729Y-14075460D01*
X9856729Y-14075460D02*
X9837682Y-14084984D01*
X9837682Y-14084984D02*
X9818634Y-14084984D01*
X9818634Y-14084984D02*
X9799587Y-14075460D01*
X9799587Y-14075460D02*
X9790063Y-14065936D01*
X9790063Y-14065936D02*
X9780539Y-14046888D01*
X9780539Y-14046888D02*
X9771015Y-14008793D01*
X9771015Y-14008793D02*
X9771015Y-13961174D01*
X9771015Y-13961174D02*
X9780539Y-13923079D01*
X9780539Y-13923079D02*
X9790063Y-13904031D01*
X9790063Y-13904031D02*
X9799587Y-13894508D01*
X9799587Y-13894508D02*
X9818634Y-13884984D01*
X9971015Y-14065936D02*
X9980539Y-14075460D01*
X9980539Y-14075460D02*
X9971015Y-14084984D01*
X9971015Y-14084984D02*
X9961491Y-14075460D01*
X9961491Y-14075460D02*
X9971015Y-14065936D01*
X9971015Y-14065936D02*
X9971015Y-14084984D01*
X10171015Y-14084984D02*
X10056729Y-14084984D01*
X10113872Y-14084984D02*
X10113872Y-13884984D01*
X10113872Y-13884984D02*
X10094825Y-13913555D01*
X10094825Y-13913555D02*
X10075777Y-13932603D01*
X10075777Y-13932603D02*
X10056729Y-13942127D01*
X10247206Y-13904031D02*
X10256729Y-13894508D01*
X10256729Y-13894508D02*
X10275777Y-13884984D01*
X10275777Y-13884984D02*
X10323396Y-13884984D01*
X10323396Y-13884984D02*
X10342444Y-13894508D01*
X10342444Y-13894508D02*
X10351968Y-13904031D01*
X10351968Y-13904031D02*
X10361491Y-13923079D01*
X10361491Y-13923079D02*
X10361491Y-13942127D01*
X10361491Y-13942127D02*
X10351968Y-13970698D01*
X10351968Y-13970698D02*
X10237682Y-14084984D01*
X10237682Y-14084984D02*
X10361491Y-14084984D01*
X10532920Y-13884984D02*
X10494825Y-13884984D01*
X10494825Y-13884984D02*
X10475777Y-13894508D01*
X10475777Y-13894508D02*
X10466253Y-13904031D01*
X10466253Y-13904031D02*
X10447206Y-13932603D01*
X10447206Y-13932603D02*
X10437682Y-13970698D01*
X10437682Y-13970698D02*
X10437682Y-14046888D01*
X10437682Y-14046888D02*
X10447206Y-14065936D01*
X10447206Y-14065936D02*
X10456729Y-14075460D01*
X10456729Y-14075460D02*
X10475777Y-14084984D01*
X10475777Y-14084984D02*
X10513872Y-14084984D01*
X10513872Y-14084984D02*
X10532920Y-14075460D01*
X10532920Y-14075460D02*
X10542444Y-14065936D01*
X10542444Y-14065936D02*
X10551968Y-14046888D01*
X10551968Y-14046888D02*
X10551968Y-13999269D01*
X10551968Y-13999269D02*
X10542444Y-13980222D01*
X10542444Y-13980222D02*
X10532920Y-13970698D01*
X10532920Y-13970698D02*
X10513872Y-13961174D01*
X10513872Y-13961174D02*
X10475777Y-13961174D01*
X10475777Y-13961174D02*
X10456729Y-13970698D01*
X10456729Y-13970698D02*
X10447206Y-13980222D01*
X10447206Y-13980222D02*
X10437682Y-13999269D01*
X10675777Y-13884984D02*
X10694825Y-13884984D01*
X10694825Y-13884984D02*
X10713872Y-13894508D01*
X10713872Y-13894508D02*
X10723396Y-13904031D01*
X10723396Y-13904031D02*
X10732920Y-13923079D01*
X10732920Y-13923079D02*
X10742444Y-13961174D01*
X10742444Y-13961174D02*
X10742444Y-14008793D01*
X10742444Y-14008793D02*
X10732920Y-14046888D01*
X10732920Y-14046888D02*
X10723396Y-14065936D01*
X10723396Y-14065936D02*
X10713872Y-14075460D01*
X10713872Y-14075460D02*
X10694825Y-14084984D01*
X10694825Y-14084984D02*
X10675777Y-14084984D01*
X10675777Y-14084984D02*
X10656729Y-14075460D01*
X10656729Y-14075460D02*
X10647206Y-14065936D01*
X10647206Y-14065936D02*
X10637682Y-14046888D01*
X10637682Y-14046888D02*
X10628158Y-14008793D01*
X10628158Y-14008793D02*
X10628158Y-13961174D01*
X10628158Y-13961174D02*
X10637682Y-13923079D01*
X10637682Y-13923079D02*
X10647206Y-13904031D01*
X10647206Y-13904031D02*
X10656729Y-13894508D01*
X10656729Y-13894508D02*
X10675777Y-13884984D01*
X10818634Y-13884984D02*
X10818634Y-13923079D01*
X10894825Y-13884984D02*
X10894825Y-13923079D01*
X11190063Y-14161174D02*
X11180539Y-14151650D01*
X11180539Y-14151650D02*
X11161491Y-14123079D01*
X11161491Y-14123079D02*
X11151968Y-14104031D01*
X11151968Y-14104031D02*
X11142444Y-14075460D01*
X11142444Y-14075460D02*
X11132920Y-14027841D01*
X11132920Y-14027841D02*
X11132920Y-13989746D01*
X11132920Y-13989746D02*
X11142444Y-13942127D01*
X11142444Y-13942127D02*
X11151968Y-13913555D01*
X11151968Y-13913555D02*
X11161491Y-13894508D01*
X11161491Y-13894508D02*
X11180539Y-13865936D01*
X11180539Y-13865936D02*
X11190063Y-13856412D01*
X11351968Y-13951650D02*
X11351968Y-14084984D01*
X11304348Y-13875460D02*
X11256729Y-14018317D01*
X11256729Y-14018317D02*
X11380539Y-14018317D01*
X11609110Y-14084984D02*
X11609110Y-13884984D01*
X11694825Y-14084984D02*
X11694825Y-13980222D01*
X11694825Y-13980222D02*
X11685301Y-13961174D01*
X11685301Y-13961174D02*
X11666253Y-13951650D01*
X11666253Y-13951650D02*
X11637682Y-13951650D01*
X11637682Y-13951650D02*
X11618634Y-13961174D01*
X11618634Y-13961174D02*
X11609110Y-13970698D01*
X11818634Y-14084984D02*
X11799587Y-14075460D01*
X11799587Y-14075460D02*
X11790063Y-14065936D01*
X11790063Y-14065936D02*
X11780539Y-14046888D01*
X11780539Y-14046888D02*
X11780539Y-13989746D01*
X11780539Y-13989746D02*
X11790063Y-13970698D01*
X11790063Y-13970698D02*
X11799587Y-13961174D01*
X11799587Y-13961174D02*
X11818634Y-13951650D01*
X11818634Y-13951650D02*
X11847206Y-13951650D01*
X11847206Y-13951650D02*
X11866253Y-13961174D01*
X11866253Y-13961174D02*
X11875777Y-13970698D01*
X11875777Y-13970698D02*
X11885301Y-13989746D01*
X11885301Y-13989746D02*
X11885301Y-14046888D01*
X11885301Y-14046888D02*
X11875777Y-14065936D01*
X11875777Y-14065936D02*
X11866253Y-14075460D01*
X11866253Y-14075460D02*
X11847206Y-14084984D01*
X11847206Y-14084984D02*
X11818634Y-14084984D01*
X11999587Y-14084984D02*
X11980539Y-14075460D01*
X11980539Y-14075460D02*
X11971015Y-14056412D01*
X11971015Y-14056412D02*
X11971015Y-13884984D01*
X12151968Y-14075460D02*
X12132920Y-14084984D01*
X12132920Y-14084984D02*
X12094825Y-14084984D01*
X12094825Y-14084984D02*
X12075777Y-14075460D01*
X12075777Y-14075460D02*
X12066253Y-14056412D01*
X12066253Y-14056412D02*
X12066253Y-13980222D01*
X12066253Y-13980222D02*
X12075777Y-13961174D01*
X12075777Y-13961174D02*
X12094825Y-13951650D01*
X12094825Y-13951650D02*
X12132920Y-13951650D01*
X12132920Y-13951650D02*
X12151968Y-13961174D01*
X12151968Y-13961174D02*
X12161491Y-13980222D01*
X12161491Y-13980222D02*
X12161491Y-13999269D01*
X12161491Y-13999269D02*
X12066253Y-14018317D01*
X12237682Y-14075460D02*
X12256730Y-14084984D01*
X12256730Y-14084984D02*
X12294825Y-14084984D01*
X12294825Y-14084984D02*
X12313872Y-14075460D01*
X12313872Y-14075460D02*
X12323396Y-14056412D01*
X12323396Y-14056412D02*
X12323396Y-14046888D01*
X12323396Y-14046888D02*
X12313872Y-14027841D01*
X12313872Y-14027841D02*
X12294825Y-14018317D01*
X12294825Y-14018317D02*
X12266253Y-14018317D01*
X12266253Y-14018317D02*
X12247206Y-14008793D01*
X12247206Y-14008793D02*
X12237682Y-13989746D01*
X12237682Y-13989746D02*
X12237682Y-13980222D01*
X12237682Y-13980222D02*
X12247206Y-13961174D01*
X12247206Y-13961174D02*
X12266253Y-13951650D01*
X12266253Y-13951650D02*
X12294825Y-13951650D01*
X12294825Y-13951650D02*
X12313872Y-13961174D01*
X12390063Y-14161174D02*
X12399587Y-14151650D01*
X12399587Y-14151650D02*
X12418634Y-14123079D01*
X12418634Y-14123079D02*
X12428158Y-14104031D01*
X12428158Y-14104031D02*
X12437682Y-14075460D01*
X12437682Y-14075460D02*
X12447206Y-14027841D01*
X12447206Y-14027841D02*
X12447206Y-13989746D01*
X12447206Y-13989746D02*
X12437682Y-13942127D01*
X12437682Y-13942127D02*
X12428158Y-13913555D01*
X12428158Y-13913555D02*
X12418634Y-13894508D01*
X12418634Y-13894508D02*
X12399587Y-13865936D01*
X12399587Y-13865936D02*
X12390063Y-13856412D01*
M02*
