M48
; DRILL file {KiCad 7.0.8} date Sun Feb  4 20:23:08 2024
; FORMAT={-:-/ absolute / inch / decimal}
; #@! TF.CreationDate,2024-02-04T20:23:08+01:00
; #@! TF.GenerationSoftware,Kicad,Pcbnew,7.0.8
; #@! TF.FileFunction,Plated,1,4,PTH
FMAT,2
INCH
; #@! TA.AperFunction,Plated,PTH,ViaDrill
T1C0.0098
; #@! TA.AperFunction,Plated,PTH,ViaDrill
T2C0.0118
; #@! TA.AperFunction,Plated,PTH,ViaDrill
T3C0.0157
; #@! TA.AperFunction,Plated,PTH,ComponentDrill
T4C0.0236
; #@! TA.AperFunction,Plated,PTH,ComponentDrill
T5C0.0394
; #@! TA.AperFunction,Plated,PTH,ComponentDrill
T6C0.0472
; #@! TA.AperFunction,Plated,PTH,ComponentDrill
T7C0.1260
%
G90
G05
T1
X3.805Y-3.89
X3.805Y-3.92
X3.805Y-3.95
X3.915Y-3.89
X3.915Y-3.92
X3.915Y-3.95
X3.925Y-3.325
X3.925Y-3.365
X3.925Y-3.405
X3.975Y-3.28
X3.975Y-3.325
X3.975Y-3.365
X3.975Y-3.405
X3.975Y-3.45
X4.01Y-3.945
X4.115Y-3.945
X4.23Y-4.16
X4.23Y-4.2
X4.23Y-4.26
X4.23Y-4.3
X4.275Y-4.16
X4.275Y-4.2
X4.275Y-4.3
X4.53Y-3.79
X4.83Y-3.8
X4.83Y-4.15
X4.87Y-3.8
X4.91Y-3.8
X4.91Y-4.18
X4.95Y-3.8
X4.97Y-4.27
X4.98Y-4.23
X5.02Y-4.23
X5.06Y-4.23
X5.2Y-3.38
X5.24Y-3.38
X5.24Y-3.58
X5.25Y-3.65
X5.25Y-3.7
X5.28Y-3.58
X5.31Y-3.58
X5.41Y-3.21
X5.44Y-4.24
X5.445Y-3.825
X5.47Y-3.43
X5.47Y-4.48
X5.4773Y-3.7426
X5.48Y-4.24
X5.49Y-3.91
X5.5Y-3.52
X5.501Y-3.569
X5.53Y-3.63
X5.54Y-4.31
X5.64Y-4.35
X5.64Y-4.41
X5.65Y-3.35
X5.6709Y-3.0709
X5.69Y-3.35
X5.72Y-4.24
X5.75Y-3.84
X5.76Y-4.24
X5.765Y-3.21
X5.81Y-3.78
X5.83Y-3.05
X5.97Y-4.24
X5.98Y-4.36
X6.08Y-3.215
X6.19Y-4.2
X6.19Y-4.24
X6.295Y-3.75
X6.4Y-3.63
X6.42Y-3.87
X6.43Y-3.68
X6.46Y-3.65
X6.46Y-3.87
X6.545Y-3.415
X6.855Y-3.44
X6.88Y-3.405
X6.89Y-3.83
X6.9Y-3.575
X6.9Y-3.615
X6.94Y-3.51
X7.0Y-3.37
X7.07Y-3.535
X7.07Y-3.62
X7.15Y-3.75
X7.16Y-3.96
X7.425Y-3.385
X8.3Y-3.88
X8.56Y-3.71
X8.6Y-3.86
X8.66Y-3.73
X8.66Y-3.77
X8.725Y-3.69
X8.76Y-3.69
X8.765Y-3.405
X8.765Y-3.435
X8.765Y-3.465
X8.765Y-3.495
X8.765Y-3.525
X8.765Y-3.555
X8.765Y-3.585
X8.765Y-3.615
X8.82Y-4.055
T2
X6.96Y-3.88
X6.96Y-3.92
X7.0Y-3.88
X7.0Y-3.92
T3
X3.1Y-3.55
X3.1Y-3.625
X3.1Y-4.0
X3.1Y-4.2
X3.1Y-4.275
X3.175Y-3.625
X3.175Y-4.275
X3.2Y-3.7
X3.25Y-3.625
X3.25Y-4.275
X3.4Y-3.1
X3.4Y-3.4
X3.4Y-3.7
X3.4Y-4.0
X3.4Y-4.3
X3.4Y-4.55
X3.6Y-2.9
X3.6Y-3.1
X3.6Y-3.4
X3.6Y-3.7
X3.6Y-4.0
X3.6Y-4.3
X3.6Y-4.4
X3.6Y-4.55
X3.8Y-2.9
X3.8Y-3.1
X3.8Y-3.4
X3.8Y-3.7
X3.8Y-4.3
X3.8Y-4.4
X3.8Y-4.55
X3.9Y-4.2
X4.0Y-2.9
X4.0Y-3.1
X4.0Y-3.7
X4.0Y-4.1
X4.0Y-4.3
X4.0Y-4.4
X4.0Y-4.55
X4.07Y-3.69
X4.07Y-3.75
X4.13Y-3.69
X4.2Y-2.9
X4.2Y-3.1
X4.2Y-3.3
X4.2Y-3.4
X4.2Y-4.4
X4.2Y-4.55
X4.21Y-4.1
X4.26Y-4.08
X4.4Y-2.9
X4.4Y-3.1
X4.4Y-3.3
X4.4Y-3.4
X4.4Y-3.6
X4.4Y-3.7
X4.42Y-4.45
X4.45Y-4.05
X4.55Y-3.1
X4.55Y-3.4
X4.58Y-3.94
X4.6Y-3.6
X4.6Y-4.2
X4.6Y-4.4
X4.63Y-4.13
X4.64Y-3.88
X4.7Y-2.9
X4.7Y-2.99
X4.7Y-3.07
X4.7Y-3.88
X4.7Y-4.18
X4.8Y-2.9
X4.8Y-3.1
X4.8Y-3.25
X4.8Y-3.4
X4.8Y-3.7
X4.8Y-4.4
X4.84Y-4.07
X5.0Y-2.9
X5.0Y-3.1
X5.0Y-4.4
X5.01Y-4.03
X5.08Y-3.45
X5.1Y-2.9
X5.1014Y-2.99
X5.1014Y-3.07
X5.14Y-3.22
X5.14Y-3.35
X5.155Y-3.75
X5.155Y-3.81
X5.155Y-3.87
X5.19Y-3.7
X5.19Y-3.93
X5.19Y-3.99
X5.19Y-4.05
X5.2Y-2.9
X5.2Y-3.1
X5.2Y-4.4
X5.3Y-3.26
X5.37Y-4.19
X5.39Y-2.81
X5.4Y-2.9
X5.4Y-3.1
X5.4Y-4.4
X5.445Y-3.945
X5.46Y-3.65
X5.47Y-3.09
X5.48Y-4.06
X5.525Y-3.09
X5.55Y-3.35
X5.55Y-3.96
X5.58Y-3.09
X5.63Y-2.81
X5.64Y-3.17
X5.64Y-4.19
X5.65Y-4.55
X5.66Y-4.3
X5.7Y-3.8
X5.7Y-4.0
X5.72Y-3.1
X5.73Y-3.38
X5.73Y-4.05
X5.75Y-3.6
X5.85Y-4.0
X5.86Y-4.19
X5.9Y-3.55
X5.9Y-4.55
X5.91Y-3.09
X5.93Y-3.35
X5.93Y-4.05
X5.95Y-4.3
X5.97Y-3.09
X6.0Y-2.9
X6.02Y-3.21
X6.05Y-3.7
X6.05Y-3.95
X6.12Y-4.3
X6.15Y-3.35
X6.15Y-3.41
X6.15Y-3.63
X6.15Y-3.85
X6.15Y-4.55
X6.19Y-3.25
X6.25Y-4.09
X6.27Y-2.87
X6.27Y-2.94
X6.29Y-3.71
X6.29Y-3.92
X6.3Y-3.25
X6.3Y-4.3
X6.35Y-3.31
X6.35Y-3.71
X6.35Y-3.81
X6.35Y-3.87
X6.4Y-2.9
X6.4Y-4.23
X6.4Y-4.55
X6.45Y-3.35
X6.5Y-3.5
X6.55Y-4.23
X6.65Y-3.65
X6.65Y-4.13
X6.65Y-4.55
X6.7Y-2.95
X6.7Y-3.1
X6.7Y-3.2
X6.7Y-4.3
X6.78Y-3.82
X6.8Y-2.95
X6.8Y-3.2
X6.85Y-3.94
X6.85Y-3.98
X6.9Y-3.2
X6.9Y-4.4
X6.9Y-4.55
X6.92Y-4.23
X6.925Y-4.025
X7.02Y-3.26
X7.02Y-3.77
X7.04Y-4.23
X7.1Y-3.98
X7.1Y-4.4
X7.1Y-4.55
X7.12Y-3.26
X7.16Y-3.5
X7.22Y-3.26
X7.24Y-3.84
X7.24Y-3.9
X7.3Y-4.1
X7.3Y-4.2
X7.3Y-4.4
X7.32Y-3.4
X7.37Y-3.33
X7.38Y-3.14
X7.38Y-3.26
X7.38Y-3.55
X7.4Y-3.7
X7.42Y-3.9
X7.42Y-3.94
X7.42Y-3.98
X7.42Y-4.02
X7.42Y-4.06
X7.42Y-4.1
X7.425Y-3.55
X7.425Y-3.6
X7.425Y-3.65
X7.475Y-3.55
X7.475Y-3.6
X7.475Y-3.65
X7.49Y-3.71
X7.5Y-3.94
X7.5Y-4.1
X7.5Y-4.2
X7.5Y-4.4
X7.5Y-4.55
X7.52Y-3.27
X7.525Y-3.55
X7.525Y-3.6
X7.525Y-3.65
X7.57Y-3.94
X7.575Y-3.55
X7.575Y-3.6
X7.575Y-3.65
X7.625Y-3.55
X7.625Y-3.6
X7.625Y-3.65
X7.63Y-3.27
X7.65Y-3.38
X7.675Y-3.55
X7.675Y-3.6
X7.675Y-3.65
X7.68Y-3.94
X7.68Y-4.0
X7.7Y-3.1
X7.7Y-3.2
X7.7Y-4.1
X7.7Y-4.2
X7.7Y-4.4
X7.7Y-4.55
X7.77Y-3.45
X7.79Y-3.6
X7.79Y-4.0
X7.89Y-3.71
X7.89Y-3.77
X7.89Y-3.94
X7.89Y-4.0
X7.9Y-3.1
X7.9Y-4.1
X7.9Y-4.2
X7.9Y-4.4
X7.9Y-4.55
X7.92Y-3.39
X7.95Y-3.88
X7.95Y-3.94
X7.95Y-4.0
X8.0Y-3.5
X8.05Y-3.35
X8.07Y-3.71
X8.07Y-3.77
X8.1Y-3.5
X8.1Y-3.6
X8.1Y-4.0
X8.1Y-4.1
X8.1Y-4.4
X8.1Y-4.55
X8.2Y-2.82
X8.2Y-2.97
X8.2Y-3.1
X8.2Y-3.5
X8.28Y-3.65
X8.28Y-3.83
X8.29Y-2.89
X8.29Y-2.99
X8.29Y-3.075
X8.29Y-3.21
X8.3Y-3.3
X8.3Y-3.4
X8.3Y-3.5
X8.3Y-4.1
X8.3Y-4.2
X8.3Y-4.4
X8.3Y-4.55
X8.33Y-3.65
X8.33Y-3.83
X8.37Y-2.82
X8.37Y-3.14
X8.5Y-2.9
X8.5Y-3.0
X8.5Y-3.1
X8.5Y-3.2
X8.5Y-3.3
X8.5Y-3.4
X8.5Y-3.9
X8.5Y-4.0
X8.5Y-4.1
X8.5Y-4.2
X8.5Y-4.4
X8.595Y-3.945
X8.64Y-3.905
X8.64Y-3.945
X8.685Y-3.825
X8.685Y-3.865
X8.685Y-3.905
X8.685Y-3.945
X8.7Y-3.1
X8.7Y-3.2
X8.7Y-3.3
X8.7Y-4.1
X8.7Y-4.2
X8.7Y-4.4
X8.7Y-4.55
X8.73Y-3.865
X8.73Y-3.905
X8.73Y-3.945
X8.82Y-3.36
X8.82Y-3.41
X8.88Y-3.31
X8.88Y-3.36
X8.88Y-3.41
X8.88Y-3.46
X8.9Y-3.1
X8.9Y-3.2
X8.9Y-4.1
X8.9Y-4.2
X8.93Y-3.31
X8.93Y-3.36
X8.93Y-3.41
X8.93Y-3.46
X9.0Y-4.0
X9.0Y-4.2
X9.0123Y-3.6277
T5
X5.7596Y-4.46
X5.8596Y-4.46
X5.9596Y-4.46
X6.0596Y-4.46
X6.33Y-4.46
X6.43Y-4.46
X6.53Y-4.46
X6.55Y-3.8296
X6.55Y-3.9296
X6.55Y-4.0296
X6.55Y-4.1296
X6.63Y-4.46
T6
X5.88Y-2.91
X6.18Y-2.91
X6.875Y-2.925
X6.875Y-3.025
X6.975Y-2.925
X6.975Y-3.025
X7.075Y-2.925
X7.075Y-3.025
X7.175Y-2.925
X7.175Y-3.025
X7.275Y-2.925
X7.275Y-3.025
X7.375Y-2.925
X7.375Y-3.025
X7.475Y-2.925
X7.475Y-3.025
X7.575Y-2.925
X7.575Y-3.025
X7.675Y-2.925
X7.675Y-3.025
X7.775Y-2.925
X7.775Y-3.025
T7
X3.2Y-2.9567
X3.2Y-4.4317
X8.9Y-2.9567
X8.9Y-4.4317
T4
G00X8.8261Y-3.5699
M15
G01X8.8694Y-3.5699
M16
G05
G00X8.8261Y-3.9101
M15
G01X8.8694Y-3.9101
M16
G05
G00X8.9966Y-3.5699
M15
G01X9.0281Y-3.5699
M16
G05
G00X8.9966Y-3.9101
M15
G01X9.0281Y-3.9101
M16
G05
T0
M30
