%TF.GenerationSoftware,KiCad,Pcbnew,7.0.8*%
%TF.CreationDate,2024-02-04T20:23:02+01:00*%
%TF.ProjectId,schneidbrett,7363686e-6569-4646-9272-6574742e6b69,rev?*%
%TF.SameCoordinates,Original*%
%TF.FileFunction,Paste,Top*%
%TF.FilePolarity,Positive*%
%FSLAX46Y46*%
G04 Gerber Fmt 4.6, Leading zero omitted, Abs format (unit mm)*
G04 Created by KiCad (PCBNEW 7.0.8) date 2024-02-04 20:23:02*
%MOMM*%
%LPD*%
G01*
G04 APERTURE LIST*
G04 Aperture macros list*
%AMRoundRect*
0 Rectangle with rounded corners*
0 $1 Rounding radius*
0 $2 $3 $4 $5 $6 $7 $8 $9 X,Y pos of 4 corners*
0 Add a 4 corners polygon primitive as box body*
4,1,4,$2,$3,$4,$5,$6,$7,$8,$9,$2,$3,0*
0 Add four circle primitives for the rounded corners*
1,1,$1+$1,$2,$3*
1,1,$1+$1,$4,$5*
1,1,$1+$1,$6,$7*
1,1,$1+$1,$8,$9*
0 Add four rect primitives between the rounded corners*
20,1,$1+$1,$2,$3,$4,$5,0*
20,1,$1+$1,$4,$5,$6,$7,0*
20,1,$1+$1,$6,$7,$8,$9,0*
20,1,$1+$1,$8,$9,$2,$3,0*%
%AMRotRect*
0 Rectangle, with rotation*
0 The origin of the aperture is its center*
0 $1 length*
0 $2 width*
0 $3 Rotation angle, in degrees counterclockwise*
0 Add horizontal line*
21,1,$1,$2,0,0,$3*%
G04 Aperture macros list end*
%ADD10RoundRect,0.225000X0.225000X0.250000X-0.225000X0.250000X-0.225000X-0.250000X0.225000X-0.250000X0*%
%ADD11RoundRect,0.225000X0.250000X-0.225000X0.250000X0.225000X-0.250000X0.225000X-0.250000X-0.225000X0*%
%ADD12RoundRect,0.135000X0.185000X-0.135000X0.185000X0.135000X-0.185000X0.135000X-0.185000X-0.135000X0*%
%ADD13RoundRect,0.135000X-0.135000X-0.185000X0.135000X-0.185000X0.135000X0.185000X-0.135000X0.185000X0*%
%ADD14RoundRect,0.225000X-0.250000X0.225000X-0.250000X-0.225000X0.250000X-0.225000X0.250000X0.225000X0*%
%ADD15RoundRect,0.140000X0.140000X0.170000X-0.140000X0.170000X-0.140000X-0.170000X0.140000X-0.170000X0*%
%ADD16RoundRect,0.200000X0.200000X0.275000X-0.200000X0.275000X-0.200000X-0.275000X0.200000X-0.275000X0*%
%ADD17RoundRect,0.212500X-0.212500X-0.212500X0.212500X-0.212500X0.212500X0.212500X-0.212500X0.212500X0*%
%ADD18RoundRect,0.075000X-0.350000X-0.075000X0.350000X-0.075000X0.350000X0.075000X-0.350000X0.075000X0*%
%ADD19RoundRect,0.075000X-0.075000X-0.350000X0.075000X-0.350000X0.075000X0.350000X-0.075000X0.350000X0*%
%ADD20RoundRect,0.135000X-0.185000X0.135000X-0.185000X-0.135000X0.185000X-0.135000X0.185000X0.135000X0*%
%ADD21RoundRect,0.079500X-0.014849X0.127279X-0.127279X0.014849X0.014849X-0.127279X0.127279X-0.014849X0*%
%ADD22RoundRect,0.147500X0.172500X-0.147500X0.172500X0.147500X-0.172500X0.147500X-0.172500X-0.147500X0*%
%ADD23RoundRect,0.147500X-0.172500X0.147500X-0.172500X-0.147500X0.172500X-0.147500X0.172500X0.147500X0*%
%ADD24RoundRect,0.200000X-0.200000X-0.275000X0.200000X-0.275000X0.200000X0.275000X-0.200000X0.275000X0*%
%ADD25RoundRect,0.100000X-0.100000X0.712500X-0.100000X-0.712500X0.100000X-0.712500X0.100000X0.712500X0*%
%ADD26RoundRect,0.225000X-0.225000X-0.250000X0.225000X-0.250000X0.225000X0.250000X-0.225000X0.250000X0*%
%ADD27R,1.300000X1.550000*%
%ADD28RoundRect,0.147500X-0.147500X-0.172500X0.147500X-0.172500X0.147500X0.172500X-0.147500X0.172500X0*%
%ADD29RoundRect,0.150000X0.825000X0.150000X-0.825000X0.150000X-0.825000X-0.150000X0.825000X-0.150000X0*%
%ADD30RoundRect,0.250000X0.325000X0.650000X-0.325000X0.650000X-0.325000X-0.650000X0.325000X-0.650000X0*%
%ADD31RoundRect,0.135000X0.135000X0.185000X-0.135000X0.185000X-0.135000X-0.185000X0.135000X-0.185000X0*%
%ADD32RoundRect,0.100000X0.712500X0.100000X-0.712500X0.100000X-0.712500X-0.100000X0.712500X-0.100000X0*%
%ADD33RoundRect,0.140000X-0.140000X-0.170000X0.140000X-0.170000X0.140000X0.170000X-0.140000X0.170000X0*%
%ADD34RoundRect,0.250000X-1.100000X0.325000X-1.100000X-0.325000X1.100000X-0.325000X1.100000X0.325000X0*%
%ADD35R,1.400000X0.300000*%
%ADD36RoundRect,0.150000X0.425000X-0.150000X0.425000X0.150000X-0.425000X0.150000X-0.425000X-0.150000X0*%
%ADD37RoundRect,0.075000X0.500000X-0.075000X0.500000X0.075000X-0.500000X0.075000X-0.500000X-0.075000X0*%
%ADD38O,2.100000X1.000000*%
%ADD39O,1.800000X1.000000*%
%ADD40RoundRect,0.127500X-0.177500X-0.127500X0.177500X-0.127500X0.177500X0.127500X-0.177500X0.127500X0*%
%ADD41R,2.200000X2.800000*%
%ADD42R,2.800000X2.800000*%
%ADD43RoundRect,0.250000X0.325000X1.100000X-0.325000X1.100000X-0.325000X-1.100000X0.325000X-1.100000X0*%
%ADD44RoundRect,0.079500X0.127279X0.014849X0.014849X0.127279X-0.127279X-0.014849X-0.014849X-0.127279X0*%
%ADD45RoundRect,0.127500X-0.127500X0.177500X-0.127500X-0.177500X0.127500X-0.177500X0.127500X0.177500X0*%
%ADD46RoundRect,0.200000X-0.275000X0.200000X-0.275000X-0.200000X0.275000X-0.200000X0.275000X0.200000X0*%
%ADD47RoundRect,0.250000X-0.262500X-0.450000X0.262500X-0.450000X0.262500X0.450000X-0.262500X0.450000X0*%
%ADD48RotRect,0.900000X0.800000X225.000000*%
%ADD49RoundRect,0.127500X0.177500X0.127500X-0.177500X0.127500X-0.177500X-0.127500X0.177500X-0.127500X0*%
%ADD50RoundRect,0.127500X0.127500X-0.177500X0.127500X0.177500X-0.127500X0.177500X-0.127500X-0.177500X0*%
%ADD51R,0.450000X1.450000*%
%ADD52RoundRect,0.079500X0.014849X-0.127279X0.127279X-0.014849X-0.014849X0.127279X-0.127279X0.014849X0*%
%ADD53RoundRect,0.075000X-0.662500X-0.075000X0.662500X-0.075000X0.662500X0.075000X-0.662500X0.075000X0*%
%ADD54RoundRect,0.075000X-0.075000X-0.662500X0.075000X-0.662500X0.075000X0.662500X-0.075000X0.662500X0*%
G04 APERTURE END LIST*
D10*
%TO.C,C18*%
X134887000Y-102870000D03*
X133337000Y-102870000D03*
%TD*%
D11*
%TO.C,C22*%
X117856000Y-101626000D03*
X117856000Y-100076000D03*
%TD*%
D12*
%TO.C,R33*%
X184150000Y-92943000D03*
X184150000Y-91923000D03*
%TD*%
D13*
%TO.C,R11*%
X193798000Y-94234000D03*
X194818000Y-94234000D03*
%TD*%
D14*
%TO.C,C4*%
X190754000Y-97015000D03*
X190754000Y-98565000D03*
%TD*%
D13*
%TO.C,R10*%
X199134000Y-91440000D03*
X200154000Y-91440000D03*
%TD*%
D11*
%TO.C,C7*%
X134874000Y-93739000D03*
X134874000Y-92189000D03*
%TD*%
D15*
%TO.C,C30*%
X176756000Y-106172000D03*
X175796000Y-106172000D03*
%TD*%
D16*
%TO.C,R31*%
X161353000Y-91440000D03*
X159703000Y-91440000D03*
%TD*%
D17*
%TO.C,U5*%
X176767000Y-98535000D03*
X176767000Y-99585000D03*
X177817000Y-98535000D03*
X177817000Y-99585000D03*
D18*
X175342000Y-98085000D03*
X175342000Y-98735000D03*
X175342000Y-99385000D03*
X175342000Y-100035000D03*
D19*
X176317000Y-101010000D03*
X176967000Y-101010000D03*
X177617000Y-101010000D03*
X178267000Y-101010000D03*
D18*
X179242000Y-100035000D03*
X179242000Y-99385000D03*
X179242000Y-98735000D03*
X179242000Y-98085000D03*
D19*
X178267000Y-97110000D03*
X177617000Y-97110000D03*
X176967000Y-97110000D03*
X176317000Y-97110000D03*
%TD*%
D20*
%TO.C,R54*%
X140716000Y-73658000D03*
X140716000Y-74678000D03*
%TD*%
%TO.C,R55*%
X139192000Y-73658000D03*
X139192000Y-74678000D03*
%TD*%
%TO.C,R38*%
X176784000Y-104138000D03*
X176784000Y-105158000D03*
%TD*%
D13*
%TO.C,R4*%
X192784000Y-84455000D03*
X193804000Y-84455000D03*
%TD*%
D21*
%TO.C,C38*%
X132577952Y-95006048D03*
X132090048Y-95493952D03*
%TD*%
D10*
%TO.C,C15*%
X151651000Y-106426000D03*
X150101000Y-106426000D03*
%TD*%
D12*
%TO.C,R32*%
X182626000Y-92966000D03*
X182626000Y-91946000D03*
%TD*%
D11*
%TO.C,C34*%
X98124000Y-101867000D03*
X98124000Y-100317000D03*
%TD*%
D22*
%TO.C,D3*%
X182626000Y-95227000D03*
X182626000Y-94257000D03*
%TD*%
D12*
%TO.C,R34*%
X224028000Y-88902000D03*
X224028000Y-87882000D03*
%TD*%
D23*
%TO.C,D5*%
X140716000Y-71397000D03*
X140716000Y-72367000D03*
%TD*%
D11*
%TO.C,C25*%
X160020000Y-85611000D03*
X160020000Y-84061000D03*
%TD*%
D24*
%TO.C,R12*%
X133287000Y-87630000D03*
X134937000Y-87630000D03*
%TD*%
D25*
%TO.C,D11*%
X163027000Y-101519500D03*
X162377000Y-101519500D03*
X161727000Y-101519500D03*
X161077000Y-101519500D03*
X161077000Y-105744500D03*
X161727000Y-105744500D03*
X162377000Y-105744500D03*
X163027000Y-105744500D03*
%TD*%
D23*
%TO.C,D4*%
X139192000Y-71374000D03*
X139192000Y-72344000D03*
%TD*%
D11*
%TO.C,C10*%
X145288000Y-81547000D03*
X145288000Y-79997000D03*
%TD*%
D26*
%TO.C,C6*%
X103953000Y-104140000D03*
X105503000Y-104140000D03*
%TD*%
%TO.C,C28*%
X180835000Y-97536000D03*
X182385000Y-97536000D03*
%TD*%
D27*
%TO.C,SW_OPTION_1*%
X119416000Y-79672000D03*
X119416000Y-71712000D03*
X123916000Y-79672000D03*
X123916000Y-71712000D03*
%TD*%
D28*
%TO.C,D1*%
X191539000Y-94234000D03*
X192509000Y-94234000D03*
%TD*%
D20*
%TO.C,R39*%
X177800000Y-104138000D03*
X177800000Y-105158000D03*
%TD*%
D10*
%TO.C,C40*%
X134887000Y-101346000D03*
X133337000Y-101346000D03*
%TD*%
D11*
%TO.C,C21*%
X119380000Y-104661000D03*
X119380000Y-103111000D03*
%TD*%
D29*
%TO.C,U1*%
X207453000Y-96901000D03*
X207453000Y-95631000D03*
X207453000Y-94361000D03*
X207453000Y-93091000D03*
X202503000Y-93091000D03*
X202503000Y-94361000D03*
X202503000Y-95631000D03*
X202503000Y-96901000D03*
%TD*%
D13*
%TO.C,R53*%
X130554000Y-82804000D03*
X131574000Y-82804000D03*
%TD*%
%TO.C,R52*%
X130554000Y-84074000D03*
X131574000Y-84074000D03*
%TD*%
D16*
%TO.C,R40*%
X98124000Y-89154000D03*
X96474000Y-89154000D03*
%TD*%
D10*
%TO.C,C36*%
X106519000Y-95250000D03*
X104969000Y-95250000D03*
%TD*%
D30*
%TO.C,FB1*%
X221185000Y-91440000D03*
X218235000Y-91440000D03*
%TD*%
D10*
%TO.C,C17*%
X139205000Y-106426000D03*
X137655000Y-106426000D03*
%TD*%
D27*
%TO.C,SW_RESET1*%
X206030000Y-79672000D03*
X206030000Y-71712000D03*
X210530000Y-79672000D03*
X210530000Y-71712000D03*
%TD*%
D13*
%TO.C,R6*%
X182243000Y-84455000D03*
X183263000Y-84455000D03*
%TD*%
D26*
%TO.C,C14*%
X157213000Y-105156000D03*
X158763000Y-105156000D03*
%TD*%
D27*
%TO.C,SW_OPTION_2*%
X129576000Y-79672000D03*
X129576000Y-71712000D03*
X134076000Y-79672000D03*
X134076000Y-71712000D03*
%TD*%
D13*
%TO.C,R37*%
X172210000Y-98806000D03*
X173230000Y-98806000D03*
%TD*%
D14*
%TO.C,C13*%
X159766000Y-96761000D03*
X159766000Y-98311000D03*
%TD*%
D10*
%TO.C,C9*%
X137427000Y-82804000D03*
X135877000Y-82804000D03*
%TD*%
D20*
%TO.C,R35*%
X224028000Y-101090000D03*
X224028000Y-102110000D03*
%TD*%
D31*
%TO.C,R51*%
X121668000Y-105410000D03*
X120648000Y-105410000D03*
%TD*%
D32*
%TO.C,D7*%
X177626500Y-91145000D03*
X177626500Y-90495000D03*
X177626500Y-89845000D03*
X177626500Y-89195000D03*
X173401500Y-89195000D03*
X173401500Y-89845000D03*
X173401500Y-90495000D03*
X173401500Y-91145000D03*
%TD*%
D14*
%TO.C,C26*%
X155575000Y-106413000D03*
X155575000Y-107963000D03*
%TD*%
D33*
%TO.C,C31*%
X177828000Y-106172000D03*
X178788000Y-106172000D03*
%TD*%
D14*
%TO.C,C5*%
X200406000Y-97015000D03*
X200406000Y-98565000D03*
%TD*%
%TO.C,C11*%
X151638000Y-79997000D03*
X151638000Y-81547000D03*
%TD*%
D16*
%TO.C,R41*%
X98187000Y-81788000D03*
X96537000Y-81788000D03*
%TD*%
D11*
%TO.C,C32*%
X99648000Y-89167000D03*
X99648000Y-87617000D03*
%TD*%
D34*
%TO.C,C2*%
X197866000Y-97077000D03*
X197866000Y-100027000D03*
%TD*%
D10*
%TO.C,C12*%
X161303000Y-92964000D03*
X159753000Y-92964000D03*
%TD*%
D35*
%TO.C,U2*%
X121244000Y-101870000D03*
X121244000Y-102370000D03*
X121244000Y-102870000D03*
X121244000Y-103370000D03*
X121244000Y-103870000D03*
X125644000Y-103870000D03*
X125644000Y-103370000D03*
X125644000Y-102870000D03*
X125644000Y-102370000D03*
X125644000Y-101870000D03*
%TD*%
D26*
%TO.C,C39*%
X194310000Y-87630000D03*
X195860000Y-87630000D03*
%TD*%
D10*
%TO.C,C8*%
X131839000Y-87630000D03*
X130289000Y-87630000D03*
%TD*%
D36*
%TO.C,J5*%
X224158000Y-98196000D03*
X224158000Y-97396000D03*
D37*
X224158000Y-96246000D03*
X224158000Y-95246000D03*
X224158000Y-94746000D03*
X224158000Y-93746000D03*
D36*
X224158000Y-92596000D03*
X224158000Y-91796000D03*
X224158000Y-91796000D03*
X224158000Y-92596000D03*
D37*
X224158000Y-93246000D03*
X224158000Y-94246000D03*
X224158000Y-95746000D03*
X224158000Y-96746000D03*
D36*
X224158000Y-97396000D03*
X224158000Y-98196000D03*
D38*
X224733000Y-99316000D03*
D39*
X228913000Y-99316000D03*
D38*
X224733000Y-90676000D03*
D39*
X228913000Y-90676000D03*
%TD*%
D13*
%TO.C,R16*%
X123442000Y-107188000D03*
X124462000Y-107188000D03*
%TD*%
%TO.C,R2*%
X214628000Y-91440000D03*
X215648000Y-91440000D03*
%TD*%
D40*
%TO.C,D8*%
X145007000Y-109220000D03*
X146097000Y-109220000D03*
%TD*%
D13*
%TO.C,R8*%
X179828000Y-84455000D03*
X180848000Y-84455000D03*
%TD*%
D24*
%TO.C,R42*%
X99648000Y-101867000D03*
X101298000Y-101867000D03*
%TD*%
D11*
%TO.C,C27*%
X173736000Y-97549000D03*
X173736000Y-95999000D03*
%TD*%
D14*
%TO.C,C3*%
X192278000Y-97028000D03*
X192278000Y-98578000D03*
%TD*%
D31*
%TO.C,R5*%
X185928000Y-84455000D03*
X184908000Y-84455000D03*
%TD*%
D13*
%TO.C,R7*%
X189990000Y-84455000D03*
X191010000Y-84455000D03*
%TD*%
D20*
%TO.C,R14*%
X126238000Y-105408000D03*
X126238000Y-106428000D03*
%TD*%
D41*
%TO.C,J3*%
X82935000Y-98680000D03*
X80935000Y-106080000D03*
D42*
X90335000Y-106080000D03*
%TD*%
D24*
%TO.C,R43*%
X99585000Y-97282000D03*
X101235000Y-97282000D03*
%TD*%
D43*
%TO.C,C1*%
X213311000Y-94996000D03*
X210361000Y-94996000D03*
%TD*%
D44*
%TO.C,C37*%
X132577952Y-98033952D03*
X132090048Y-97546048D03*
%TD*%
D20*
%TO.C,R15*%
X128270000Y-105406000D03*
X128270000Y-106426000D03*
%TD*%
D24*
%TO.C,R1*%
X144463000Y-110744000D03*
X146113000Y-110744000D03*
%TD*%
D13*
%TO.C,R36*%
X176020000Y-95758000D03*
X177040000Y-95758000D03*
%TD*%
D22*
%TO.C,D2*%
X184150000Y-95227000D03*
X184150000Y-94257000D03*
%TD*%
D11*
%TO.C,C23*%
X119380000Y-101613000D03*
X119380000Y-100063000D03*
%TD*%
D12*
%TO.C,R28*%
X141732000Y-81792000D03*
X141732000Y-80772000D03*
%TD*%
D24*
%TO.C,R50*%
X169101000Y-99822000D03*
X170751000Y-99822000D03*
%TD*%
D14*
%TO.C,C35*%
X98124000Y-97269000D03*
X98124000Y-98819000D03*
%TD*%
D28*
%TO.C,D12*%
X212390000Y-91440000D03*
X213360000Y-91440000D03*
%TD*%
D20*
%TO.C,R13*%
X127254000Y-105408000D03*
X127254000Y-106428000D03*
%TD*%
D45*
%TO.C,D6*%
X218440000Y-93689000D03*
X218440000Y-94779000D03*
%TD*%
D46*
%TO.C,R30*%
X150114000Y-79947000D03*
X150114000Y-81597000D03*
%TD*%
D13*
%TO.C,R3*%
X177288000Y-84455000D03*
X178308000Y-84455000D03*
%TD*%
D47*
%TO.C,R47*%
X103815500Y-106172000D03*
X105640500Y-106172000D03*
%TD*%
D10*
%TO.C,C20*%
X134887000Y-99822000D03*
X133337000Y-99822000D03*
%TD*%
D46*
%TO.C,R29*%
X138938000Y-79947000D03*
X138938000Y-81597000D03*
%TD*%
D26*
%TO.C,C29*%
X180835000Y-99060000D03*
X182385000Y-99060000D03*
%TD*%
%TO.C,C24*%
X120891000Y-100076000D03*
X122441000Y-100076000D03*
%TD*%
D24*
%TO.C,R49*%
X169101000Y-97282000D03*
X170751000Y-97282000D03*
%TD*%
D41*
%TO.C,J2*%
X82935000Y-81880000D03*
X80935000Y-89280000D03*
D42*
X90335000Y-89280000D03*
%TD*%
D48*
%TO.C,Y1*%
X133710066Y-95636117D03*
X132720117Y-96626066D03*
X133497934Y-97403883D03*
X134487883Y-96413934D03*
%TD*%
D11*
%TO.C,C19*%
X158496000Y-84087000D03*
X158496000Y-82537000D03*
%TD*%
D31*
%TO.C,R20*%
X175768000Y-84455000D03*
X174748000Y-84455000D03*
%TD*%
D14*
%TO.C,C33*%
X99648000Y-81775000D03*
X99648000Y-83325000D03*
%TD*%
D31*
%TO.C,R9*%
X200154000Y-92964000D03*
X199134000Y-92964000D03*
%TD*%
D49*
%TO.C,D9*%
X149653000Y-109220000D03*
X148563000Y-109220000D03*
%TD*%
D16*
%TO.C,R17*%
X150431000Y-110744000D03*
X148781000Y-110744000D03*
%TD*%
D47*
%TO.C,R48*%
X103815500Y-108712000D03*
X105640500Y-108712000D03*
%TD*%
D50*
%TO.C,D10*%
X218440000Y-97065000D03*
X218440000Y-95975000D03*
%TD*%
D51*
%TO.C,U4*%
X105195000Y-97495000D03*
X104545000Y-97495000D03*
X103895000Y-97495000D03*
X103245000Y-97495000D03*
X103245000Y-101895000D03*
X103895000Y-101895000D03*
X104545000Y-101895000D03*
X105195000Y-101895000D03*
%TD*%
D31*
%TO.C,R21*%
X192280000Y-87630000D03*
X191260000Y-87630000D03*
%TD*%
D10*
%TO.C,L1*%
X195352000Y-97028000D03*
X193802000Y-97028000D03*
%TD*%
D52*
%TO.C,R56*%
X134630048Y-98033952D03*
X135117952Y-97546048D03*
%TD*%
D53*
%TO.C,U3*%
X136652000Y-85230000D03*
X136652000Y-85730000D03*
X136652000Y-86230000D03*
X136652000Y-86730000D03*
X136652000Y-87230000D03*
X136652000Y-87730000D03*
X136652000Y-88230000D03*
X136652000Y-88730000D03*
X136652000Y-89230000D03*
X136652000Y-89730000D03*
X136652000Y-90230000D03*
X136652000Y-90730000D03*
X136652000Y-91230000D03*
X136652000Y-91730000D03*
X136652000Y-92230000D03*
X136652000Y-92730000D03*
X136652000Y-93230000D03*
X136652000Y-93730000D03*
X136652000Y-94230000D03*
X136652000Y-94730000D03*
X136652000Y-95230000D03*
X136652000Y-95730000D03*
X136652000Y-96230000D03*
X136652000Y-96730000D03*
X136652000Y-97230000D03*
X136652000Y-97730000D03*
X136652000Y-98230000D03*
X136652000Y-98730000D03*
X136652000Y-99230000D03*
X136652000Y-99730000D03*
X136652000Y-100230000D03*
X136652000Y-100730000D03*
X136652000Y-101230000D03*
X136652000Y-101730000D03*
X136652000Y-102230000D03*
X136652000Y-102730000D03*
D54*
X138564500Y-104642500D03*
X139064500Y-104642500D03*
X139564500Y-104642500D03*
X140064500Y-104642500D03*
X140564500Y-104642500D03*
X141064500Y-104642500D03*
X141564500Y-104642500D03*
X142064500Y-104642500D03*
X142564500Y-104642500D03*
X143064500Y-104642500D03*
X143564500Y-104642500D03*
X144064500Y-104642500D03*
X144564500Y-104642500D03*
X145064500Y-104642500D03*
X145564500Y-104642500D03*
X146064500Y-104642500D03*
X146564500Y-104642500D03*
X147064500Y-104642500D03*
X147564500Y-104642500D03*
X148064500Y-104642500D03*
X148564500Y-104642500D03*
X149064500Y-104642500D03*
X149564500Y-104642500D03*
X150064500Y-104642500D03*
X150564500Y-104642500D03*
X151064500Y-104642500D03*
X151564500Y-104642500D03*
X152064500Y-104642500D03*
X152564500Y-104642500D03*
X153064500Y-104642500D03*
X153564500Y-104642500D03*
X154064500Y-104642500D03*
X154564500Y-104642500D03*
X155064500Y-104642500D03*
X155564500Y-104642500D03*
X156064500Y-104642500D03*
D53*
X157977000Y-102730000D03*
X157977000Y-102230000D03*
X157977000Y-101730000D03*
X157977000Y-101230000D03*
X157977000Y-100730000D03*
X157977000Y-100230000D03*
X157977000Y-99730000D03*
X157977000Y-99230000D03*
X157977000Y-98730000D03*
X157977000Y-98230000D03*
X157977000Y-97730000D03*
X157977000Y-97230000D03*
X157977000Y-96730000D03*
X157977000Y-96230000D03*
X157977000Y-95730000D03*
X157977000Y-95230000D03*
X157977000Y-94730000D03*
X157977000Y-94230000D03*
X157977000Y-93730000D03*
X157977000Y-93230000D03*
X157977000Y-92730000D03*
X157977000Y-92230000D03*
X157977000Y-91730000D03*
X157977000Y-91230000D03*
X157977000Y-90730000D03*
X157977000Y-90230000D03*
X157977000Y-89730000D03*
X157977000Y-89230000D03*
X157977000Y-88730000D03*
X157977000Y-88230000D03*
X157977000Y-87730000D03*
X157977000Y-87230000D03*
X157977000Y-86730000D03*
X157977000Y-86230000D03*
X157977000Y-85730000D03*
X157977000Y-85230000D03*
D54*
X156064500Y-83317500D03*
X155564500Y-83317500D03*
X155064500Y-83317500D03*
X154564500Y-83317500D03*
X154064500Y-83317500D03*
X153564500Y-83317500D03*
X153064500Y-83317500D03*
X152564500Y-83317500D03*
X152064500Y-83317500D03*
X151564500Y-83317500D03*
X151064500Y-83317500D03*
X150564500Y-83317500D03*
X150064500Y-83317500D03*
X149564500Y-83317500D03*
X149064500Y-83317500D03*
X148564500Y-83317500D03*
X148064500Y-83317500D03*
X147564500Y-83317500D03*
X147064500Y-83317500D03*
X146564500Y-83317500D03*
X146064500Y-83317500D03*
X145564500Y-83317500D03*
X145064500Y-83317500D03*
X144564500Y-83317500D03*
X144064500Y-83317500D03*
X143564500Y-83317500D03*
X143064500Y-83317500D03*
X142564500Y-83317500D03*
X142064500Y-83317500D03*
X141564500Y-83317500D03*
X141064500Y-83317500D03*
X140564500Y-83317500D03*
X140064500Y-83317500D03*
X139564500Y-83317500D03*
X139064500Y-83317500D03*
X138564500Y-83317500D03*
%TD*%
D10*
%TO.C,C16*%
X146063000Y-106426000D03*
X144513000Y-106426000D03*
%TD*%
M02*
