%TF.GenerationSoftware,KiCad,Pcbnew,7.0.8*%
%TF.CreationDate,2024-02-04T20:23:02+01:00*%
%TF.ProjectId,schneidbrett,7363686e-6569-4646-9272-6574742e6b69,rev?*%
%TF.SameCoordinates,Original*%
%TF.FileFunction,Soldermask,Bot*%
%TF.FilePolarity,Negative*%
%FSLAX46Y46*%
G04 Gerber Fmt 4.6, Leading zero omitted, Abs format (unit mm)*
G04 Created by KiCad (PCBNEW 7.0.8) date 2024-02-04 20:23:02*
%MOMM*%
%LPD*%
G01*
G04 APERTURE LIST*
G04 APERTURE END LIST*
G36*
X81779447Y-109732496D02*
G01*
X82104903Y-109809631D01*
X82419205Y-109924027D01*
X82718100Y-110074138D01*
X82997548Y-110257933D01*
X83253768Y-110472928D01*
X83483297Y-110716214D01*
X83683030Y-110984502D01*
X83850266Y-111274164D01*
X83982744Y-111581282D01*
X84078672Y-111901703D01*
X84136752Y-112231094D01*
X84156200Y-112565000D01*
X84136752Y-112898906D01*
X84078672Y-113228297D01*
X83982744Y-113548718D01*
X83850266Y-113855836D01*
X83683030Y-114145498D01*
X83483297Y-114413786D01*
X83253768Y-114657072D01*
X82997548Y-114872067D01*
X82718100Y-115055862D01*
X82419205Y-115205973D01*
X82104903Y-115320369D01*
X81779447Y-115397504D01*
X81447236Y-115436334D01*
X81112764Y-115436334D01*
X80780553Y-115397504D01*
X80455097Y-115320369D01*
X80140795Y-115205973D01*
X79841900Y-115055862D01*
X79562452Y-114872067D01*
X79306232Y-114657072D01*
X79076703Y-114413786D01*
X78876970Y-114145498D01*
X78709734Y-113855836D01*
X78577256Y-113548718D01*
X78481328Y-113228297D01*
X78423248Y-112898906D01*
X78403800Y-112565000D01*
X78423248Y-112231094D01*
X78481328Y-111901703D01*
X78577256Y-111581282D01*
X78709734Y-111274164D01*
X78876970Y-110984502D01*
X79076703Y-110716214D01*
X79306232Y-110472928D01*
X79562452Y-110257933D01*
X79841900Y-110074138D01*
X80140795Y-109924027D01*
X80455097Y-109809631D01*
X80780553Y-109732496D01*
X81112764Y-109693666D01*
X81447236Y-109693666D01*
X81779447Y-109732496D01*
G37*
G36*
X226559447Y-109732496D02*
G01*
X226884903Y-109809631D01*
X227199205Y-109924027D01*
X227498100Y-110074138D01*
X227777548Y-110257933D01*
X228033768Y-110472928D01*
X228263297Y-110716214D01*
X228463030Y-110984502D01*
X228630266Y-111274164D01*
X228762744Y-111581282D01*
X228858672Y-111901703D01*
X228916752Y-112231094D01*
X228936200Y-112565000D01*
X228916752Y-112898906D01*
X228858672Y-113228297D01*
X228762744Y-113548718D01*
X228630266Y-113855836D01*
X228463030Y-114145498D01*
X228263297Y-114413786D01*
X228033768Y-114657072D01*
X227777548Y-114872067D01*
X227498100Y-115055862D01*
X227199205Y-115205973D01*
X226884903Y-115320369D01*
X226559447Y-115397504D01*
X226227236Y-115436334D01*
X225892764Y-115436334D01*
X225560553Y-115397504D01*
X225235097Y-115320369D01*
X224920795Y-115205973D01*
X224621900Y-115055862D01*
X224342452Y-114872067D01*
X224086232Y-114657072D01*
X223856703Y-114413786D01*
X223656970Y-114145498D01*
X223489734Y-113855836D01*
X223357256Y-113548718D01*
X223261328Y-113228297D01*
X223203248Y-112898906D01*
X223183800Y-112565000D01*
X223203248Y-112231094D01*
X223261328Y-111901703D01*
X223357256Y-111581282D01*
X223489734Y-111274164D01*
X223656970Y-110984502D01*
X223856703Y-110716214D01*
X224086232Y-110472928D01*
X224342452Y-110257933D01*
X224621900Y-110074138D01*
X224920795Y-109924027D01*
X225235097Y-109809631D01*
X225560553Y-109732496D01*
X225892764Y-109693666D01*
X226227236Y-109693666D01*
X226559447Y-109732496D01*
G37*
G36*
X154793160Y-112363600D02*
G01*
X154817882Y-112380118D01*
X154834400Y-112404840D01*
X154840200Y-112434000D01*
X154840200Y-114134000D01*
X154834400Y-114163160D01*
X154817882Y-114187882D01*
X154793160Y-114204400D01*
X154764000Y-114210200D01*
X153064000Y-114210200D01*
X153034840Y-114204400D01*
X153010118Y-114187882D01*
X152993600Y-114163160D01*
X152987800Y-114134000D01*
X152987800Y-112434000D01*
X152993600Y-112404840D01*
X153010118Y-112380118D01*
X153034840Y-112363600D01*
X153064000Y-112357800D01*
X154764000Y-112357800D01*
X154793160Y-112363600D01*
G37*
G36*
X169281160Y-112363600D02*
G01*
X169305882Y-112380118D01*
X169322400Y-112404840D01*
X169328200Y-112434000D01*
X169328200Y-114134000D01*
X169322400Y-114163160D01*
X169305882Y-114187882D01*
X169281160Y-114204400D01*
X169252000Y-114210200D01*
X167552000Y-114210200D01*
X167522840Y-114204400D01*
X167498118Y-114187882D01*
X167481600Y-114163160D01*
X167475800Y-114134000D01*
X167475800Y-112434000D01*
X167481600Y-112404840D01*
X167498118Y-112380118D01*
X167522840Y-112363600D01*
X167552000Y-112357800D01*
X169252000Y-112357800D01*
X169281160Y-112363600D01*
G37*
G36*
X146342450Y-112362874D02*
G01*
X146390814Y-112362874D01*
X146432576Y-112371750D01*
X146474633Y-112375893D01*
X146527466Y-112391919D01*
X146580212Y-112403131D01*
X146613964Y-112418158D01*
X146648326Y-112428582D01*
X146702935Y-112457771D01*
X146757100Y-112481887D01*
X146782281Y-112500182D01*
X146808402Y-112514144D01*
X146861682Y-112557870D01*
X146913749Y-112595699D01*
X146930655Y-112614475D01*
X146948708Y-112629291D01*
X146997221Y-112688404D01*
X147043312Y-112739593D01*
X147052994Y-112756363D01*
X147063855Y-112769597D01*
X147104036Y-112844772D01*
X147140126Y-112907281D01*
X147144277Y-112920056D01*
X147149417Y-112929673D01*
X147177757Y-113023098D01*
X147199960Y-113091432D01*
X147200741Y-113098868D01*
X147202106Y-113103366D01*
X147215384Y-113238186D01*
X147220200Y-113284000D01*
X147215384Y-113329817D01*
X147202106Y-113464633D01*
X147200741Y-113469130D01*
X147199960Y-113476568D01*
X147177752Y-113544915D01*
X147149417Y-113638326D01*
X147144277Y-113647940D01*
X147140126Y-113660719D01*
X147104029Y-113723240D01*
X147063855Y-113798402D01*
X147052996Y-113811633D01*
X147043312Y-113828407D01*
X146997212Y-113879606D01*
X146948708Y-113938708D01*
X146930659Y-113953520D01*
X146913749Y-113972301D01*
X146861672Y-114010136D01*
X146808402Y-114053855D01*
X146782286Y-114067813D01*
X146757100Y-114086113D01*
X146702924Y-114110233D01*
X146648326Y-114139417D01*
X146613971Y-114149838D01*
X146580212Y-114164869D01*
X146527455Y-114176082D01*
X146474633Y-114192106D01*
X146432585Y-114196247D01*
X146390814Y-114205126D01*
X146342440Y-114205126D01*
X146294000Y-114209897D01*
X146245560Y-114205126D01*
X146197186Y-114205126D01*
X146155415Y-114196247D01*
X146113366Y-114192106D01*
X146060541Y-114176081D01*
X146007788Y-114164869D01*
X145974031Y-114149839D01*
X145939673Y-114139417D01*
X145885069Y-114110230D01*
X145830900Y-114086113D01*
X145805716Y-114067815D01*
X145779597Y-114053855D01*
X145726319Y-114010130D01*
X145674251Y-113972301D01*
X145657343Y-113953523D01*
X145639291Y-113938708D01*
X145590776Y-113879593D01*
X145544688Y-113828407D01*
X145535006Y-113811637D01*
X145524144Y-113798402D01*
X145483956Y-113723216D01*
X145447874Y-113660719D01*
X145443723Y-113647945D01*
X145438582Y-113638326D01*
X145410232Y-113544869D01*
X145388040Y-113476568D01*
X145387258Y-113469135D01*
X145385893Y-113464633D01*
X145372599Y-113329666D01*
X145367800Y-113284000D01*
X145372599Y-113238337D01*
X145385893Y-113103366D01*
X145387258Y-113098863D01*
X145388040Y-113091432D01*
X145410227Y-113023145D01*
X145438582Y-112929673D01*
X145443724Y-112920052D01*
X145447874Y-112907281D01*
X145483949Y-112844795D01*
X145524144Y-112769597D01*
X145535008Y-112756359D01*
X145544688Y-112739593D01*
X145590767Y-112688416D01*
X145639291Y-112629291D01*
X145657347Y-112614472D01*
X145674251Y-112595699D01*
X145726308Y-112557877D01*
X145779597Y-112514144D01*
X145805721Y-112500180D01*
X145830900Y-112481887D01*
X145885058Y-112457774D01*
X145939673Y-112428582D01*
X145974038Y-112418157D01*
X146007788Y-112403131D01*
X146060530Y-112391920D01*
X146113366Y-112375893D01*
X146155423Y-112371750D01*
X146197186Y-112362874D01*
X146245549Y-112362874D01*
X146294000Y-112358102D01*
X146342450Y-112362874D01*
G37*
G36*
X148882450Y-112362874D02*
G01*
X148930814Y-112362874D01*
X148972576Y-112371750D01*
X149014633Y-112375893D01*
X149067466Y-112391919D01*
X149120212Y-112403131D01*
X149153964Y-112418158D01*
X149188326Y-112428582D01*
X149242935Y-112457771D01*
X149297100Y-112481887D01*
X149322281Y-112500182D01*
X149348402Y-112514144D01*
X149401682Y-112557870D01*
X149453749Y-112595699D01*
X149470655Y-112614475D01*
X149488708Y-112629291D01*
X149537221Y-112688404D01*
X149583312Y-112739593D01*
X149592994Y-112756363D01*
X149603855Y-112769597D01*
X149644036Y-112844772D01*
X149680126Y-112907281D01*
X149684277Y-112920056D01*
X149689417Y-112929673D01*
X149717757Y-113023098D01*
X149739960Y-113091432D01*
X149740741Y-113098868D01*
X149742106Y-113103366D01*
X149755384Y-113238186D01*
X149760200Y-113284000D01*
X149755384Y-113329817D01*
X149742106Y-113464633D01*
X149740741Y-113469130D01*
X149739960Y-113476568D01*
X149717752Y-113544915D01*
X149689417Y-113638326D01*
X149684277Y-113647940D01*
X149680126Y-113660719D01*
X149644029Y-113723240D01*
X149603855Y-113798402D01*
X149592996Y-113811633D01*
X149583312Y-113828407D01*
X149537212Y-113879606D01*
X149488708Y-113938708D01*
X149470659Y-113953520D01*
X149453749Y-113972301D01*
X149401672Y-114010136D01*
X149348402Y-114053855D01*
X149322286Y-114067813D01*
X149297100Y-114086113D01*
X149242924Y-114110233D01*
X149188326Y-114139417D01*
X149153971Y-114149838D01*
X149120212Y-114164869D01*
X149067455Y-114176082D01*
X149014633Y-114192106D01*
X148972585Y-114196247D01*
X148930814Y-114205126D01*
X148882440Y-114205126D01*
X148834000Y-114209897D01*
X148785560Y-114205126D01*
X148737186Y-114205126D01*
X148695415Y-114196247D01*
X148653366Y-114192106D01*
X148600541Y-114176081D01*
X148547788Y-114164869D01*
X148514031Y-114149839D01*
X148479673Y-114139417D01*
X148425069Y-114110230D01*
X148370900Y-114086113D01*
X148345716Y-114067815D01*
X148319597Y-114053855D01*
X148266319Y-114010130D01*
X148214251Y-113972301D01*
X148197343Y-113953523D01*
X148179291Y-113938708D01*
X148130776Y-113879593D01*
X148084688Y-113828407D01*
X148075006Y-113811637D01*
X148064144Y-113798402D01*
X148023956Y-113723216D01*
X147987874Y-113660719D01*
X147983723Y-113647945D01*
X147978582Y-113638326D01*
X147950232Y-113544869D01*
X147928040Y-113476568D01*
X147927258Y-113469135D01*
X147925893Y-113464633D01*
X147912599Y-113329666D01*
X147907800Y-113284000D01*
X147912599Y-113238337D01*
X147925893Y-113103366D01*
X147927258Y-113098863D01*
X147928040Y-113091432D01*
X147950227Y-113023145D01*
X147978582Y-112929673D01*
X147983724Y-112920052D01*
X147987874Y-112907281D01*
X148023949Y-112844795D01*
X148064144Y-112769597D01*
X148075008Y-112756359D01*
X148084688Y-112739593D01*
X148130767Y-112688416D01*
X148179291Y-112629291D01*
X148197347Y-112614472D01*
X148214251Y-112595699D01*
X148266308Y-112557877D01*
X148319597Y-112514144D01*
X148345721Y-112500180D01*
X148370900Y-112481887D01*
X148425058Y-112457774D01*
X148479673Y-112428582D01*
X148514038Y-112418157D01*
X148547788Y-112403131D01*
X148600530Y-112391920D01*
X148653366Y-112375893D01*
X148695423Y-112371750D01*
X148737186Y-112362874D01*
X148785549Y-112362874D01*
X148834000Y-112358102D01*
X148882450Y-112362874D01*
G37*
G36*
X151422450Y-112362874D02*
G01*
X151470814Y-112362874D01*
X151512576Y-112371750D01*
X151554633Y-112375893D01*
X151607466Y-112391919D01*
X151660212Y-112403131D01*
X151693964Y-112418158D01*
X151728326Y-112428582D01*
X151782935Y-112457771D01*
X151837100Y-112481887D01*
X151862281Y-112500182D01*
X151888402Y-112514144D01*
X151941682Y-112557870D01*
X151993749Y-112595699D01*
X152010655Y-112614475D01*
X152028708Y-112629291D01*
X152077221Y-112688404D01*
X152123312Y-112739593D01*
X152132994Y-112756363D01*
X152143855Y-112769597D01*
X152184036Y-112844772D01*
X152220126Y-112907281D01*
X152224277Y-112920056D01*
X152229417Y-112929673D01*
X152257757Y-113023098D01*
X152279960Y-113091432D01*
X152280741Y-113098868D01*
X152282106Y-113103366D01*
X152295384Y-113238186D01*
X152300200Y-113284000D01*
X152295384Y-113329817D01*
X152282106Y-113464633D01*
X152280741Y-113469130D01*
X152279960Y-113476568D01*
X152257752Y-113544915D01*
X152229417Y-113638326D01*
X152224277Y-113647940D01*
X152220126Y-113660719D01*
X152184029Y-113723240D01*
X152143855Y-113798402D01*
X152132996Y-113811633D01*
X152123312Y-113828407D01*
X152077212Y-113879606D01*
X152028708Y-113938708D01*
X152010659Y-113953520D01*
X151993749Y-113972301D01*
X151941672Y-114010136D01*
X151888402Y-114053855D01*
X151862286Y-114067813D01*
X151837100Y-114086113D01*
X151782924Y-114110233D01*
X151728326Y-114139417D01*
X151693971Y-114149838D01*
X151660212Y-114164869D01*
X151607455Y-114176082D01*
X151554633Y-114192106D01*
X151512585Y-114196247D01*
X151470814Y-114205126D01*
X151422440Y-114205126D01*
X151374000Y-114209897D01*
X151325560Y-114205126D01*
X151277186Y-114205126D01*
X151235415Y-114196247D01*
X151193366Y-114192106D01*
X151140541Y-114176081D01*
X151087788Y-114164869D01*
X151054031Y-114149839D01*
X151019673Y-114139417D01*
X150965069Y-114110230D01*
X150910900Y-114086113D01*
X150885716Y-114067815D01*
X150859597Y-114053855D01*
X150806319Y-114010130D01*
X150754251Y-113972301D01*
X150737343Y-113953523D01*
X150719291Y-113938708D01*
X150670776Y-113879593D01*
X150624688Y-113828407D01*
X150615006Y-113811637D01*
X150604144Y-113798402D01*
X150563956Y-113723216D01*
X150527874Y-113660719D01*
X150523723Y-113647945D01*
X150518582Y-113638326D01*
X150490232Y-113544869D01*
X150468040Y-113476568D01*
X150467258Y-113469135D01*
X150465893Y-113464633D01*
X150452599Y-113329666D01*
X150447800Y-113284000D01*
X150452599Y-113238337D01*
X150465893Y-113103366D01*
X150467258Y-113098863D01*
X150468040Y-113091432D01*
X150490227Y-113023145D01*
X150518582Y-112929673D01*
X150523724Y-112920052D01*
X150527874Y-112907281D01*
X150563949Y-112844795D01*
X150604144Y-112769597D01*
X150615008Y-112756359D01*
X150624688Y-112739593D01*
X150670767Y-112688416D01*
X150719291Y-112629291D01*
X150737347Y-112614472D01*
X150754251Y-112595699D01*
X150806308Y-112557877D01*
X150859597Y-112514144D01*
X150885721Y-112500180D01*
X150910900Y-112481887D01*
X150965058Y-112457774D01*
X151019673Y-112428582D01*
X151054038Y-112418157D01*
X151087788Y-112403131D01*
X151140530Y-112391920D01*
X151193366Y-112375893D01*
X151235423Y-112371750D01*
X151277186Y-112362874D01*
X151325549Y-112362874D01*
X151374000Y-112358102D01*
X151422450Y-112362874D01*
G37*
G36*
X160830450Y-112362874D02*
G01*
X160878814Y-112362874D01*
X160920576Y-112371750D01*
X160962633Y-112375893D01*
X161015466Y-112391919D01*
X161068212Y-112403131D01*
X161101964Y-112418158D01*
X161136326Y-112428582D01*
X161190935Y-112457771D01*
X161245100Y-112481887D01*
X161270281Y-112500182D01*
X161296402Y-112514144D01*
X161349682Y-112557870D01*
X161401749Y-112595699D01*
X161418655Y-112614475D01*
X161436708Y-112629291D01*
X161485221Y-112688404D01*
X161531312Y-112739593D01*
X161540994Y-112756363D01*
X161551855Y-112769597D01*
X161592036Y-112844772D01*
X161628126Y-112907281D01*
X161632277Y-112920056D01*
X161637417Y-112929673D01*
X161665757Y-113023098D01*
X161687960Y-113091432D01*
X161688741Y-113098868D01*
X161690106Y-113103366D01*
X161703384Y-113238186D01*
X161708200Y-113284000D01*
X161703384Y-113329817D01*
X161690106Y-113464633D01*
X161688741Y-113469130D01*
X161687960Y-113476568D01*
X161665752Y-113544915D01*
X161637417Y-113638326D01*
X161632277Y-113647940D01*
X161628126Y-113660719D01*
X161592029Y-113723240D01*
X161551855Y-113798402D01*
X161540996Y-113811633D01*
X161531312Y-113828407D01*
X161485212Y-113879606D01*
X161436708Y-113938708D01*
X161418659Y-113953520D01*
X161401749Y-113972301D01*
X161349672Y-114010136D01*
X161296402Y-114053855D01*
X161270286Y-114067813D01*
X161245100Y-114086113D01*
X161190924Y-114110233D01*
X161136326Y-114139417D01*
X161101971Y-114149838D01*
X161068212Y-114164869D01*
X161015455Y-114176082D01*
X160962633Y-114192106D01*
X160920585Y-114196247D01*
X160878814Y-114205126D01*
X160830440Y-114205126D01*
X160782000Y-114209897D01*
X160733560Y-114205126D01*
X160685186Y-114205126D01*
X160643415Y-114196247D01*
X160601366Y-114192106D01*
X160548541Y-114176081D01*
X160495788Y-114164869D01*
X160462031Y-114149839D01*
X160427673Y-114139417D01*
X160373069Y-114110230D01*
X160318900Y-114086113D01*
X160293716Y-114067815D01*
X160267597Y-114053855D01*
X160214319Y-114010130D01*
X160162251Y-113972301D01*
X160145343Y-113953523D01*
X160127291Y-113938708D01*
X160078776Y-113879593D01*
X160032688Y-113828407D01*
X160023006Y-113811637D01*
X160012144Y-113798402D01*
X159971956Y-113723216D01*
X159935874Y-113660719D01*
X159931723Y-113647945D01*
X159926582Y-113638326D01*
X159898232Y-113544869D01*
X159876040Y-113476568D01*
X159875258Y-113469135D01*
X159873893Y-113464633D01*
X159860599Y-113329666D01*
X159855800Y-113284000D01*
X159860599Y-113238337D01*
X159873893Y-113103366D01*
X159875258Y-113098863D01*
X159876040Y-113091432D01*
X159898227Y-113023145D01*
X159926582Y-112929673D01*
X159931724Y-112920052D01*
X159935874Y-112907281D01*
X159971949Y-112844795D01*
X160012144Y-112769597D01*
X160023008Y-112756359D01*
X160032688Y-112739593D01*
X160078767Y-112688416D01*
X160127291Y-112629291D01*
X160145347Y-112614472D01*
X160162251Y-112595699D01*
X160214308Y-112557877D01*
X160267597Y-112514144D01*
X160293721Y-112500180D01*
X160318900Y-112481887D01*
X160373058Y-112457774D01*
X160427673Y-112428582D01*
X160462038Y-112418157D01*
X160495788Y-112403131D01*
X160548530Y-112391920D01*
X160601366Y-112375893D01*
X160643423Y-112371750D01*
X160685186Y-112362874D01*
X160733549Y-112362874D01*
X160782000Y-112358102D01*
X160830450Y-112362874D01*
G37*
G36*
X163370450Y-112362874D02*
G01*
X163418814Y-112362874D01*
X163460576Y-112371750D01*
X163502633Y-112375893D01*
X163555466Y-112391919D01*
X163608212Y-112403131D01*
X163641964Y-112418158D01*
X163676326Y-112428582D01*
X163730935Y-112457771D01*
X163785100Y-112481887D01*
X163810281Y-112500182D01*
X163836402Y-112514144D01*
X163889682Y-112557870D01*
X163941749Y-112595699D01*
X163958655Y-112614475D01*
X163976708Y-112629291D01*
X164025221Y-112688404D01*
X164071312Y-112739593D01*
X164080994Y-112756363D01*
X164091855Y-112769597D01*
X164132036Y-112844772D01*
X164168126Y-112907281D01*
X164172277Y-112920056D01*
X164177417Y-112929673D01*
X164205757Y-113023098D01*
X164227960Y-113091432D01*
X164228741Y-113098868D01*
X164230106Y-113103366D01*
X164243384Y-113238186D01*
X164248200Y-113284000D01*
X164243384Y-113329817D01*
X164230106Y-113464633D01*
X164228741Y-113469130D01*
X164227960Y-113476568D01*
X164205752Y-113544915D01*
X164177417Y-113638326D01*
X164172277Y-113647940D01*
X164168126Y-113660719D01*
X164132029Y-113723240D01*
X164091855Y-113798402D01*
X164080996Y-113811633D01*
X164071312Y-113828407D01*
X164025212Y-113879606D01*
X163976708Y-113938708D01*
X163958659Y-113953520D01*
X163941749Y-113972301D01*
X163889672Y-114010136D01*
X163836402Y-114053855D01*
X163810286Y-114067813D01*
X163785100Y-114086113D01*
X163730924Y-114110233D01*
X163676326Y-114139417D01*
X163641971Y-114149838D01*
X163608212Y-114164869D01*
X163555455Y-114176082D01*
X163502633Y-114192106D01*
X163460585Y-114196247D01*
X163418814Y-114205126D01*
X163370440Y-114205126D01*
X163322000Y-114209897D01*
X163273560Y-114205126D01*
X163225186Y-114205126D01*
X163183415Y-114196247D01*
X163141366Y-114192106D01*
X163088541Y-114176081D01*
X163035788Y-114164869D01*
X163002031Y-114149839D01*
X162967673Y-114139417D01*
X162913069Y-114110230D01*
X162858900Y-114086113D01*
X162833716Y-114067815D01*
X162807597Y-114053855D01*
X162754319Y-114010130D01*
X162702251Y-113972301D01*
X162685343Y-113953523D01*
X162667291Y-113938708D01*
X162618776Y-113879593D01*
X162572688Y-113828407D01*
X162563006Y-113811637D01*
X162552144Y-113798402D01*
X162511956Y-113723216D01*
X162475874Y-113660719D01*
X162471723Y-113647945D01*
X162466582Y-113638326D01*
X162438232Y-113544869D01*
X162416040Y-113476568D01*
X162415258Y-113469135D01*
X162413893Y-113464633D01*
X162400599Y-113329666D01*
X162395800Y-113284000D01*
X162400599Y-113238337D01*
X162413893Y-113103366D01*
X162415258Y-113098863D01*
X162416040Y-113091432D01*
X162438227Y-113023145D01*
X162466582Y-112929673D01*
X162471724Y-112920052D01*
X162475874Y-112907281D01*
X162511949Y-112844795D01*
X162552144Y-112769597D01*
X162563008Y-112756359D01*
X162572688Y-112739593D01*
X162618767Y-112688416D01*
X162667291Y-112629291D01*
X162685347Y-112614472D01*
X162702251Y-112595699D01*
X162754308Y-112557877D01*
X162807597Y-112514144D01*
X162833721Y-112500180D01*
X162858900Y-112481887D01*
X162913058Y-112457774D01*
X162967673Y-112428582D01*
X163002038Y-112418157D01*
X163035788Y-112403131D01*
X163088530Y-112391920D01*
X163141366Y-112375893D01*
X163183423Y-112371750D01*
X163225186Y-112362874D01*
X163273549Y-112362874D01*
X163322000Y-112358102D01*
X163370450Y-112362874D01*
G37*
G36*
X165910450Y-112362874D02*
G01*
X165958814Y-112362874D01*
X166000576Y-112371750D01*
X166042633Y-112375893D01*
X166095466Y-112391919D01*
X166148212Y-112403131D01*
X166181964Y-112418158D01*
X166216326Y-112428582D01*
X166270935Y-112457771D01*
X166325100Y-112481887D01*
X166350281Y-112500182D01*
X166376402Y-112514144D01*
X166429682Y-112557870D01*
X166481749Y-112595699D01*
X166498655Y-112614475D01*
X166516708Y-112629291D01*
X166565221Y-112688404D01*
X166611312Y-112739593D01*
X166620994Y-112756363D01*
X166631855Y-112769597D01*
X166672036Y-112844772D01*
X166708126Y-112907281D01*
X166712277Y-112920056D01*
X166717417Y-112929673D01*
X166745757Y-113023098D01*
X166767960Y-113091432D01*
X166768741Y-113098868D01*
X166770106Y-113103366D01*
X166783384Y-113238186D01*
X166788200Y-113284000D01*
X166783384Y-113329817D01*
X166770106Y-113464633D01*
X166768741Y-113469130D01*
X166767960Y-113476568D01*
X166745752Y-113544915D01*
X166717417Y-113638326D01*
X166712277Y-113647940D01*
X166708126Y-113660719D01*
X166672029Y-113723240D01*
X166631855Y-113798402D01*
X166620996Y-113811633D01*
X166611312Y-113828407D01*
X166565212Y-113879606D01*
X166516708Y-113938708D01*
X166498659Y-113953520D01*
X166481749Y-113972301D01*
X166429672Y-114010136D01*
X166376402Y-114053855D01*
X166350286Y-114067813D01*
X166325100Y-114086113D01*
X166270924Y-114110233D01*
X166216326Y-114139417D01*
X166181971Y-114149838D01*
X166148212Y-114164869D01*
X166095455Y-114176082D01*
X166042633Y-114192106D01*
X166000585Y-114196247D01*
X165958814Y-114205126D01*
X165910440Y-114205126D01*
X165862000Y-114209897D01*
X165813560Y-114205126D01*
X165765186Y-114205126D01*
X165723415Y-114196247D01*
X165681366Y-114192106D01*
X165628541Y-114176081D01*
X165575788Y-114164869D01*
X165542031Y-114149839D01*
X165507673Y-114139417D01*
X165453069Y-114110230D01*
X165398900Y-114086113D01*
X165373716Y-114067815D01*
X165347597Y-114053855D01*
X165294319Y-114010130D01*
X165242251Y-113972301D01*
X165225343Y-113953523D01*
X165207291Y-113938708D01*
X165158776Y-113879593D01*
X165112688Y-113828407D01*
X165103006Y-113811637D01*
X165092144Y-113798402D01*
X165051956Y-113723216D01*
X165015874Y-113660719D01*
X165011723Y-113647945D01*
X165006582Y-113638326D01*
X164978232Y-113544869D01*
X164956040Y-113476568D01*
X164955258Y-113469135D01*
X164953893Y-113464633D01*
X164940599Y-113329666D01*
X164935800Y-113284000D01*
X164940599Y-113238337D01*
X164953893Y-113103366D01*
X164955258Y-113098863D01*
X164956040Y-113091432D01*
X164978227Y-113023145D01*
X165006582Y-112929673D01*
X165011724Y-112920052D01*
X165015874Y-112907281D01*
X165051949Y-112844795D01*
X165092144Y-112769597D01*
X165103008Y-112756359D01*
X165112688Y-112739593D01*
X165158767Y-112688416D01*
X165207291Y-112629291D01*
X165225347Y-112614472D01*
X165242251Y-112595699D01*
X165294308Y-112557877D01*
X165347597Y-112514144D01*
X165373721Y-112500180D01*
X165398900Y-112481887D01*
X165453058Y-112457774D01*
X165507673Y-112428582D01*
X165542038Y-112418157D01*
X165575788Y-112403131D01*
X165628530Y-112391920D01*
X165681366Y-112375893D01*
X165723423Y-112371750D01*
X165765186Y-112362874D01*
X165813549Y-112362874D01*
X165862000Y-112358102D01*
X165910450Y-112362874D01*
G37*
G36*
X167249160Y-103971600D02*
G01*
X167273882Y-103988118D01*
X167290400Y-104012840D01*
X167296200Y-104042000D01*
X167296200Y-105742000D01*
X167290400Y-105771160D01*
X167273882Y-105795882D01*
X167249160Y-105812400D01*
X167220000Y-105818200D01*
X165520000Y-105818200D01*
X165490840Y-105812400D01*
X165466118Y-105795882D01*
X165449600Y-105771160D01*
X165443800Y-105742000D01*
X165443800Y-104042000D01*
X165449600Y-104012840D01*
X165466118Y-103988118D01*
X165490840Y-103971600D01*
X165520000Y-103965800D01*
X167220000Y-103965800D01*
X167249160Y-103971600D01*
G37*
G36*
X82083450Y-101458874D02*
G01*
X82131814Y-101458874D01*
X82173576Y-101467750D01*
X82215633Y-101471893D01*
X82268466Y-101487919D01*
X82321212Y-101499131D01*
X82354964Y-101514158D01*
X82389326Y-101524582D01*
X82443935Y-101553771D01*
X82498100Y-101577887D01*
X82523281Y-101596182D01*
X82549402Y-101610144D01*
X82602682Y-101653870D01*
X82654749Y-101691699D01*
X82671655Y-101710475D01*
X82689708Y-101725291D01*
X82738221Y-101784404D01*
X82784312Y-101835593D01*
X82793994Y-101852363D01*
X82804855Y-101865597D01*
X82845036Y-101940772D01*
X82881126Y-102003281D01*
X82885277Y-102016056D01*
X82890417Y-102025673D01*
X82918757Y-102119098D01*
X82940960Y-102187432D01*
X82941741Y-102194868D01*
X82943106Y-102199366D01*
X82956384Y-102334186D01*
X82961200Y-102380000D01*
X82956384Y-102425817D01*
X82943106Y-102560633D01*
X82941741Y-102565130D01*
X82940960Y-102572568D01*
X82918752Y-102640915D01*
X82890417Y-102734326D01*
X82885277Y-102743940D01*
X82881126Y-102756719D01*
X82845029Y-102819240D01*
X82804855Y-102894402D01*
X82793996Y-102907633D01*
X82784312Y-102924407D01*
X82738212Y-102975606D01*
X82689708Y-103034708D01*
X82671659Y-103049520D01*
X82654749Y-103068301D01*
X82602672Y-103106136D01*
X82549402Y-103149855D01*
X82523286Y-103163813D01*
X82498100Y-103182113D01*
X82443924Y-103206233D01*
X82389326Y-103235417D01*
X82354971Y-103245838D01*
X82321212Y-103260869D01*
X82268455Y-103272082D01*
X82215633Y-103288106D01*
X82173585Y-103292247D01*
X82131814Y-103301126D01*
X82083440Y-103301126D01*
X82035000Y-103305897D01*
X81986560Y-103301126D01*
X81938186Y-103301126D01*
X81896415Y-103292247D01*
X81854366Y-103288106D01*
X81801541Y-103272081D01*
X81748788Y-103260869D01*
X81715031Y-103245839D01*
X81680673Y-103235417D01*
X81626069Y-103206230D01*
X81571900Y-103182113D01*
X81546716Y-103163815D01*
X81520597Y-103149855D01*
X81467319Y-103106130D01*
X81415251Y-103068301D01*
X81398343Y-103049523D01*
X81380291Y-103034708D01*
X81331776Y-102975593D01*
X81285688Y-102924407D01*
X81276006Y-102907637D01*
X81265144Y-102894402D01*
X81224956Y-102819216D01*
X81188874Y-102756719D01*
X81184723Y-102743945D01*
X81179582Y-102734326D01*
X81151232Y-102640869D01*
X81129040Y-102572568D01*
X81128258Y-102565135D01*
X81126893Y-102560633D01*
X81113599Y-102425666D01*
X81108800Y-102380000D01*
X81113599Y-102334337D01*
X81126893Y-102199366D01*
X81128258Y-102194863D01*
X81129040Y-102187432D01*
X81151227Y-102119145D01*
X81179582Y-102025673D01*
X81184724Y-102016052D01*
X81188874Y-102003281D01*
X81224949Y-101940795D01*
X81265144Y-101865597D01*
X81276008Y-101852359D01*
X81285688Y-101835593D01*
X81331767Y-101784416D01*
X81380291Y-101725291D01*
X81398347Y-101710472D01*
X81415251Y-101691699D01*
X81467308Y-101653877D01*
X81520597Y-101610144D01*
X81546721Y-101596180D01*
X81571900Y-101577887D01*
X81626058Y-101553774D01*
X81680673Y-101524582D01*
X81715038Y-101514157D01*
X81748788Y-101499131D01*
X81801530Y-101487920D01*
X81854366Y-101471893D01*
X81896423Y-101467750D01*
X81938186Y-101458874D01*
X81986549Y-101458874D01*
X82035000Y-101454102D01*
X82083450Y-101458874D01*
G37*
G36*
X89083450Y-101458874D02*
G01*
X89131814Y-101458874D01*
X89173576Y-101467750D01*
X89215633Y-101471893D01*
X89268466Y-101487919D01*
X89321212Y-101499131D01*
X89354964Y-101514158D01*
X89389326Y-101524582D01*
X89443935Y-101553771D01*
X89498100Y-101577887D01*
X89523281Y-101596182D01*
X89549402Y-101610144D01*
X89602682Y-101653870D01*
X89654749Y-101691699D01*
X89671655Y-101710475D01*
X89689708Y-101725291D01*
X89738221Y-101784404D01*
X89784312Y-101835593D01*
X89793994Y-101852363D01*
X89804855Y-101865597D01*
X89845036Y-101940772D01*
X89881126Y-102003281D01*
X89885277Y-102016056D01*
X89890417Y-102025673D01*
X89918757Y-102119098D01*
X89940960Y-102187432D01*
X89941741Y-102194868D01*
X89943106Y-102199366D01*
X89956384Y-102334186D01*
X89961200Y-102380000D01*
X89956384Y-102425817D01*
X89943106Y-102560633D01*
X89941741Y-102565130D01*
X89940960Y-102572568D01*
X89918752Y-102640915D01*
X89890417Y-102734326D01*
X89885277Y-102743940D01*
X89881126Y-102756719D01*
X89845029Y-102819240D01*
X89804855Y-102894402D01*
X89793996Y-102907633D01*
X89784312Y-102924407D01*
X89738212Y-102975606D01*
X89689708Y-103034708D01*
X89671659Y-103049520D01*
X89654749Y-103068301D01*
X89602672Y-103106136D01*
X89549402Y-103149855D01*
X89523286Y-103163813D01*
X89498100Y-103182113D01*
X89443924Y-103206233D01*
X89389326Y-103235417D01*
X89354971Y-103245838D01*
X89321212Y-103260869D01*
X89268455Y-103272082D01*
X89215633Y-103288106D01*
X89173585Y-103292247D01*
X89131814Y-103301126D01*
X89083440Y-103301126D01*
X89035000Y-103305897D01*
X88986560Y-103301126D01*
X88938186Y-103301126D01*
X88896415Y-103292247D01*
X88854366Y-103288106D01*
X88801541Y-103272081D01*
X88748788Y-103260869D01*
X88715031Y-103245839D01*
X88680673Y-103235417D01*
X88626069Y-103206230D01*
X88571900Y-103182113D01*
X88546716Y-103163815D01*
X88520597Y-103149855D01*
X88467319Y-103106130D01*
X88415251Y-103068301D01*
X88398343Y-103049523D01*
X88380291Y-103034708D01*
X88331776Y-102975593D01*
X88285688Y-102924407D01*
X88276006Y-102907637D01*
X88265144Y-102894402D01*
X88224956Y-102819216D01*
X88188874Y-102756719D01*
X88184723Y-102743945D01*
X88179582Y-102734326D01*
X88151232Y-102640869D01*
X88129040Y-102572568D01*
X88128258Y-102565135D01*
X88126893Y-102560633D01*
X88113599Y-102425666D01*
X88108800Y-102380000D01*
X88113599Y-102334337D01*
X88126893Y-102199366D01*
X88128258Y-102194863D01*
X88129040Y-102187432D01*
X88151227Y-102119145D01*
X88179582Y-102025673D01*
X88184724Y-102016052D01*
X88188874Y-102003281D01*
X88224949Y-101940795D01*
X88265144Y-101865597D01*
X88276008Y-101852359D01*
X88285688Y-101835593D01*
X88331767Y-101784416D01*
X88380291Y-101725291D01*
X88398347Y-101710472D01*
X88415251Y-101691699D01*
X88467308Y-101653877D01*
X88520597Y-101610144D01*
X88546721Y-101596180D01*
X88571900Y-101577887D01*
X88626058Y-101553774D01*
X88680673Y-101524582D01*
X88715038Y-101514157D01*
X88748788Y-101499131D01*
X88801530Y-101487920D01*
X88854366Y-101471893D01*
X88896423Y-101467750D01*
X88938186Y-101458874D01*
X88986549Y-101458874D01*
X89035000Y-101454102D01*
X89083450Y-101458874D01*
G37*
G36*
X166418450Y-101430874D02*
G01*
X166466814Y-101430874D01*
X166508576Y-101439750D01*
X166550633Y-101443893D01*
X166603466Y-101459919D01*
X166656212Y-101471131D01*
X166689964Y-101486158D01*
X166724326Y-101496582D01*
X166778935Y-101525771D01*
X166833100Y-101549887D01*
X166858281Y-101568182D01*
X166884402Y-101582144D01*
X166937682Y-101625870D01*
X166989749Y-101663699D01*
X167006655Y-101682475D01*
X167024708Y-101697291D01*
X167073221Y-101756404D01*
X167119312Y-101807593D01*
X167128994Y-101824363D01*
X167139855Y-101837597D01*
X167180036Y-101912772D01*
X167216126Y-101975281D01*
X167220277Y-101988056D01*
X167225417Y-101997673D01*
X167253757Y-102091098D01*
X167275960Y-102159432D01*
X167276741Y-102166868D01*
X167278106Y-102171366D01*
X167291384Y-102306186D01*
X167296200Y-102352000D01*
X167291384Y-102397817D01*
X167278106Y-102532633D01*
X167276741Y-102537130D01*
X167275960Y-102544568D01*
X167253752Y-102612915D01*
X167225417Y-102706326D01*
X167220277Y-102715940D01*
X167216126Y-102728719D01*
X167180029Y-102791240D01*
X167139855Y-102866402D01*
X167128996Y-102879633D01*
X167119312Y-102896407D01*
X167073212Y-102947606D01*
X167024708Y-103006708D01*
X167006659Y-103021520D01*
X166989749Y-103040301D01*
X166937672Y-103078136D01*
X166884402Y-103121855D01*
X166858286Y-103135813D01*
X166833100Y-103154113D01*
X166778924Y-103178233D01*
X166724326Y-103207417D01*
X166689971Y-103217838D01*
X166656212Y-103232869D01*
X166603455Y-103244082D01*
X166550633Y-103260106D01*
X166508585Y-103264247D01*
X166466814Y-103273126D01*
X166418440Y-103273126D01*
X166370000Y-103277897D01*
X166321560Y-103273126D01*
X166273186Y-103273126D01*
X166231415Y-103264247D01*
X166189366Y-103260106D01*
X166136541Y-103244081D01*
X166083788Y-103232869D01*
X166050031Y-103217839D01*
X166015673Y-103207417D01*
X165961069Y-103178230D01*
X165906900Y-103154113D01*
X165881716Y-103135815D01*
X165855597Y-103121855D01*
X165802319Y-103078130D01*
X165750251Y-103040301D01*
X165733343Y-103021523D01*
X165715291Y-103006708D01*
X165666776Y-102947593D01*
X165620688Y-102896407D01*
X165611006Y-102879637D01*
X165600144Y-102866402D01*
X165559956Y-102791216D01*
X165523874Y-102728719D01*
X165519723Y-102715945D01*
X165514582Y-102706326D01*
X165486232Y-102612869D01*
X165464040Y-102544568D01*
X165463258Y-102537135D01*
X165461893Y-102532633D01*
X165448599Y-102397666D01*
X165443800Y-102352000D01*
X165448599Y-102306337D01*
X165461893Y-102171366D01*
X165463258Y-102166863D01*
X165464040Y-102159432D01*
X165486227Y-102091145D01*
X165514582Y-101997673D01*
X165519724Y-101988052D01*
X165523874Y-101975281D01*
X165559949Y-101912795D01*
X165600144Y-101837597D01*
X165611008Y-101824359D01*
X165620688Y-101807593D01*
X165666767Y-101756416D01*
X165715291Y-101697291D01*
X165733347Y-101682472D01*
X165750251Y-101663699D01*
X165802308Y-101625877D01*
X165855597Y-101582144D01*
X165881721Y-101568180D01*
X165906900Y-101549887D01*
X165961058Y-101525774D01*
X166015673Y-101496582D01*
X166050038Y-101486157D01*
X166083788Y-101471131D01*
X166136530Y-101459920D01*
X166189366Y-101443893D01*
X166231423Y-101439750D01*
X166273186Y-101430874D01*
X166321549Y-101430874D01*
X166370000Y-101426102D01*
X166418450Y-101430874D01*
G37*
G36*
X166418450Y-98890874D02*
G01*
X166466814Y-98890874D01*
X166508576Y-98899750D01*
X166550633Y-98903893D01*
X166603466Y-98919919D01*
X166656212Y-98931131D01*
X166689964Y-98946158D01*
X166724326Y-98956582D01*
X166778935Y-98985771D01*
X166833100Y-99009887D01*
X166858281Y-99028182D01*
X166884402Y-99042144D01*
X166937682Y-99085870D01*
X166989749Y-99123699D01*
X167006655Y-99142475D01*
X167024708Y-99157291D01*
X167073221Y-99216404D01*
X167119312Y-99267593D01*
X167128994Y-99284363D01*
X167139855Y-99297597D01*
X167180036Y-99372772D01*
X167216126Y-99435281D01*
X167220277Y-99448056D01*
X167225417Y-99457673D01*
X167253757Y-99551098D01*
X167275960Y-99619432D01*
X167276741Y-99626868D01*
X167278106Y-99631366D01*
X167291384Y-99766186D01*
X167296200Y-99812000D01*
X167291384Y-99857817D01*
X167278106Y-99992633D01*
X167276741Y-99997130D01*
X167275960Y-100004568D01*
X167253752Y-100072915D01*
X167225417Y-100166326D01*
X167220277Y-100175940D01*
X167216126Y-100188719D01*
X167180029Y-100251240D01*
X167139855Y-100326402D01*
X167128996Y-100339633D01*
X167119312Y-100356407D01*
X167073212Y-100407606D01*
X167024708Y-100466708D01*
X167006659Y-100481520D01*
X166989749Y-100500301D01*
X166937672Y-100538136D01*
X166884402Y-100581855D01*
X166858286Y-100595813D01*
X166833100Y-100614113D01*
X166778924Y-100638233D01*
X166724326Y-100667417D01*
X166689971Y-100677838D01*
X166656212Y-100692869D01*
X166603455Y-100704082D01*
X166550633Y-100720106D01*
X166508585Y-100724247D01*
X166466814Y-100733126D01*
X166418440Y-100733126D01*
X166370000Y-100737897D01*
X166321560Y-100733126D01*
X166273186Y-100733126D01*
X166231415Y-100724247D01*
X166189366Y-100720106D01*
X166136541Y-100704081D01*
X166083788Y-100692869D01*
X166050031Y-100677839D01*
X166015673Y-100667417D01*
X165961069Y-100638230D01*
X165906900Y-100614113D01*
X165881716Y-100595815D01*
X165855597Y-100581855D01*
X165802319Y-100538130D01*
X165750251Y-100500301D01*
X165733343Y-100481523D01*
X165715291Y-100466708D01*
X165666776Y-100407593D01*
X165620688Y-100356407D01*
X165611006Y-100339637D01*
X165600144Y-100326402D01*
X165559956Y-100251216D01*
X165523874Y-100188719D01*
X165519723Y-100175945D01*
X165514582Y-100166326D01*
X165486232Y-100072869D01*
X165464040Y-100004568D01*
X165463258Y-99997135D01*
X165461893Y-99992633D01*
X165448599Y-99857666D01*
X165443800Y-99812000D01*
X165448599Y-99766337D01*
X165461893Y-99631366D01*
X165463258Y-99626863D01*
X165464040Y-99619432D01*
X165486227Y-99551145D01*
X165514582Y-99457673D01*
X165519724Y-99448052D01*
X165523874Y-99435281D01*
X165559949Y-99372795D01*
X165600144Y-99297597D01*
X165611008Y-99284359D01*
X165620688Y-99267593D01*
X165666767Y-99216416D01*
X165715291Y-99157291D01*
X165733347Y-99142472D01*
X165750251Y-99123699D01*
X165802308Y-99085877D01*
X165855597Y-99042144D01*
X165881721Y-99028180D01*
X165906900Y-99009887D01*
X165961058Y-98985774D01*
X166015673Y-98956582D01*
X166050038Y-98946157D01*
X166083788Y-98931131D01*
X166136530Y-98919920D01*
X166189366Y-98903893D01*
X166231423Y-98899750D01*
X166273186Y-98890874D01*
X166321549Y-98890874D01*
X166370000Y-98886102D01*
X166418450Y-98890874D01*
G37*
G36*
X225284801Y-98740037D02*
G01*
X225353233Y-98744342D01*
X225390838Y-98753997D01*
X225432132Y-98759434D01*
X225464942Y-98773024D01*
X225494930Y-98780724D01*
X225529763Y-98799873D01*
X225571100Y-98816996D01*
X225596853Y-98836757D01*
X225621389Y-98850246D01*
X225652475Y-98879437D01*
X225690435Y-98908565D01*
X225708334Y-98931891D01*
X225726585Y-98949030D01*
X225750972Y-98987459D01*
X225782004Y-99027900D01*
X225792090Y-99052251D01*
X225803912Y-99070879D01*
X225818852Y-99116859D01*
X225839566Y-99166868D01*
X225842607Y-99189972D01*
X225848505Y-99208122D01*
X225851715Y-99259153D01*
X225859200Y-99316000D01*
X225856556Y-99336082D01*
X225857567Y-99352149D01*
X225847477Y-99405037D01*
X225839566Y-99465132D01*
X225832981Y-99481028D01*
X225830526Y-99493900D01*
X225806511Y-99544933D01*
X225782004Y-99604100D01*
X225773382Y-99615335D01*
X225769081Y-99624477D01*
X225731637Y-99669738D01*
X225690435Y-99723435D01*
X225681622Y-99730196D01*
X225677095Y-99735670D01*
X225628086Y-99771276D01*
X225571100Y-99815004D01*
X225563658Y-99818086D01*
X225560346Y-99820493D01*
X225503772Y-99842891D01*
X225432132Y-99872566D01*
X225427174Y-99873218D01*
X225426171Y-99873616D01*
X225376330Y-99879912D01*
X225283000Y-99892200D01*
X225279069Y-99892200D01*
X224184969Y-99892200D01*
X224183000Y-99892200D01*
X224181197Y-99891962D01*
X224112766Y-99887657D01*
X224075167Y-99878003D01*
X224033868Y-99872566D01*
X224001052Y-99858973D01*
X223971069Y-99851275D01*
X223936240Y-99832127D01*
X223894900Y-99815004D01*
X223869144Y-99795240D01*
X223844610Y-99781753D01*
X223813525Y-99752562D01*
X223775565Y-99723435D01*
X223757665Y-99700108D01*
X223739414Y-99682969D01*
X223715025Y-99644537D01*
X223683996Y-99604100D01*
X223673910Y-99579750D01*
X223662087Y-99561120D01*
X223647144Y-99515132D01*
X223626434Y-99465132D01*
X223623392Y-99442031D01*
X223617494Y-99423877D01*
X223614282Y-99372833D01*
X223606800Y-99316000D01*
X223609443Y-99295922D01*
X223608432Y-99279850D01*
X223618524Y-99226941D01*
X223626434Y-99166868D01*
X223633016Y-99150976D01*
X223635473Y-99138099D01*
X223659499Y-99087039D01*
X223683996Y-99027900D01*
X223692613Y-99016669D01*
X223696918Y-99007522D01*
X223734385Y-98962231D01*
X223775565Y-98908565D01*
X223784372Y-98901806D01*
X223788904Y-98896329D01*
X223837956Y-98860690D01*
X223894900Y-98816996D01*
X223902336Y-98813915D01*
X223905653Y-98811506D01*
X223962304Y-98789076D01*
X224033868Y-98759434D01*
X224038820Y-98758782D01*
X224039828Y-98758383D01*
X224089809Y-98752069D01*
X224183000Y-98739800D01*
X225283000Y-98739800D01*
X225284801Y-98740037D01*
G37*
G36*
X229314801Y-98740037D02*
G01*
X229383233Y-98744342D01*
X229420838Y-98753997D01*
X229462132Y-98759434D01*
X229494942Y-98773024D01*
X229524930Y-98780724D01*
X229559763Y-98799873D01*
X229601100Y-98816996D01*
X229626853Y-98836757D01*
X229651389Y-98850246D01*
X229682475Y-98879437D01*
X229720435Y-98908565D01*
X229738334Y-98931891D01*
X229756585Y-98949030D01*
X229780972Y-98987459D01*
X229812004Y-99027900D01*
X229822090Y-99052251D01*
X229833912Y-99070879D01*
X229848852Y-99116859D01*
X229869566Y-99166868D01*
X229872607Y-99189972D01*
X229878505Y-99208122D01*
X229881715Y-99259153D01*
X229889200Y-99316000D01*
X229886556Y-99336082D01*
X229887567Y-99352149D01*
X229877477Y-99405037D01*
X229869566Y-99465132D01*
X229862981Y-99481028D01*
X229860526Y-99493900D01*
X229836511Y-99544933D01*
X229812004Y-99604100D01*
X229803382Y-99615335D01*
X229799081Y-99624477D01*
X229761637Y-99669738D01*
X229720435Y-99723435D01*
X229711622Y-99730196D01*
X229707095Y-99735670D01*
X229658086Y-99771276D01*
X229601100Y-99815004D01*
X229593658Y-99818086D01*
X229590346Y-99820493D01*
X229533772Y-99842891D01*
X229462132Y-99872566D01*
X229457174Y-99873218D01*
X229456171Y-99873616D01*
X229406330Y-99879912D01*
X229313000Y-99892200D01*
X229309069Y-99892200D01*
X228514969Y-99892200D01*
X228513000Y-99892200D01*
X228511197Y-99891962D01*
X228442766Y-99887657D01*
X228405167Y-99878003D01*
X228363868Y-99872566D01*
X228331052Y-99858973D01*
X228301069Y-99851275D01*
X228266240Y-99832127D01*
X228224900Y-99815004D01*
X228199144Y-99795240D01*
X228174610Y-99781753D01*
X228143525Y-99752562D01*
X228105565Y-99723435D01*
X228087665Y-99700108D01*
X228069414Y-99682969D01*
X228045025Y-99644537D01*
X228013996Y-99604100D01*
X228003910Y-99579750D01*
X227992087Y-99561120D01*
X227977144Y-99515132D01*
X227956434Y-99465132D01*
X227953392Y-99442031D01*
X227947494Y-99423877D01*
X227944282Y-99372833D01*
X227936800Y-99316000D01*
X227939443Y-99295922D01*
X227938432Y-99279850D01*
X227948524Y-99226941D01*
X227956434Y-99166868D01*
X227963016Y-99150976D01*
X227965473Y-99138099D01*
X227989499Y-99087039D01*
X228013996Y-99027900D01*
X228022613Y-99016669D01*
X228026918Y-99007522D01*
X228064385Y-98962231D01*
X228105565Y-98908565D01*
X228114372Y-98901806D01*
X228118904Y-98896329D01*
X228167956Y-98860690D01*
X228224900Y-98816996D01*
X228232336Y-98813915D01*
X228235653Y-98811506D01*
X228292304Y-98789076D01*
X228363868Y-98759434D01*
X228368820Y-98758782D01*
X228369828Y-98758383D01*
X228419809Y-98752069D01*
X228513000Y-98739800D01*
X229313000Y-98739800D01*
X229314801Y-98740037D01*
G37*
G36*
X225262801Y-97489520D02*
G01*
X225290006Y-97489520D01*
X225321865Y-97498874D01*
X225356978Y-97504436D01*
X225378972Y-97515642D01*
X225399397Y-97521640D01*
X225432520Y-97542926D01*
X225468819Y-97561422D01*
X225482342Y-97574945D01*
X225495310Y-97583279D01*
X225525389Y-97617992D01*
X225557578Y-97650181D01*
X225563711Y-97662218D01*
X225569969Y-97669440D01*
X225592247Y-97718224D01*
X225614564Y-97762022D01*
X225615792Y-97769780D01*
X225617331Y-97773149D01*
X225627224Y-97841960D01*
X225634200Y-97886000D01*
X225627224Y-97930043D01*
X225617331Y-97998850D01*
X225615793Y-98002217D01*
X225614564Y-98009978D01*
X225592243Y-98053784D01*
X225569969Y-98102559D01*
X225563712Y-98109779D01*
X225557578Y-98121819D01*
X225525382Y-98154014D01*
X225495310Y-98188720D01*
X225482344Y-98197052D01*
X225468819Y-98210578D01*
X225432512Y-98229077D01*
X225399397Y-98250359D01*
X225378976Y-98256355D01*
X225356978Y-98267564D01*
X225321863Y-98273125D01*
X225290006Y-98282480D01*
X225262801Y-98282480D01*
X225233000Y-98287200D01*
X225203199Y-98282480D01*
X225175994Y-98282480D01*
X225144135Y-98273125D01*
X225109022Y-98267564D01*
X225087024Y-98256355D01*
X225066602Y-98250359D01*
X225033482Y-98229074D01*
X224997181Y-98210578D01*
X224983656Y-98197053D01*
X224970689Y-98188720D01*
X224940609Y-98154006D01*
X224908422Y-98121819D01*
X224902288Y-98109782D01*
X224896030Y-98102559D01*
X224873746Y-98053765D01*
X224851436Y-98009978D01*
X224850207Y-98002220D01*
X224848668Y-97998850D01*
X224838764Y-97929975D01*
X224831800Y-97886000D01*
X224838764Y-97842028D01*
X224848668Y-97773149D01*
X224850207Y-97769777D01*
X224851436Y-97762022D01*
X224873742Y-97718243D01*
X224896030Y-97669440D01*
X224902290Y-97662215D01*
X224908422Y-97650181D01*
X224940603Y-97617999D01*
X224970689Y-97583279D01*
X224983659Y-97574943D01*
X224997181Y-97561422D01*
X225033475Y-97542929D01*
X225066602Y-97521640D01*
X225087028Y-97515642D01*
X225109022Y-97504436D01*
X225144133Y-97498874D01*
X225175994Y-97489520D01*
X225203199Y-97489520D01*
X225233000Y-97484800D01*
X225262801Y-97489520D01*
G37*
G36*
X166418450Y-96350874D02*
G01*
X166466814Y-96350874D01*
X166508576Y-96359750D01*
X166550633Y-96363893D01*
X166603466Y-96379919D01*
X166656212Y-96391131D01*
X166689964Y-96406158D01*
X166724326Y-96416582D01*
X166778935Y-96445771D01*
X166833100Y-96469887D01*
X166858281Y-96488182D01*
X166884402Y-96502144D01*
X166937682Y-96545870D01*
X166989749Y-96583699D01*
X167006655Y-96602475D01*
X167024708Y-96617291D01*
X167073221Y-96676404D01*
X167119312Y-96727593D01*
X167128994Y-96744363D01*
X167139855Y-96757597D01*
X167180036Y-96832772D01*
X167216126Y-96895281D01*
X167220277Y-96908056D01*
X167225417Y-96917673D01*
X167253757Y-97011098D01*
X167275960Y-97079432D01*
X167276741Y-97086868D01*
X167278106Y-97091366D01*
X167291384Y-97226186D01*
X167296200Y-97272000D01*
X167291384Y-97317817D01*
X167278106Y-97452633D01*
X167276741Y-97457130D01*
X167275960Y-97464568D01*
X167253752Y-97532915D01*
X167225417Y-97626326D01*
X167220277Y-97635940D01*
X167216126Y-97648719D01*
X167180029Y-97711240D01*
X167139855Y-97786402D01*
X167128996Y-97799633D01*
X167119312Y-97816407D01*
X167073212Y-97867606D01*
X167024708Y-97926708D01*
X167006659Y-97941520D01*
X166989749Y-97960301D01*
X166937672Y-97998136D01*
X166884402Y-98041855D01*
X166858286Y-98055813D01*
X166833100Y-98074113D01*
X166778924Y-98098233D01*
X166724326Y-98127417D01*
X166689971Y-98137838D01*
X166656212Y-98152869D01*
X166603455Y-98164082D01*
X166550633Y-98180106D01*
X166508585Y-98184247D01*
X166466814Y-98193126D01*
X166418440Y-98193126D01*
X166370000Y-98197897D01*
X166321560Y-98193126D01*
X166273186Y-98193126D01*
X166231415Y-98184247D01*
X166189366Y-98180106D01*
X166136541Y-98164081D01*
X166083788Y-98152869D01*
X166050031Y-98137839D01*
X166015673Y-98127417D01*
X165961069Y-98098230D01*
X165906900Y-98074113D01*
X165881716Y-98055815D01*
X165855597Y-98041855D01*
X165802319Y-97998130D01*
X165750251Y-97960301D01*
X165733343Y-97941523D01*
X165715291Y-97926708D01*
X165666776Y-97867593D01*
X165620688Y-97816407D01*
X165611006Y-97799637D01*
X165600144Y-97786402D01*
X165559956Y-97711216D01*
X165523874Y-97648719D01*
X165519723Y-97635945D01*
X165514582Y-97626326D01*
X165486232Y-97532869D01*
X165464040Y-97464568D01*
X165463258Y-97457135D01*
X165461893Y-97452633D01*
X165448599Y-97317666D01*
X165443800Y-97272000D01*
X165448599Y-97226337D01*
X165461893Y-97091366D01*
X165463258Y-97086863D01*
X165464040Y-97079432D01*
X165486227Y-97011145D01*
X165514582Y-96917673D01*
X165519724Y-96908052D01*
X165523874Y-96895281D01*
X165559949Y-96832795D01*
X165600144Y-96757597D01*
X165611008Y-96744359D01*
X165620688Y-96727593D01*
X165666767Y-96676416D01*
X165715291Y-96617291D01*
X165733347Y-96602472D01*
X165750251Y-96583699D01*
X165802308Y-96545877D01*
X165855597Y-96502144D01*
X165881721Y-96488180D01*
X165906900Y-96469887D01*
X165961058Y-96445774D01*
X166015673Y-96416582D01*
X166050038Y-96406157D01*
X166083788Y-96391131D01*
X166136530Y-96379920D01*
X166189366Y-96363893D01*
X166231423Y-96359750D01*
X166273186Y-96350874D01*
X166321549Y-96350874D01*
X166370000Y-96346102D01*
X166418450Y-96350874D01*
G37*
G36*
X225262801Y-91709520D02*
G01*
X225290006Y-91709520D01*
X225321865Y-91718874D01*
X225356978Y-91724436D01*
X225378972Y-91735642D01*
X225399397Y-91741640D01*
X225432520Y-91762926D01*
X225468819Y-91781422D01*
X225482342Y-91794945D01*
X225495310Y-91803279D01*
X225525389Y-91837992D01*
X225557578Y-91870181D01*
X225563711Y-91882218D01*
X225569969Y-91889440D01*
X225592247Y-91938224D01*
X225614564Y-91982022D01*
X225615792Y-91989780D01*
X225617331Y-91993149D01*
X225627224Y-92061960D01*
X225634200Y-92106000D01*
X225627224Y-92150043D01*
X225617331Y-92218850D01*
X225615793Y-92222217D01*
X225614564Y-92229978D01*
X225592243Y-92273784D01*
X225569969Y-92322559D01*
X225563712Y-92329779D01*
X225557578Y-92341819D01*
X225525382Y-92374014D01*
X225495310Y-92408720D01*
X225482344Y-92417052D01*
X225468819Y-92430578D01*
X225432512Y-92449077D01*
X225399397Y-92470359D01*
X225378976Y-92476355D01*
X225356978Y-92487564D01*
X225321863Y-92493125D01*
X225290006Y-92502480D01*
X225262801Y-92502480D01*
X225233000Y-92507200D01*
X225203199Y-92502480D01*
X225175994Y-92502480D01*
X225144135Y-92493125D01*
X225109022Y-92487564D01*
X225087024Y-92476355D01*
X225066602Y-92470359D01*
X225033482Y-92449074D01*
X224997181Y-92430578D01*
X224983656Y-92417053D01*
X224970689Y-92408720D01*
X224940609Y-92374006D01*
X224908422Y-92341819D01*
X224902288Y-92329782D01*
X224896030Y-92322559D01*
X224873746Y-92273765D01*
X224851436Y-92229978D01*
X224850207Y-92222220D01*
X224848668Y-92218850D01*
X224838764Y-92149975D01*
X224831800Y-92106000D01*
X224838764Y-92062028D01*
X224848668Y-91993149D01*
X224850207Y-91989777D01*
X224851436Y-91982022D01*
X224873742Y-91938243D01*
X224896030Y-91889440D01*
X224902290Y-91882215D01*
X224908422Y-91870181D01*
X224940603Y-91837999D01*
X224970689Y-91803279D01*
X224983659Y-91794943D01*
X224997181Y-91781422D01*
X225033475Y-91762929D01*
X225066602Y-91741640D01*
X225087028Y-91735642D01*
X225109022Y-91724436D01*
X225144133Y-91718874D01*
X225175994Y-91709520D01*
X225203199Y-91709520D01*
X225233000Y-91704800D01*
X225262801Y-91709520D01*
G37*
G36*
X225284801Y-90100037D02*
G01*
X225353233Y-90104342D01*
X225390838Y-90113997D01*
X225432132Y-90119434D01*
X225464942Y-90133024D01*
X225494930Y-90140724D01*
X225529763Y-90159873D01*
X225571100Y-90176996D01*
X225596853Y-90196757D01*
X225621389Y-90210246D01*
X225652475Y-90239437D01*
X225690435Y-90268565D01*
X225708334Y-90291891D01*
X225726585Y-90309030D01*
X225750972Y-90347459D01*
X225782004Y-90387900D01*
X225792090Y-90412251D01*
X225803912Y-90430879D01*
X225818852Y-90476859D01*
X225839566Y-90526868D01*
X225842607Y-90549972D01*
X225848505Y-90568122D01*
X225851715Y-90619153D01*
X225859200Y-90676000D01*
X225856556Y-90696082D01*
X225857567Y-90712149D01*
X225847477Y-90765037D01*
X225839566Y-90825132D01*
X225832981Y-90841028D01*
X225830526Y-90853900D01*
X225806511Y-90904933D01*
X225782004Y-90964100D01*
X225773382Y-90975335D01*
X225769081Y-90984477D01*
X225731637Y-91029738D01*
X225690435Y-91083435D01*
X225681622Y-91090196D01*
X225677095Y-91095670D01*
X225628086Y-91131276D01*
X225571100Y-91175004D01*
X225563658Y-91178086D01*
X225560346Y-91180493D01*
X225503772Y-91202891D01*
X225432132Y-91232566D01*
X225427174Y-91233218D01*
X225426171Y-91233616D01*
X225376330Y-91239912D01*
X225283000Y-91252200D01*
X225279069Y-91252200D01*
X224184969Y-91252200D01*
X224183000Y-91252200D01*
X224181197Y-91251962D01*
X224112766Y-91247657D01*
X224075167Y-91238003D01*
X224033868Y-91232566D01*
X224001052Y-91218973D01*
X223971069Y-91211275D01*
X223936240Y-91192127D01*
X223894900Y-91175004D01*
X223869144Y-91155240D01*
X223844610Y-91141753D01*
X223813525Y-91112562D01*
X223775565Y-91083435D01*
X223757665Y-91060108D01*
X223739414Y-91042969D01*
X223715025Y-91004537D01*
X223683996Y-90964100D01*
X223673910Y-90939750D01*
X223662087Y-90921120D01*
X223647144Y-90875132D01*
X223626434Y-90825132D01*
X223623392Y-90802031D01*
X223617494Y-90783877D01*
X223614282Y-90732833D01*
X223606800Y-90676000D01*
X223609443Y-90655922D01*
X223608432Y-90639850D01*
X223618524Y-90586941D01*
X223626434Y-90526868D01*
X223633016Y-90510976D01*
X223635473Y-90498099D01*
X223659499Y-90447039D01*
X223683996Y-90387900D01*
X223692613Y-90376669D01*
X223696918Y-90367522D01*
X223734385Y-90322231D01*
X223775565Y-90268565D01*
X223784372Y-90261806D01*
X223788904Y-90256329D01*
X223837956Y-90220690D01*
X223894900Y-90176996D01*
X223902336Y-90173915D01*
X223905653Y-90171506D01*
X223962304Y-90149076D01*
X224033868Y-90119434D01*
X224038820Y-90118782D01*
X224039828Y-90118383D01*
X224089809Y-90112069D01*
X224183000Y-90099800D01*
X225283000Y-90099800D01*
X225284801Y-90100037D01*
G37*
G36*
X229314801Y-90100037D02*
G01*
X229383233Y-90104342D01*
X229420838Y-90113997D01*
X229462132Y-90119434D01*
X229494942Y-90133024D01*
X229524930Y-90140724D01*
X229559763Y-90159873D01*
X229601100Y-90176996D01*
X229626853Y-90196757D01*
X229651389Y-90210246D01*
X229682475Y-90239437D01*
X229720435Y-90268565D01*
X229738334Y-90291891D01*
X229756585Y-90309030D01*
X229780972Y-90347459D01*
X229812004Y-90387900D01*
X229822090Y-90412251D01*
X229833912Y-90430879D01*
X229848852Y-90476859D01*
X229869566Y-90526868D01*
X229872607Y-90549972D01*
X229878505Y-90568122D01*
X229881715Y-90619153D01*
X229889200Y-90676000D01*
X229886556Y-90696082D01*
X229887567Y-90712149D01*
X229877477Y-90765037D01*
X229869566Y-90825132D01*
X229862981Y-90841028D01*
X229860526Y-90853900D01*
X229836511Y-90904933D01*
X229812004Y-90964100D01*
X229803382Y-90975335D01*
X229799081Y-90984477D01*
X229761637Y-91029738D01*
X229720435Y-91083435D01*
X229711622Y-91090196D01*
X229707095Y-91095670D01*
X229658086Y-91131276D01*
X229601100Y-91175004D01*
X229593658Y-91178086D01*
X229590346Y-91180493D01*
X229533772Y-91202891D01*
X229462132Y-91232566D01*
X229457174Y-91233218D01*
X229456171Y-91233616D01*
X229406330Y-91239912D01*
X229313000Y-91252200D01*
X229309069Y-91252200D01*
X228514969Y-91252200D01*
X228513000Y-91252200D01*
X228511197Y-91251962D01*
X228442766Y-91247657D01*
X228405167Y-91238003D01*
X228363868Y-91232566D01*
X228331052Y-91218973D01*
X228301069Y-91211275D01*
X228266240Y-91192127D01*
X228224900Y-91175004D01*
X228199144Y-91155240D01*
X228174610Y-91141753D01*
X228143525Y-91112562D01*
X228105565Y-91083435D01*
X228087665Y-91060108D01*
X228069414Y-91042969D01*
X228045025Y-91004537D01*
X228013996Y-90964100D01*
X228003910Y-90939750D01*
X227992087Y-90921120D01*
X227977144Y-90875132D01*
X227956434Y-90825132D01*
X227953392Y-90802031D01*
X227947494Y-90783877D01*
X227944282Y-90732833D01*
X227936800Y-90676000D01*
X227939443Y-90655922D01*
X227938432Y-90639850D01*
X227948524Y-90586941D01*
X227956434Y-90526868D01*
X227963016Y-90510976D01*
X227965473Y-90498099D01*
X227989499Y-90447039D01*
X228013996Y-90387900D01*
X228022613Y-90376669D01*
X228026918Y-90367522D01*
X228064385Y-90322231D01*
X228105565Y-90268565D01*
X228114372Y-90261806D01*
X228118904Y-90256329D01*
X228167956Y-90220690D01*
X228224900Y-90176996D01*
X228232336Y-90173915D01*
X228235653Y-90171506D01*
X228292304Y-90149076D01*
X228363868Y-90119434D01*
X228368820Y-90118782D01*
X228369828Y-90118383D01*
X228419809Y-90112069D01*
X228513000Y-90099800D01*
X229313000Y-90099800D01*
X229314801Y-90100037D01*
G37*
G36*
X82083450Y-84658874D02*
G01*
X82131814Y-84658874D01*
X82173576Y-84667750D01*
X82215633Y-84671893D01*
X82268466Y-84687919D01*
X82321212Y-84699131D01*
X82354964Y-84714158D01*
X82389326Y-84724582D01*
X82443935Y-84753771D01*
X82498100Y-84777887D01*
X82523281Y-84796182D01*
X82549402Y-84810144D01*
X82602682Y-84853870D01*
X82654749Y-84891699D01*
X82671655Y-84910475D01*
X82689708Y-84925291D01*
X82738221Y-84984404D01*
X82784312Y-85035593D01*
X82793994Y-85052363D01*
X82804855Y-85065597D01*
X82845036Y-85140772D01*
X82881126Y-85203281D01*
X82885277Y-85216056D01*
X82890417Y-85225673D01*
X82918757Y-85319098D01*
X82940960Y-85387432D01*
X82941741Y-85394868D01*
X82943106Y-85399366D01*
X82956384Y-85534186D01*
X82961200Y-85580000D01*
X82956384Y-85625817D01*
X82943106Y-85760633D01*
X82941741Y-85765130D01*
X82940960Y-85772568D01*
X82918752Y-85840915D01*
X82890417Y-85934326D01*
X82885277Y-85943940D01*
X82881126Y-85956719D01*
X82845029Y-86019240D01*
X82804855Y-86094402D01*
X82793996Y-86107633D01*
X82784312Y-86124407D01*
X82738212Y-86175606D01*
X82689708Y-86234708D01*
X82671659Y-86249520D01*
X82654749Y-86268301D01*
X82602672Y-86306136D01*
X82549402Y-86349855D01*
X82523286Y-86363813D01*
X82498100Y-86382113D01*
X82443924Y-86406233D01*
X82389326Y-86435417D01*
X82354971Y-86445838D01*
X82321212Y-86460869D01*
X82268455Y-86472082D01*
X82215633Y-86488106D01*
X82173585Y-86492247D01*
X82131814Y-86501126D01*
X82083440Y-86501126D01*
X82035000Y-86505897D01*
X81986560Y-86501126D01*
X81938186Y-86501126D01*
X81896415Y-86492247D01*
X81854366Y-86488106D01*
X81801541Y-86472081D01*
X81748788Y-86460869D01*
X81715031Y-86445839D01*
X81680673Y-86435417D01*
X81626069Y-86406230D01*
X81571900Y-86382113D01*
X81546716Y-86363815D01*
X81520597Y-86349855D01*
X81467319Y-86306130D01*
X81415251Y-86268301D01*
X81398343Y-86249523D01*
X81380291Y-86234708D01*
X81331776Y-86175593D01*
X81285688Y-86124407D01*
X81276006Y-86107637D01*
X81265144Y-86094402D01*
X81224956Y-86019216D01*
X81188874Y-85956719D01*
X81184723Y-85943945D01*
X81179582Y-85934326D01*
X81151232Y-85840869D01*
X81129040Y-85772568D01*
X81128258Y-85765135D01*
X81126893Y-85760633D01*
X81113599Y-85625666D01*
X81108800Y-85580000D01*
X81113599Y-85534337D01*
X81126893Y-85399366D01*
X81128258Y-85394863D01*
X81129040Y-85387432D01*
X81151227Y-85319145D01*
X81179582Y-85225673D01*
X81184724Y-85216052D01*
X81188874Y-85203281D01*
X81224949Y-85140795D01*
X81265144Y-85065597D01*
X81276008Y-85052359D01*
X81285688Y-85035593D01*
X81331767Y-84984416D01*
X81380291Y-84925291D01*
X81398347Y-84910472D01*
X81415251Y-84891699D01*
X81467308Y-84853877D01*
X81520597Y-84810144D01*
X81546721Y-84796180D01*
X81571900Y-84777887D01*
X81626058Y-84753774D01*
X81680673Y-84724582D01*
X81715038Y-84714157D01*
X81748788Y-84699131D01*
X81801530Y-84687920D01*
X81854366Y-84671893D01*
X81896423Y-84667750D01*
X81938186Y-84658874D01*
X81986549Y-84658874D01*
X82035000Y-84654102D01*
X82083450Y-84658874D01*
G37*
G36*
X89083450Y-84658874D02*
G01*
X89131814Y-84658874D01*
X89173576Y-84667750D01*
X89215633Y-84671893D01*
X89268466Y-84687919D01*
X89321212Y-84699131D01*
X89354964Y-84714158D01*
X89389326Y-84724582D01*
X89443935Y-84753771D01*
X89498100Y-84777887D01*
X89523281Y-84796182D01*
X89549402Y-84810144D01*
X89602682Y-84853870D01*
X89654749Y-84891699D01*
X89671655Y-84910475D01*
X89689708Y-84925291D01*
X89738221Y-84984404D01*
X89784312Y-85035593D01*
X89793994Y-85052363D01*
X89804855Y-85065597D01*
X89845036Y-85140772D01*
X89881126Y-85203281D01*
X89885277Y-85216056D01*
X89890417Y-85225673D01*
X89918757Y-85319098D01*
X89940960Y-85387432D01*
X89941741Y-85394868D01*
X89943106Y-85399366D01*
X89956384Y-85534186D01*
X89961200Y-85580000D01*
X89956384Y-85625817D01*
X89943106Y-85760633D01*
X89941741Y-85765130D01*
X89940960Y-85772568D01*
X89918752Y-85840915D01*
X89890417Y-85934326D01*
X89885277Y-85943940D01*
X89881126Y-85956719D01*
X89845029Y-86019240D01*
X89804855Y-86094402D01*
X89793996Y-86107633D01*
X89784312Y-86124407D01*
X89738212Y-86175606D01*
X89689708Y-86234708D01*
X89671659Y-86249520D01*
X89654749Y-86268301D01*
X89602672Y-86306136D01*
X89549402Y-86349855D01*
X89523286Y-86363813D01*
X89498100Y-86382113D01*
X89443924Y-86406233D01*
X89389326Y-86435417D01*
X89354971Y-86445838D01*
X89321212Y-86460869D01*
X89268455Y-86472082D01*
X89215633Y-86488106D01*
X89173585Y-86492247D01*
X89131814Y-86501126D01*
X89083440Y-86501126D01*
X89035000Y-86505897D01*
X88986560Y-86501126D01*
X88938186Y-86501126D01*
X88896415Y-86492247D01*
X88854366Y-86488106D01*
X88801541Y-86472081D01*
X88748788Y-86460869D01*
X88715031Y-86445839D01*
X88680673Y-86435417D01*
X88626069Y-86406230D01*
X88571900Y-86382113D01*
X88546716Y-86363815D01*
X88520597Y-86349855D01*
X88467319Y-86306130D01*
X88415251Y-86268301D01*
X88398343Y-86249523D01*
X88380291Y-86234708D01*
X88331776Y-86175593D01*
X88285688Y-86124407D01*
X88276006Y-86107637D01*
X88265144Y-86094402D01*
X88224956Y-86019216D01*
X88188874Y-85956719D01*
X88184723Y-85943945D01*
X88179582Y-85934326D01*
X88151232Y-85840869D01*
X88129040Y-85772568D01*
X88128258Y-85765135D01*
X88126893Y-85760633D01*
X88113599Y-85625666D01*
X88108800Y-85580000D01*
X88113599Y-85534337D01*
X88126893Y-85399366D01*
X88128258Y-85394863D01*
X88129040Y-85387432D01*
X88151227Y-85319145D01*
X88179582Y-85225673D01*
X88184724Y-85216052D01*
X88188874Y-85203281D01*
X88224949Y-85140795D01*
X88265144Y-85065597D01*
X88276008Y-85052359D01*
X88285688Y-85035593D01*
X88331767Y-84984416D01*
X88380291Y-84925291D01*
X88398347Y-84910472D01*
X88415251Y-84891699D01*
X88467308Y-84853877D01*
X88520597Y-84810144D01*
X88546721Y-84796180D01*
X88571900Y-84777887D01*
X88626058Y-84753774D01*
X88680673Y-84724582D01*
X88715038Y-84714157D01*
X88748788Y-84699131D01*
X88801530Y-84687920D01*
X88854366Y-84671893D01*
X88896423Y-84667750D01*
X88938186Y-84658874D01*
X88986549Y-84658874D01*
X89035000Y-84654102D01*
X89083450Y-84658874D01*
G37*
G36*
X81779447Y-72267496D02*
G01*
X82104903Y-72344631D01*
X82419205Y-72459027D01*
X82718100Y-72609138D01*
X82997548Y-72792933D01*
X83253768Y-73007928D01*
X83483297Y-73251214D01*
X83683030Y-73519502D01*
X83850266Y-73809164D01*
X83982744Y-74116282D01*
X84078672Y-74436703D01*
X84136752Y-74766094D01*
X84156200Y-75100000D01*
X84136752Y-75433906D01*
X84078672Y-75763297D01*
X83982744Y-76083718D01*
X83850266Y-76390836D01*
X83683030Y-76680498D01*
X83483297Y-76948786D01*
X83253768Y-77192072D01*
X82997548Y-77407067D01*
X82718100Y-77590862D01*
X82419205Y-77740973D01*
X82104903Y-77855369D01*
X81779447Y-77932504D01*
X81447236Y-77971334D01*
X81112764Y-77971334D01*
X80780553Y-77932504D01*
X80455097Y-77855369D01*
X80140795Y-77740973D01*
X79841900Y-77590862D01*
X79562452Y-77407067D01*
X79306232Y-77192072D01*
X79076703Y-76948786D01*
X78876970Y-76680498D01*
X78709734Y-76390836D01*
X78577256Y-76083718D01*
X78481328Y-75763297D01*
X78423248Y-75433906D01*
X78403800Y-75100000D01*
X78423248Y-74766094D01*
X78481328Y-74436703D01*
X78577256Y-74116282D01*
X78709734Y-73809164D01*
X78876970Y-73519502D01*
X79076703Y-73251214D01*
X79306232Y-73007928D01*
X79562452Y-72792933D01*
X79841900Y-72609138D01*
X80140795Y-72459027D01*
X80455097Y-72344631D01*
X80780553Y-72267496D01*
X81112764Y-72228666D01*
X81447236Y-72228666D01*
X81779447Y-72267496D01*
G37*
G36*
X226559447Y-72267496D02*
G01*
X226884903Y-72344631D01*
X227199205Y-72459027D01*
X227498100Y-72609138D01*
X227777548Y-72792933D01*
X228033768Y-73007928D01*
X228263297Y-73251214D01*
X228463030Y-73519502D01*
X228630266Y-73809164D01*
X228762744Y-74116282D01*
X228858672Y-74436703D01*
X228916752Y-74766094D01*
X228936200Y-75100000D01*
X228916752Y-75433906D01*
X228858672Y-75763297D01*
X228762744Y-76083718D01*
X228630266Y-76390836D01*
X228463030Y-76680498D01*
X228263297Y-76948786D01*
X228033768Y-77192072D01*
X227777548Y-77407067D01*
X227498100Y-77590862D01*
X227199205Y-77740973D01*
X226884903Y-77855369D01*
X226559447Y-77932504D01*
X226227236Y-77971334D01*
X225892764Y-77971334D01*
X225560553Y-77932504D01*
X225235097Y-77855369D01*
X224920795Y-77740973D01*
X224621900Y-77590862D01*
X224342452Y-77407067D01*
X224086232Y-77192072D01*
X223856703Y-76948786D01*
X223656970Y-76680498D01*
X223489734Y-76390836D01*
X223357256Y-76083718D01*
X223261328Y-75763297D01*
X223203248Y-75433906D01*
X223183800Y-75100000D01*
X223203248Y-74766094D01*
X223261328Y-74436703D01*
X223357256Y-74116282D01*
X223489734Y-73809164D01*
X223656970Y-73519502D01*
X223856703Y-73251214D01*
X224086232Y-73007928D01*
X224342452Y-72792933D01*
X224621900Y-72609138D01*
X224920795Y-72459027D01*
X225235097Y-72344631D01*
X225560553Y-72267496D01*
X225892764Y-72228666D01*
X226227236Y-72228666D01*
X226559447Y-72267496D01*
G37*
G36*
X174919516Y-75799883D02*
G01*
X175104704Y-75871625D01*
X175273555Y-75976174D01*
X175420321Y-76109969D01*
X175540004Y-76268454D01*
X175628527Y-76446232D01*
X175682876Y-76637249D01*
X175701200Y-76835000D01*
X175682876Y-77032751D01*
X175628527Y-77223768D01*
X175540004Y-77401546D01*
X175420321Y-77560031D01*
X175273555Y-77693826D01*
X175104704Y-77798375D01*
X174919516Y-77870117D01*
X174724299Y-77906609D01*
X174525701Y-77906609D01*
X174330484Y-77870117D01*
X174145296Y-77798375D01*
X173976445Y-77693826D01*
X173829679Y-77560031D01*
X173709996Y-77401546D01*
X173621473Y-77223768D01*
X173567124Y-77032751D01*
X173548800Y-76835000D01*
X173567124Y-76637249D01*
X173621473Y-76446232D01*
X173709996Y-76268454D01*
X173829679Y-76109969D01*
X173976445Y-75976174D01*
X174145296Y-75871625D01*
X174330484Y-75799883D01*
X174525701Y-75763391D01*
X174724299Y-75763391D01*
X174919516Y-75799883D01*
G37*
G36*
X177459516Y-75799883D02*
G01*
X177644704Y-75871625D01*
X177813555Y-75976174D01*
X177960321Y-76109969D01*
X178080004Y-76268454D01*
X178168527Y-76446232D01*
X178222876Y-76637249D01*
X178241200Y-76835000D01*
X178222876Y-77032751D01*
X178168527Y-77223768D01*
X178080004Y-77401546D01*
X177960321Y-77560031D01*
X177813555Y-77693826D01*
X177644704Y-77798375D01*
X177459516Y-77870117D01*
X177264299Y-77906609D01*
X177065701Y-77906609D01*
X176870484Y-77870117D01*
X176685296Y-77798375D01*
X176516445Y-77693826D01*
X176369679Y-77560031D01*
X176249996Y-77401546D01*
X176161473Y-77223768D01*
X176107124Y-77032751D01*
X176088800Y-76835000D01*
X176107124Y-76637249D01*
X176161473Y-76446232D01*
X176249996Y-76268454D01*
X176369679Y-76109969D01*
X176516445Y-75976174D01*
X176685296Y-75871625D01*
X176870484Y-75799883D01*
X177065701Y-75763391D01*
X177264299Y-75763391D01*
X177459516Y-75799883D01*
G37*
G36*
X179999516Y-75799883D02*
G01*
X180184704Y-75871625D01*
X180353555Y-75976174D01*
X180500321Y-76109969D01*
X180620004Y-76268454D01*
X180708527Y-76446232D01*
X180762876Y-76637249D01*
X180781200Y-76835000D01*
X180762876Y-77032751D01*
X180708527Y-77223768D01*
X180620004Y-77401546D01*
X180500321Y-77560031D01*
X180353555Y-77693826D01*
X180184704Y-77798375D01*
X179999516Y-77870117D01*
X179804299Y-77906609D01*
X179605701Y-77906609D01*
X179410484Y-77870117D01*
X179225296Y-77798375D01*
X179056445Y-77693826D01*
X178909679Y-77560031D01*
X178789996Y-77401546D01*
X178701473Y-77223768D01*
X178647124Y-77032751D01*
X178628800Y-76835000D01*
X178647124Y-76637249D01*
X178701473Y-76446232D01*
X178789996Y-76268454D01*
X178909679Y-76109969D01*
X179056445Y-75976174D01*
X179225296Y-75871625D01*
X179410484Y-75799883D01*
X179605701Y-75763391D01*
X179804299Y-75763391D01*
X179999516Y-75799883D01*
G37*
G36*
X182539516Y-75799883D02*
G01*
X182724704Y-75871625D01*
X182893555Y-75976174D01*
X183040321Y-76109969D01*
X183160004Y-76268454D01*
X183248527Y-76446232D01*
X183302876Y-76637249D01*
X183321200Y-76835000D01*
X183302876Y-77032751D01*
X183248527Y-77223768D01*
X183160004Y-77401546D01*
X183040321Y-77560031D01*
X182893555Y-77693826D01*
X182724704Y-77798375D01*
X182539516Y-77870117D01*
X182344299Y-77906609D01*
X182145701Y-77906609D01*
X181950484Y-77870117D01*
X181765296Y-77798375D01*
X181596445Y-77693826D01*
X181449679Y-77560031D01*
X181329996Y-77401546D01*
X181241473Y-77223768D01*
X181187124Y-77032751D01*
X181168800Y-76835000D01*
X181187124Y-76637249D01*
X181241473Y-76446232D01*
X181329996Y-76268454D01*
X181449679Y-76109969D01*
X181596445Y-75976174D01*
X181765296Y-75871625D01*
X181950484Y-75799883D01*
X182145701Y-75763391D01*
X182344299Y-75763391D01*
X182539516Y-75799883D01*
G37*
G36*
X185079516Y-75799883D02*
G01*
X185264704Y-75871625D01*
X185433555Y-75976174D01*
X185580321Y-76109969D01*
X185700004Y-76268454D01*
X185788527Y-76446232D01*
X185842876Y-76637249D01*
X185861200Y-76835000D01*
X185842876Y-77032751D01*
X185788527Y-77223768D01*
X185700004Y-77401546D01*
X185580321Y-77560031D01*
X185433555Y-77693826D01*
X185264704Y-77798375D01*
X185079516Y-77870117D01*
X184884299Y-77906609D01*
X184685701Y-77906609D01*
X184490484Y-77870117D01*
X184305296Y-77798375D01*
X184136445Y-77693826D01*
X183989679Y-77560031D01*
X183869996Y-77401546D01*
X183781473Y-77223768D01*
X183727124Y-77032751D01*
X183708800Y-76835000D01*
X183727124Y-76637249D01*
X183781473Y-76446232D01*
X183869996Y-76268454D01*
X183989679Y-76109969D01*
X184136445Y-75976174D01*
X184305296Y-75871625D01*
X184490484Y-75799883D01*
X184685701Y-75763391D01*
X184884299Y-75763391D01*
X185079516Y-75799883D01*
G37*
G36*
X187619516Y-75799883D02*
G01*
X187804704Y-75871625D01*
X187973555Y-75976174D01*
X188120321Y-76109969D01*
X188240004Y-76268454D01*
X188328527Y-76446232D01*
X188382876Y-76637249D01*
X188401200Y-76835000D01*
X188382876Y-77032751D01*
X188328527Y-77223768D01*
X188240004Y-77401546D01*
X188120321Y-77560031D01*
X187973555Y-77693826D01*
X187804704Y-77798375D01*
X187619516Y-77870117D01*
X187424299Y-77906609D01*
X187225701Y-77906609D01*
X187030484Y-77870117D01*
X186845296Y-77798375D01*
X186676445Y-77693826D01*
X186529679Y-77560031D01*
X186409996Y-77401546D01*
X186321473Y-77223768D01*
X186267124Y-77032751D01*
X186248800Y-76835000D01*
X186267124Y-76637249D01*
X186321473Y-76446232D01*
X186409996Y-76268454D01*
X186529679Y-76109969D01*
X186676445Y-75976174D01*
X186845296Y-75871625D01*
X187030484Y-75799883D01*
X187225701Y-75763391D01*
X187424299Y-75763391D01*
X187619516Y-75799883D01*
G37*
G36*
X190159516Y-75799883D02*
G01*
X190344704Y-75871625D01*
X190513555Y-75976174D01*
X190660321Y-76109969D01*
X190780004Y-76268454D01*
X190868527Y-76446232D01*
X190922876Y-76637249D01*
X190941200Y-76835000D01*
X190922876Y-77032751D01*
X190868527Y-77223768D01*
X190780004Y-77401546D01*
X190660321Y-77560031D01*
X190513555Y-77693826D01*
X190344704Y-77798375D01*
X190159516Y-77870117D01*
X189964299Y-77906609D01*
X189765701Y-77906609D01*
X189570484Y-77870117D01*
X189385296Y-77798375D01*
X189216445Y-77693826D01*
X189069679Y-77560031D01*
X188949996Y-77401546D01*
X188861473Y-77223768D01*
X188807124Y-77032751D01*
X188788800Y-76835000D01*
X188807124Y-76637249D01*
X188861473Y-76446232D01*
X188949996Y-76268454D01*
X189069679Y-76109969D01*
X189216445Y-75976174D01*
X189385296Y-75871625D01*
X189570484Y-75799883D01*
X189765701Y-75763391D01*
X189964299Y-75763391D01*
X190159516Y-75799883D01*
G37*
G36*
X192699516Y-75799883D02*
G01*
X192884704Y-75871625D01*
X193053555Y-75976174D01*
X193200321Y-76109969D01*
X193320004Y-76268454D01*
X193408527Y-76446232D01*
X193462876Y-76637249D01*
X193481200Y-76835000D01*
X193462876Y-77032751D01*
X193408527Y-77223768D01*
X193320004Y-77401546D01*
X193200321Y-77560031D01*
X193053555Y-77693826D01*
X192884704Y-77798375D01*
X192699516Y-77870117D01*
X192504299Y-77906609D01*
X192305701Y-77906609D01*
X192110484Y-77870117D01*
X191925296Y-77798375D01*
X191756445Y-77693826D01*
X191609679Y-77560031D01*
X191489996Y-77401546D01*
X191401473Y-77223768D01*
X191347124Y-77032751D01*
X191328800Y-76835000D01*
X191347124Y-76637249D01*
X191401473Y-76446232D01*
X191489996Y-76268454D01*
X191609679Y-76109969D01*
X191756445Y-75976174D01*
X191925296Y-75871625D01*
X192110484Y-75799883D01*
X192305701Y-75763391D01*
X192504299Y-75763391D01*
X192699516Y-75799883D01*
G37*
G36*
X195239516Y-75799883D02*
G01*
X195424704Y-75871625D01*
X195593555Y-75976174D01*
X195740321Y-76109969D01*
X195860004Y-76268454D01*
X195948527Y-76446232D01*
X196002876Y-76637249D01*
X196021200Y-76835000D01*
X196002876Y-77032751D01*
X195948527Y-77223768D01*
X195860004Y-77401546D01*
X195740321Y-77560031D01*
X195593555Y-77693826D01*
X195424704Y-77798375D01*
X195239516Y-77870117D01*
X195044299Y-77906609D01*
X194845701Y-77906609D01*
X194650484Y-77870117D01*
X194465296Y-77798375D01*
X194296445Y-77693826D01*
X194149679Y-77560031D01*
X194029996Y-77401546D01*
X193941473Y-77223768D01*
X193887124Y-77032751D01*
X193868800Y-76835000D01*
X193887124Y-76637249D01*
X193941473Y-76446232D01*
X194029996Y-76268454D01*
X194149679Y-76109969D01*
X194296445Y-75976174D01*
X194465296Y-75871625D01*
X194650484Y-75799883D01*
X194845701Y-75763391D01*
X195044299Y-75763391D01*
X195239516Y-75799883D01*
G37*
G36*
X197779516Y-75799883D02*
G01*
X197964704Y-75871625D01*
X198133555Y-75976174D01*
X198280321Y-76109969D01*
X198400004Y-76268454D01*
X198488527Y-76446232D01*
X198542876Y-76637249D01*
X198561200Y-76835000D01*
X198542876Y-77032751D01*
X198488527Y-77223768D01*
X198400004Y-77401546D01*
X198280321Y-77560031D01*
X198133555Y-77693826D01*
X197964704Y-77798375D01*
X197779516Y-77870117D01*
X197584299Y-77906609D01*
X197385701Y-77906609D01*
X197190484Y-77870117D01*
X197005296Y-77798375D01*
X196836445Y-77693826D01*
X196689679Y-77560031D01*
X196569996Y-77401546D01*
X196481473Y-77223768D01*
X196427124Y-77032751D01*
X196408800Y-76835000D01*
X196427124Y-76637249D01*
X196481473Y-76446232D01*
X196569996Y-76268454D01*
X196689679Y-76109969D01*
X196836445Y-75976174D01*
X197005296Y-75871625D01*
X197190484Y-75799883D01*
X197385701Y-75763391D01*
X197584299Y-75763391D01*
X197779516Y-75799883D01*
G37*
G36*
X174919516Y-73259883D02*
G01*
X175104704Y-73331625D01*
X175273555Y-73436174D01*
X175420321Y-73569969D01*
X175540004Y-73728454D01*
X175628527Y-73906232D01*
X175682876Y-74097249D01*
X175701200Y-74295000D01*
X175682876Y-74492751D01*
X175628527Y-74683768D01*
X175540004Y-74861546D01*
X175420321Y-75020031D01*
X175273555Y-75153826D01*
X175104704Y-75258375D01*
X174919516Y-75330117D01*
X174724299Y-75366609D01*
X174525701Y-75366609D01*
X174330484Y-75330117D01*
X174145296Y-75258375D01*
X173976445Y-75153826D01*
X173829679Y-75020031D01*
X173709996Y-74861546D01*
X173621473Y-74683768D01*
X173567124Y-74492751D01*
X173548800Y-74295000D01*
X173567124Y-74097249D01*
X173621473Y-73906232D01*
X173709996Y-73728454D01*
X173829679Y-73569969D01*
X173976445Y-73436174D01*
X174145296Y-73331625D01*
X174330484Y-73259883D01*
X174525701Y-73223391D01*
X174724299Y-73223391D01*
X174919516Y-73259883D01*
G37*
G36*
X177459516Y-73259883D02*
G01*
X177644704Y-73331625D01*
X177813555Y-73436174D01*
X177960321Y-73569969D01*
X178080004Y-73728454D01*
X178168527Y-73906232D01*
X178222876Y-74097249D01*
X178241200Y-74295000D01*
X178222876Y-74492751D01*
X178168527Y-74683768D01*
X178080004Y-74861546D01*
X177960321Y-75020031D01*
X177813555Y-75153826D01*
X177644704Y-75258375D01*
X177459516Y-75330117D01*
X177264299Y-75366609D01*
X177065701Y-75366609D01*
X176870484Y-75330117D01*
X176685296Y-75258375D01*
X176516445Y-75153826D01*
X176369679Y-75020031D01*
X176249996Y-74861546D01*
X176161473Y-74683768D01*
X176107124Y-74492751D01*
X176088800Y-74295000D01*
X176107124Y-74097249D01*
X176161473Y-73906232D01*
X176249996Y-73728454D01*
X176369679Y-73569969D01*
X176516445Y-73436174D01*
X176685296Y-73331625D01*
X176870484Y-73259883D01*
X177065701Y-73223391D01*
X177264299Y-73223391D01*
X177459516Y-73259883D01*
G37*
G36*
X179999516Y-73259883D02*
G01*
X180184704Y-73331625D01*
X180353555Y-73436174D01*
X180500321Y-73569969D01*
X180620004Y-73728454D01*
X180708527Y-73906232D01*
X180762876Y-74097249D01*
X180781200Y-74295000D01*
X180762876Y-74492751D01*
X180708527Y-74683768D01*
X180620004Y-74861546D01*
X180500321Y-75020031D01*
X180353555Y-75153826D01*
X180184704Y-75258375D01*
X179999516Y-75330117D01*
X179804299Y-75366609D01*
X179605701Y-75366609D01*
X179410484Y-75330117D01*
X179225296Y-75258375D01*
X179056445Y-75153826D01*
X178909679Y-75020031D01*
X178789996Y-74861546D01*
X178701473Y-74683768D01*
X178647124Y-74492751D01*
X178628800Y-74295000D01*
X178647124Y-74097249D01*
X178701473Y-73906232D01*
X178789996Y-73728454D01*
X178909679Y-73569969D01*
X179056445Y-73436174D01*
X179225296Y-73331625D01*
X179410484Y-73259883D01*
X179605701Y-73223391D01*
X179804299Y-73223391D01*
X179999516Y-73259883D01*
G37*
G36*
X182539516Y-73259883D02*
G01*
X182724704Y-73331625D01*
X182893555Y-73436174D01*
X183040321Y-73569969D01*
X183160004Y-73728454D01*
X183248527Y-73906232D01*
X183302876Y-74097249D01*
X183321200Y-74295000D01*
X183302876Y-74492751D01*
X183248527Y-74683768D01*
X183160004Y-74861546D01*
X183040321Y-75020031D01*
X182893555Y-75153826D01*
X182724704Y-75258375D01*
X182539516Y-75330117D01*
X182344299Y-75366609D01*
X182145701Y-75366609D01*
X181950484Y-75330117D01*
X181765296Y-75258375D01*
X181596445Y-75153826D01*
X181449679Y-75020031D01*
X181329996Y-74861546D01*
X181241473Y-74683768D01*
X181187124Y-74492751D01*
X181168800Y-74295000D01*
X181187124Y-74097249D01*
X181241473Y-73906232D01*
X181329996Y-73728454D01*
X181449679Y-73569969D01*
X181596445Y-73436174D01*
X181765296Y-73331625D01*
X181950484Y-73259883D01*
X182145701Y-73223391D01*
X182344299Y-73223391D01*
X182539516Y-73259883D01*
G37*
G36*
X185079516Y-73259883D02*
G01*
X185264704Y-73331625D01*
X185433555Y-73436174D01*
X185580321Y-73569969D01*
X185700004Y-73728454D01*
X185788527Y-73906232D01*
X185842876Y-74097249D01*
X185861200Y-74295000D01*
X185842876Y-74492751D01*
X185788527Y-74683768D01*
X185700004Y-74861546D01*
X185580321Y-75020031D01*
X185433555Y-75153826D01*
X185264704Y-75258375D01*
X185079516Y-75330117D01*
X184884299Y-75366609D01*
X184685701Y-75366609D01*
X184490484Y-75330117D01*
X184305296Y-75258375D01*
X184136445Y-75153826D01*
X183989679Y-75020031D01*
X183869996Y-74861546D01*
X183781473Y-74683768D01*
X183727124Y-74492751D01*
X183708800Y-74295000D01*
X183727124Y-74097249D01*
X183781473Y-73906232D01*
X183869996Y-73728454D01*
X183989679Y-73569969D01*
X184136445Y-73436174D01*
X184305296Y-73331625D01*
X184490484Y-73259883D01*
X184685701Y-73223391D01*
X184884299Y-73223391D01*
X185079516Y-73259883D01*
G37*
G36*
X187619516Y-73259883D02*
G01*
X187804704Y-73331625D01*
X187973555Y-73436174D01*
X188120321Y-73569969D01*
X188240004Y-73728454D01*
X188328527Y-73906232D01*
X188382876Y-74097249D01*
X188401200Y-74295000D01*
X188382876Y-74492751D01*
X188328527Y-74683768D01*
X188240004Y-74861546D01*
X188120321Y-75020031D01*
X187973555Y-75153826D01*
X187804704Y-75258375D01*
X187619516Y-75330117D01*
X187424299Y-75366609D01*
X187225701Y-75366609D01*
X187030484Y-75330117D01*
X186845296Y-75258375D01*
X186676445Y-75153826D01*
X186529679Y-75020031D01*
X186409996Y-74861546D01*
X186321473Y-74683768D01*
X186267124Y-74492751D01*
X186248800Y-74295000D01*
X186267124Y-74097249D01*
X186321473Y-73906232D01*
X186409996Y-73728454D01*
X186529679Y-73569969D01*
X186676445Y-73436174D01*
X186845296Y-73331625D01*
X187030484Y-73259883D01*
X187225701Y-73223391D01*
X187424299Y-73223391D01*
X187619516Y-73259883D01*
G37*
G36*
X190159516Y-73259883D02*
G01*
X190344704Y-73331625D01*
X190513555Y-73436174D01*
X190660321Y-73569969D01*
X190780004Y-73728454D01*
X190868527Y-73906232D01*
X190922876Y-74097249D01*
X190941200Y-74295000D01*
X190922876Y-74492751D01*
X190868527Y-74683768D01*
X190780004Y-74861546D01*
X190660321Y-75020031D01*
X190513555Y-75153826D01*
X190344704Y-75258375D01*
X190159516Y-75330117D01*
X189964299Y-75366609D01*
X189765701Y-75366609D01*
X189570484Y-75330117D01*
X189385296Y-75258375D01*
X189216445Y-75153826D01*
X189069679Y-75020031D01*
X188949996Y-74861546D01*
X188861473Y-74683768D01*
X188807124Y-74492751D01*
X188788800Y-74295000D01*
X188807124Y-74097249D01*
X188861473Y-73906232D01*
X188949996Y-73728454D01*
X189069679Y-73569969D01*
X189216445Y-73436174D01*
X189385296Y-73331625D01*
X189570484Y-73259883D01*
X189765701Y-73223391D01*
X189964299Y-73223391D01*
X190159516Y-73259883D01*
G37*
G36*
X192699516Y-73259883D02*
G01*
X192884704Y-73331625D01*
X193053555Y-73436174D01*
X193200321Y-73569969D01*
X193320004Y-73728454D01*
X193408527Y-73906232D01*
X193462876Y-74097249D01*
X193481200Y-74295000D01*
X193462876Y-74492751D01*
X193408527Y-74683768D01*
X193320004Y-74861546D01*
X193200321Y-75020031D01*
X193053555Y-75153826D01*
X192884704Y-75258375D01*
X192699516Y-75330117D01*
X192504299Y-75366609D01*
X192305701Y-75366609D01*
X192110484Y-75330117D01*
X191925296Y-75258375D01*
X191756445Y-75153826D01*
X191609679Y-75020031D01*
X191489996Y-74861546D01*
X191401473Y-74683768D01*
X191347124Y-74492751D01*
X191328800Y-74295000D01*
X191347124Y-74097249D01*
X191401473Y-73906232D01*
X191489996Y-73728454D01*
X191609679Y-73569969D01*
X191756445Y-73436174D01*
X191925296Y-73331625D01*
X192110484Y-73259883D01*
X192305701Y-73223391D01*
X192504299Y-73223391D01*
X192699516Y-73259883D01*
G37*
G36*
X195239516Y-73259883D02*
G01*
X195424704Y-73331625D01*
X195593555Y-73436174D01*
X195740321Y-73569969D01*
X195860004Y-73728454D01*
X195948527Y-73906232D01*
X196002876Y-74097249D01*
X196021200Y-74295000D01*
X196002876Y-74492751D01*
X195948527Y-74683768D01*
X195860004Y-74861546D01*
X195740321Y-75020031D01*
X195593555Y-75153826D01*
X195424704Y-75258375D01*
X195239516Y-75330117D01*
X195044299Y-75366609D01*
X194845701Y-75366609D01*
X194650484Y-75330117D01*
X194465296Y-75258375D01*
X194296445Y-75153826D01*
X194149679Y-75020031D01*
X194029996Y-74861546D01*
X193941473Y-74683768D01*
X193887124Y-74492751D01*
X193868800Y-74295000D01*
X193887124Y-74097249D01*
X193941473Y-73906232D01*
X194029996Y-73728454D01*
X194149679Y-73569969D01*
X194296445Y-73436174D01*
X194465296Y-73331625D01*
X194650484Y-73259883D01*
X194845701Y-73223391D01*
X195044299Y-73223391D01*
X195239516Y-73259883D01*
G37*
G36*
X197779516Y-73259883D02*
G01*
X197964704Y-73331625D01*
X198133555Y-73436174D01*
X198280321Y-73569969D01*
X198400004Y-73728454D01*
X198488527Y-73906232D01*
X198542876Y-74097249D01*
X198561200Y-74295000D01*
X198542876Y-74492751D01*
X198488527Y-74683768D01*
X198400004Y-74861546D01*
X198280321Y-75020031D01*
X198133555Y-75153826D01*
X197964704Y-75258375D01*
X197779516Y-75330117D01*
X197584299Y-75366609D01*
X197385701Y-75366609D01*
X197190484Y-75330117D01*
X197005296Y-75258375D01*
X196836445Y-75153826D01*
X196689679Y-75020031D01*
X196569996Y-74861546D01*
X196481473Y-74683768D01*
X196427124Y-74492751D01*
X196408800Y-74295000D01*
X196427124Y-74097249D01*
X196481473Y-73906232D01*
X196569996Y-73728454D01*
X196689679Y-73569969D01*
X196836445Y-73436174D01*
X197005296Y-73331625D01*
X197190484Y-73259883D01*
X197385701Y-73223391D01*
X197584299Y-73223391D01*
X197779516Y-73259883D01*
G37*
G36*
X149622761Y-73080684D02*
G01*
X149790100Y-73155189D01*
X149938292Y-73262857D01*
X150060861Y-73398983D01*
X150152449Y-73557617D01*
X150209053Y-73731828D01*
X150228200Y-73914000D01*
X150209053Y-74096172D01*
X150152449Y-74270383D01*
X150060861Y-74429017D01*
X149938292Y-74565143D01*
X149790100Y-74672811D01*
X149622761Y-74747316D01*
X149443588Y-74785400D01*
X149260412Y-74785400D01*
X149081239Y-74747316D01*
X148913900Y-74672811D01*
X148765708Y-74565143D01*
X148643139Y-74429017D01*
X148551551Y-74270383D01*
X148494947Y-74096172D01*
X148475800Y-73914000D01*
X148494947Y-73731828D01*
X148551551Y-73557617D01*
X148643139Y-73398983D01*
X148765708Y-73262857D01*
X148913900Y-73155189D01*
X149081239Y-73080684D01*
X149260412Y-73042600D01*
X149443588Y-73042600D01*
X149622761Y-73080684D01*
G37*
G36*
X157242761Y-73080684D02*
G01*
X157410100Y-73155189D01*
X157558292Y-73262857D01*
X157680861Y-73398983D01*
X157772449Y-73557617D01*
X157829053Y-73731828D01*
X157848200Y-73914000D01*
X157829053Y-74096172D01*
X157772449Y-74270383D01*
X157680861Y-74429017D01*
X157558292Y-74565143D01*
X157410100Y-74672811D01*
X157242761Y-74747316D01*
X157063588Y-74785400D01*
X156880412Y-74785400D01*
X156701239Y-74747316D01*
X156533900Y-74672811D01*
X156385708Y-74565143D01*
X156263139Y-74429017D01*
X156171551Y-74270383D01*
X156114947Y-74096172D01*
X156095800Y-73914000D01*
X156114947Y-73731828D01*
X156171551Y-73557617D01*
X156263139Y-73398983D01*
X156385708Y-73262857D01*
X156533900Y-73155189D01*
X156701239Y-73080684D01*
X156880412Y-73042600D01*
X157063588Y-73042600D01*
X157242761Y-73080684D01*
G37*
M02*
